/* XPM */
static char *ajmaw_mingi[] = {
/* columns rows colors chars-per-pixel */
"50 50 39 1 ",
"  c None",
". c #080810",
"X c #090810",
"o c #090910",
"O c #090811",
"+ c #071924",
"@ c #071925",
"# c #131022",
"$ c #121122",
"% c #131122",
"& c #131123",
"* c #202334",
"= c #212334",
"- c #212235",
"; c #202335",
": c #212335",
"> c #790B0E",
", c #780A0F",
"< c #790A0F",
"1 c #780B0F",
"2 c #790B0F",
"3 c #670E10",
"4 c #670F10",
"5 c #670E11",
"6 c #413D5A",
"7 c #413C5B",
"8 c #403D5B",
"9 c #413D5B",
"0 c #9E0A0F",
"q c #9E0B0F",
"w c #C00C12",
"e c #C00D12",
"r c #C10D12",
"t c #FB0000",
"y c #B46A60",
"u c #B56A60",
"i c #E5AF8D",
"p c #FEEFDD",
"a c #FFEFDD",
/* pixels */
"                                     22           ",
"                                 2   2e2   2      ",
"                                 2   2e22         ",
"                                     2ee2         ",
"                   %%%%             22ee22        ",
"                  %%66:X           22eee22        ",
"                 %%6@@@:X         22eeeee2        ",
"                 %6@@@@%:X        22eeeee2        ",
"                %%6@t@%t:X        2e44qqe2        ",
"                %%6@@@%%:X       2e444qqqe2       ",
"           6    %%6@@%%%:X       2e44qXqqe2       ",
"           66  X%%6:%%%:%6 X     2e4qqXX4e22      ",
"           :6:::X%%66::%X%X%     2ee4qq44e22      ",
"           6:66%:6X%%%%X6X%%X    2eeX4qqee22      ",
"   uiaa    %6%:6::%6X%X6%X%X%    22eXX44e22       ",
"  uiaaiu  6:%:66%q::%:6%%X%%XX    22XXee22        ",
"  uiXuuX  :::%6%%%qq:6%%4XX%%%     2XX222         ",
"  uuuiiu  %:%:%%q::%q:64%%XXX%      X             ",
"   uiiu    %:%::%q:::q4%%4 %X%X    XX             ",
"    uiu    %%%% :%qq::6%4   %X66   XX             ",
"          %6%6   ::%q::4%   X:::6  XX             ",
"         %:%6:   %::%q4%     :::6  XX             ",
"         :%6::    %::%%%      :::: X              ",
"        6:%::     q%6%%4X     6::: X              ",
"        :66:     %:qq44XXX    66:6XX              ",
"     % :6%:     %::%%XXXXX     :::%X              ",
"     :%6%:     %%:%:6X%%%X      66:%              ",
"     ::%:     %::%:%X%%:%XX      %%:              ",
"      ::      %:%%:6X%:%%%X       X               ",
"             %%%:%:X%::%%%XX      X               ",
"            %:%%:%%X%%%%%%XX      X               ",
"            %%:%:%6%X%%:%%%X     X                ",
"            %%:%%6%:X%:::%%X     X                ",
"            %:%%6%: X%: ::%X     X                ",
"             %%6%6: X% ::::X     X                ",
"              %6%:%  X::X::X     X                ",
"             %%::%    :XXX:     X                 ",
"             %:::%   XX%%X:     X                 ",
"            %:::%%   X%%XXX     X                 ",
"            %::%%    %%XXXX     X                 ",
"             %:%%     XXXX      X                 ",
"             %:%     XXXX      X                  ",
"             %:%     XXX       X                  ",
"             ::%     XXX       X                  ",
"             :%%      XX                          ",
"            %:%%      X%%                         ",
"            :%%        %%                         ",
"            :%%         %                         ",
"            :%%                                   ",
"             %                                    "
};
