/* XPM */
static char *aj1ii_5bd5y[] = {
/* columns rows colors chars-per-pixel */
"50 50 41 1 ",
"  c None",
". c #080810",
"X c #090810",
"o c #090910",
"O c #090811",
"+ c #090911",
"@ c #071924",
"# c #071925",
"$ c #131022",
"% c #121122",
"& c #131122",
"* c #121023",
"= c #131123",
"- c #202334",
"; c #212334",
": c #212235",
"> c #202335",
", c #212335",
"< c #790B0E",
"1 c #780A0F",
"2 c #790A0F",
"3 c #790B0F",
"4 c #660E10",
"5 c #670E10",
"6 c #670F10",
"7 c #670E11",
"8 c #413C5B",
"9 c #403D5B",
"0 c #413D5B",
"q c #9E0B0E",
"w c #9E0A0F",
"e c #9E0B0F",
"r c #9F0B0F",
"t c #C00C12",
"y c #C00D12",
"u c #C00D13",
"i c #FB0000",
"p c #B46A60",
"a c #B56A60",
"s c #E5AF8D",
"d c #FFEFDD",
/* pixels */
"                                        3         ",
"                                       33         ",
"                                       333        ",
"                     &&&&             33y3        ",
"                    &&00,X            33y33       ",
"                   &&0###,X          33yy33 33    ",
"                   &0####&,X         3yyyy3 3     ",
"                  &&0#i#&i,X        3y55eey3      ",
"                  &&0###&&,X       3y555eeey3     ",
"             0    &&0##&&&,X       3y55eXeey3     ",
"             00  X&&0,&&&,&0 X     3y5eeXX5y3     ",
"             ,0,,,X&&00,,&X&X&    33yy5ee55y3     ",
"             0,00&,0X&&&&X0X&&X   33yyX5eeyy3     ",
"             &0&,0,,&0X&X0&X&X&    33yXX55y33     ",
"            0,&,00&e,,&,0&&X&&XX    33XXyy33      ",
"            ,,,&0&&&ee,0&&5XX&&&     3XX333       ",
"     asdd   &,&,&&e,,,e,05&&XXX&      X33         ",
"    asddsa   &,&,,&e,,,e5&&5 &X&X    XX           ",
"    asXaaX   &&&& ,&ee,,0&5   &X00   XX           ",
"    aaassa  &0&0   ,,&e,,5&   X,,,0  XX           ",
"     assa  &,&0,   &,,&e5&     ,,,0  XX           ",
"      asa  ,&0,,    &,,&&&      ,,,, X            ",
"          0,&,,     e&0&&5X     0,,, X            ",
"          ,00,     &,ee55XXX    00,0XX            ",
"       & ,0&,     &,,&&XXXXX     ,,,&X            ",
"       ,&0&,     &&,&,0X&&&X      00,&            ",
"       ,,&,     &,,&,&X&&,&XX      &&,            ",
"        ,,      &,&&,0X&,&&&X       X             ",
"               &&&,&,X&,,&&&XX      X             ",
"              &,&&,&&X&&&&&&XX      X             ",
"              &&,&,&0&X&&,&&&X     X              ",
"              &&,&&0&,X&,,,&&X     X              ",
"              &,&&0&, X&, ,,&X     X              ",
"               &&0&0, X&  ,,,X     X              ",
"                &0&,&  X ,,X,X     X              ",
"               &&,,&     ,X&X,    X               ",
"               &,,,&    XX&&X,    X               ",
"              &,,,&&    X&&XXX    X               ",
"              &,,&&     &&XXXX    X               ",
"               &,&&      XXXX     X               ",
"               ,&&      XXXX     X                ",
"              ,,&       XXX      X                ",
"              ,,&       XXX      X                ",
"              ,&&        XX                       ",
"             ,,&&        X&&                      ",
"             ,&&          &&                      ",
"             ,&&           &                      ",
"             ,&&                                  ",
"              &                                   ",
"                                                  "
};
