/* XPM */
static char *a986w_dtmba[] = {
/* columns rows colors chars-per-pixel */
"50 50 40 1 ",
"  c None",
". c #080810",
"X c #090810",
"o c #080910",
"O c #090910",
"+ c #090811",
"@ c #071924",
"# c #071825",
"$ c #061925",
"% c #071925",
"& c #131022",
"* c #121122",
"= c #131122",
"- c #131123",
"; c #212334",
": c #212235",
"> c #202335",
", c #212335",
"< c #790B0E",
"1 c #790A0F",
"2 c #780B0F",
"3 c #790B0F",
"4 c #660E10",
"5 c #670E10",
"6 c #670E11",
"7 c #413D5A",
"8 c #413C5B",
"9 c #403D5B",
"0 c #413D5B",
"q c #9E0B0E",
"w c #9E0B0F",
"e c #C00C12",
"r c #C00D12",
"t c #C10D12",
"y c #FB0000",
"u c #B56A60",
"i c #E5AF8C",
"p c #E5AE8D",
"a c #E5AF8D",
"s c #FFEFDD",
/* pixels */
"                                        3         ",
"                                        33        ",
"                                       333        ",
"                     ****              333        ",
"                    **00,X            33r3        ",
"                   **0%%%,X          r3rr33  3    ",
"                   *0%%%%*,X        3rrrrr3  3    ",
"                  **0%y%*y,X        3r55wwr3      ",
"                  **0%%%**,X      33r555wwwr3     ",
"             0    **0%%***,X      33r55wXwwr3     ",
"             00  X**0,***,*0 X     3r5wwXX5r3     ",
"             ,0,,,X**00,,*X*X*     3rr5ww55r3     ",
"             0,00*,0X****X0X**X    33rX5wwrr3     ",
"             *0*,0,,*0X*X0*X*X*     33XX55r3      ",
"            0,*,00*w,,*,0**X**XX     3XXrr3       ",
"     uass   ,,,*0***ww,0**5XX***      XX333       ",
"    uassau  *,*,**w,,*w,05**XXX*      X 33        ",
"    uaXuuX   *,*,,*w,,,w5**5 *X*X    XX           ",
"    uuuaau   **** ,*ww,,0*5   *X00   XX           ",
"     uaau   *0*0   ,,*w,,5*   X,,,0  XX           ",
"      uau  *,*0,   *,,*w5*     ,,,0  XX           ",
"           ,*0,,    *,,***      ,,,, X            ",
"          0,*,,     w*0**5X     0,,, X            ",
"          ,00,     *,ww55XXX    00,0XX            ",
"       * ,0*,     *,,**XXXXX     ,,,*X            ",
"       ,*0*,     **,*,0X***X      00,*            ",
"       ,,*,     *,,*,*X**,*XX      **,            ",
"        ,,      *,**,0X*,***X       X             ",
"               ***,*,X*,,***XX      X             ",
"              *,**,**X******XX      X             ",
"              **,*,*0*X**,***X     X              ",
"              **,**0*,X*,,,**X     X              ",
"              *,**0*, X*, ,,*X     X              ",
"               **0*0, X*  ,,,X     X              ",
"                *0*,*  X ,,X,X     X              ",
"               **,,*     ,X*X,    X               ",
"               *,,,*    XX**X,    X               ",
"              *,,,**    X**XXX    X               ",
"              *,,**     **XXXX    X               ",
"               *,**      XXXX     X               ",
"               ,**      XXXX     X                ",
"              ,,*       XXX      X                ",
"              ,,*       XXX      X                ",
"              ,**        XX                       ",
"             ,,**        X**                      ",
"             ,**          **                      ",
"             ,**           *                      ",
"             ,**                                  ",
"              *                                   ",
"                                                  "
};
