/* XPM */
static char *a40oa_msoo6[] = {
/* columns rows colors chars-per-pixel */
"50 50 36 1 ",
"  c None",
". c #080810",
"X c #090810",
"o c #090910",
"O c #090811",
"+ c #061925",
"@ c #071925",
"# c #121022",
"$ c #131022",
"% c #121122",
"& c #131122",
"* c #131123",
"= c #212334",
"- c #202235",
"; c #212235",
": c #202335",
"> c #212335",
", c #790B0E",
"< c #790A0F",
"1 c #790B0F",
"2 c #660E10",
"3 c #670E10",
"4 c #670E11",
"5 c #413D5A",
"6 c #413C5B",
"7 c #403D5B",
"8 c #413D5B",
"9 c #9E0A0F",
"0 c #9E0B0F",
"q c #C00D12",
"w c #C10D12",
"e c #C00C13",
"r c #FB0000",
"t c #B56A60",
"y c #E5AF8D",
"u c #FFEFDD",
/* pixels */
"                                       111        ",
"                                       111        ",
"                                       1q11       ",
"                     &&&&             11qq11      ",
"                    &&55>o            11qq11      ",
"                   &&5@@@>o          11qqq11      ",
"                   &5@@@@&>o        11qqqqq11     ",
"                  &&5@r@&r>o       11q3300qq11    ",
"                  &&5@@@&&>o       1q333000q11    ",
"             5    &&5@@&&&>o       1q330o00q11    ",
"             55  o&&5>&&&>&5 o     1q300oo3q1     ",
"             >5>>>o&&55>>&o&o&     1qq30033q1     ",
"             5>55&>5o&&&&o5o&&o    11qo300qq1     ",
"             &5&>5>>&5o&o5&o&o&     11oo33q11     ",
"     tyuu   5>&>55&0>>&>5&&o&&oo     1ooqq11      ",
"    tyuuyt  >>>&5&&&00>5&&3oo&&&      oo111       ",
"    tyotto  &>&>&&0>>&0>53&&ooo&      o           ",
"    tttyyt   &>&>>&0>>>03&&3 &o&o    oo           ",
"     tyyt    &&&& >&00>>5&3   &o55   oo           ",
"      tyt   &5&5   >>&0>>3&   o>>>5  oo           ",
"           &>&5>   &>>&03&     >>>5  oo           ",
"           >&5>>    &>>&&&      >>>> o            ",
"          5>&>>     0&5&&3o     5>>> o            ",
"          >55>     &>0033ooo    55>5oo            ",
"       & >5&>     &>>&&ooooo     >>>&o            ",
"       >&5&>     &&>&>5o&&&o      55>&            ",
"       >>&>     &>>&>&o&&>&oo      &&>            ",
"        >>      &>&&>5o&>&&&o       o             ",
"               &&&>&>o&>>&&&oo      o             ",
"              &>&&>&&o&&&&&&oo      o             ",
"              &&>&>&5&o&&>&&&o     o              ",
"              &&>&&5&>o&>>>&&o     o              ",
"              &>&&5&> o&> >>&o     o              ",
"               &&5&5> o& >>>>o     o              ",
"                &5&>&  o>>o>>o     o              ",
"               &&>>&    >ooo>     o               ",
"               &>>>&   oo&&o>     o               ",
"              &>>>&&   o&&ooo     o               ",
"              &>>&&    &&oooo     o               ",
"               &>&&     oooo      o               ",
"               &>&     oooo      o                ",
"               &>&     ooo       o                ",
"               >>&     ooo       o                ",
"               >&&      oo                        ",
"              &>&&      o&&                       ",
"              >&&        &&                       ",
"              >&&         &                       ",
"              >&&                                 ",
"               &                                  ",
"                                                  "
};
