/* XPM */
static char *abikw_6byrj[] = {
/* columns rows colors chars-per-pixel */
"50 50 41 1 ",
"  c None",
". c #080810",
"X c #090810",
"o c #090910",
"O c #090811",
"+ c #071924",
"@ c #071825",
"# c #071925",
"$ c #121022",
"% c #131022",
"& c #121122",
"* c #131122",
"= c #131123",
"- c #212234",
"; c #212334",
": c #212235",
"> c #202335",
", c #212335",
"< c #790B0E",
"1 c #790A0F",
"2 c #780B0F",
"3 c #790B0F",
"4 c #660E10",
"5 c #670E10",
"6 c #670E11",
"7 c #413D5A",
"8 c #413C5B",
"9 c #403D5B",
"0 c #413D5B",
"q c #9E0A0F",
"w c #9E0B0F",
"e c #C00D12",
"r c #C10D12",
"t c #C00D13",
"y c #FB0000",
"u c #B46A60",
"i c #B56A60",
"p c #E5AF8D",
"a c #FFEFDC",
"s c #FEEFDD",
"d c #FFEFDD",
/* pixels */
"                                      3           ",
"                                      33          ",
"                                     3333         ",
"                                     33e33        ",
"                     ****            33ee3        ",
"                    **00>X           3eee333      ",
"                   **0###>X         33eeee333     ",
"                   *0####*>X        33eeeee333    ",
"                  **0#y#*y>X       33e55wwee33    ",
"                  **0###**>X       3e555wwwe33    ",
"             0    **0##***>X       3e55wXwwe3     ",
"             00  X**0>***>*0 X     3e5wwXX5e3     ",
"             >0>>>X**00>>*X*X*     3ee5ww55e3     ",
"             0>00*>0X****X0X**X    3eeX5wwe3      ",
"             *0*>0>>*0X*X0*X*X*    33eXX55e3      ",
"            0>*>00*w>>*>0**X**XX    33XXee3       ",
"            >>>*0***ww>0**5XX***     3XX33        ",
"            *>*>**w>>*w>05**XXX*      X           ",
"     ipss    *>*>>*w>>>w5**5 *X*X    XX           ",
"    ipsspi   >*** >*ww>>0*5   *X00   XX           ",
"    ipXiiX   *>*   >>*w>>5*   X>>>0  XX           ",
"    iiippi  *0*0   *>>*w5*     >>>0  XX           ",
"     ippi  *>*0>    *>>***      >>>> X            ",
"      ipi  >*0>     w*0**5X     0>>> X            ",
"          0>*>     *>ww55XXX    00>0XX            ",
"          >00>    *>>**XXXXX     >>>*X            ",
"       * >0*>    **>*>0X***X      00>*            ",
"       >*0*>    *>>*>*X**>*XX      **>            ",
"       >>*>     *>**>0X*>***X       X             ",
"        >>     ***>*>X*>>***XX      X             ",
"              *>**>**X******XX      X             ",
"              **>*>*0*X**>***X     X              ",
"              **>**0*>X*>>>**X     X              ",
"              *>**0*> X*> >>*X     X              ",
"               **0*0> X*  >>>X     X              ",
"                *0*>*  X >>X>X     X              ",
"               **>>*     >X*X>    X               ",
"               *>>>*    XX**X>    X               ",
"              *>>>**    X**XXX    X               ",
"              *>>**     **XXXX    X               ",
"               *>**      XXXX     X               ",
"               >**      XXXX     X                ",
"              >>*       XXX      X                ",
"              >>*       XXX      X                ",
"              >**        XX                       ",
"             >>**        X**                      ",
"             >**          **                      ",
"             >**           *                      ",
"             >**                                  ",
"              *                                   "
};
