/* XPM */
static char *ayy6o_h9sa3[] = {
/* columns rows colors chars-per-pixel */
"50 50 37 1 ",
"  c None",
". c #080810",
"X c #090810",
"o c #090910",
"O c #090811",
"+ c #071924",
"@ c #071925",
"# c #131022",
"$ c #121122",
"% c #131122",
"& c #131023",
"* c #131123",
"= c #212334",
"- c #212235",
"; c #202335",
": c #212335",
"> c #790A0F",
", c #780B0F",
"< c #790B0F",
"1 c #660E10",
"2 c #670E10",
"3 c #670F10",
"4 c #670E11",
"5 c #413D5A",
"6 c #403D5B",
"7 c #413D5B",
"8 c #9E0A0E",
"9 c #9E0B0E",
"0 c #9E0B0F",
"q c #9F0B0F",
"w c #C00D12",
"e c #FB0000",
"r c #B56A60",
"t c #B56B60",
"y c #E5AF8C",
"u c #E5AF8D",
"i c #FFEFDD",
/* pixels */
"                                        < <       ",
"                                       <<<<       ",
"                      %%%%            <<<w<<      ",
"                     %%77:X          <w<ww<<  <   ",
"                    %%7@@@:X         <wwwww<< <   ",
"                    %7@@@@%:X       <<wwwwww<     ",
"                   %%7@e@%e:X       <<w2200w<<    ",
"                   %%7@@@%%:X       <w222000w<    ",
"              7    %%7@@%%%:X       <w220X00w<    ",
"              77  X%%7:%%%:%7 X     <w200XX2w<    ",
"              :7:::X%%77::%X%X%     <ww20022w<    ",
"              7:77%:7X%%%%X7X%%X    <<wX200ww<    ",
"              %7%:7::%7X%X7%X%X%     <<XX22w<     ",
"      ruii   7:%:77%0::%:7%%X%%XX     <XXww<<     ",
"     ruiiur  :::%7%%%00:7%%2XX%%%      XX<<<      ",
"     ruXrrX  %:%:%%0::%0:72%%XXX%      X          ",
"     rrruur   %:%::%0:::02%%2 %X%X    XX          ",
"      ruur    %%%% :%00::7%2   %X77   XX          ",
"       rur   %7%7   ::%0::2%   X:::7  XX          ",
"            %:%7:   %::%02%     :::7  XX          ",
"            :%7::    %::%%%      :::: X           ",
"           7:%::     0%7%%2X     7::: X           ",
"           :77:     %:0022XXX    77:7XX           ",
"        % :7%:     %::%%XXXXX     :::%X           ",
"        :%7%:     %%:%:7X%%%X      77:%           ",
"        ::%:     %::%:%X%%:%XX      %%:           ",
"         ::      %:%%:7X%:%%%X       X            ",
"                %%%:%:X%::%%%XX      X            ",
"               %:%%:%%X%%%%%%XX      X            ",
"               %%:%:%7%X%%:%%%X     X             ",
"               %%:%%7%:X%:::%%X     X             ",
"               %:%%7%: X%: ::%X     X             ",
"                %%7%7: X%  :::X     X             ",
"                 %7%:%  X :X::X     X             ",
"                %%::%    :XXX:     X              ",
"                %:::%   XX%%X:     X              ",
"               %:::%%   X%%XXX     X              ",
"               %::%%    %%XXXX     X              ",
"                %:%%     XXXX      X              ",
"                %:%     XXXX      X               ",
"                %:%     XXX       X               ",
"                ::%     XXX       X               ",
"                :%%      XX                       ",
"               %:%%      X%%                      ",
"               :%%        %%                      ",
"               :%%         %                      ",
"               :%%                                ",
"                %                                 ",
"                                                  ",
"                                                  "
};
