/* XPM */
static char *Necromancer_creativekind_Sheet1675525123[] = {
/* columns rows colors chars-per-pixel */
"50 50 213 2 ",
"   c None",
".  c #050508",
"X  c #050509",
"o  c #06060B",
"O  c #06040C",
"+  c #07050C",
"@  c #06060C",
"#  c #07070E",
"$  c #07070F",
"%  c #08060C",
"&  c #08060D",
"*  c #08070E",
"=  c #08070F",
"-  c #09080F",
";  c #1D0608",
":  c #090810",
">  c #090811",
",  c #0A0911",
"<  c #0A0A11",
"1  c #0A0912",
"2  c #0B0B13",
"3  c #0A0A14",
"4  c #0B0A14",
"5  c #0B0B14",
"6  c #0A0A15",
"7  c #0C0A15",
"8  c #0C0B15",
"9  c #0C0C14",
"0  c #0D0C17",
"q  c #0D0B18",
"w  c #0D0C18",
"e  c #0D0D18",
"r  c #0E0C19",
"t  c #0E0D19",
"y  c #0E0D1A",
"u  c #0F0D1A",
"i  c #0F0F1A",
"p  c #0F0E1B",
"a  c #0F0E1C",
"s  c #120910",
"d  c #100E1C",
"f  c #100F1C",
"g  c #100E1D",
"h  c #110F1D",
"j  c #110E1E",
"k  c #110F1E",
"l  c #110E1F",
"z  c #110F1F",
"x  c #12101C",
"c  c #13131E",
"v  c #13141E",
"b  c #13151F",
"n  c #14141E",
"m  c #3B0907",
"M  c #3C0608",
"N  c #3F0A0A",
"B  c #300910",
"V  c #370B11",
"C  c #28101F",
"Z  c #30101E",
"A  c #0C1624",
"S  c #071925",
"D  c #121020",
"F  c #131020",
"G  c #121021",
"H  c #131221",
"J  c #131022",
"K  c #121122",
"L  c #131122",
"P  c #131123",
"I  c #141223",
"U  c #141521",
"Y  c #141224",
"T  c #141324",
"R  c #141325",
"E  c #151325",
"W  c #151425",
"Q  c #161424",
"!  c #161425",
"~  c #161624",
"^  c #161426",
"/  c #171426",
"(  c #161527",
")  c #171627",
"_  c #1C1121",
"`  c #1E1120",
"'  c #181724",
"]  c #171927",
"[  c #181925",
"{  c #181A27",
"}  c #181629",
"|  c #121D2B",
" . c #181829",
".. c #1B1928",
"X. c #19182A",
"o. c #19192A",
"O. c #1A182B",
"+. c #1A192B",
"@. c #1A1A2B",
"#. c #1A1C29",
"$. c #1B192C",
"%. c #1A1A2C",
"&. c #1B1B2D",
"*. c #1B1C2D",
"=. c #1B1D2D",
"-. c #1C1C2E",
";. c #1C1C2F",
":. c #1C1D2F",
">. c #1D1D2F",
",. c #1D1E2F",
"<. c #1F1C30",
"1. c #1D1E30",
"2. c #1F1E31",
"3. c #1E1F31",
"4. c #231020",
"5. c #301524",
"6. c #341928",
"7. c #221F31",
"8. c #162233",
"9. c #1E2031",
"0. c #1F2132",
"q. c #1F2133",
"w. c #1F273B",
"e. c #202133",
"r. c #272233",
"t. c #202234",
"y. c #202334",
"u. c #212335",
"i. c #242137",
"p. c #222436",
"a. c #232537",
"s. c #2D2131",
"d. c #27243B",
"f. c #26273B",
"g. c #2A273E",
"h. c #28293D",
"j. c #500608",
"k. c #51070A",
"l. c #560709",
"z. c #590509",
"x. c #56080D",
"c. c #5A080B",
"v. c #5B0C0F",
"b. c #420F18",
"n. c #590D10",
"m. c #590F13",
"M. c #41141D",
"N. c #610D0F",
"B. c #6A0A0D",
"V. c #790B0F",
"C. c #640E10",
"Z. c #670E10",
"A. c #6B0D16",
"S. c #730D10",
"D. c #770D10",
"F. c #760C12",
"G. c #780D10",
"H. c #6D141D",
"J. c #6E141F",
"K. c #76131B",
"L. c #4F1A27",
"P. c #471B29",
"I. c #471C28",
"U. c #491B29",
"Y. c #531926",
"T. c #5C1823",
"R. c #58202D",
"E. c #513F3A",
"W. c #693E39",
"Q. c #6B413E",
"!. c #2A2A40",
"~. c #2C2B42",
"^. c #2D2B42",
"/. c #2D2C43",
"(. c #2F2C43",
"). c #312D44",
"_. c #302D45",
"`. c #312D46",
"'. c #302F46",
"]. c #322E49",
"[. c #313047",
"{. c #333048",
"}. c #323049",
"|. c #323149",
" X c #343048",
".X c #34314B",
"XX c #38344E",
"oX c #393551",
"OX c #3B3955",
"+X c #3C3855",
"@X c #3C3955",
"#X c #3D3955",
"$X c #3E3A57",
"%X c #3F3B59",
"&X c #3F3C5A",
"*X c #403C5A",
"=X c #413D5B",
"-X c #8C0C0F",
";X c #8D0C0F",
":X c #930B0F",
">X c #990B0F",
",X c #9C0B0F",
"<X c #9E0B0F",
"1X c #905A4F",
"2X c #9B5C52",
"3X c #B97064",
"4X c #BB7164",
"5X c #BA7368",
"6X c #A98D7E",
"7X c #CA8C76",
"8X c #E5AF8D",
"9X c #E4B49B",
"0X c #FFEFDD",
/* pixels */
"                                                                                                    ",
"                                                                                                    ",
"                                                                                                    ",
"                                                                                                    ",
"                                                                                                    ",
"                                                                                                    ",
"                                                                                                    ",
"                                                                                                    ",
"                                                                                                    ",
"                                                                                                    ",
"                                                                      k.                            ",
"                                              ! O.9                   x.V.                          ",
"                                          q ! w.8.| +                 c.                            ",
"                                          z OXS S A t.&                                             ",
"                                          L &XM.S Z t.-         B.M     j.                          ",
"                                 X      L L OXS L L t.&           v.Z.-X,Xz.    V.                  ",
"                                }.*X  ' i L }.7.) &.z (.          N.F.B - l.                        ",
"                                [.f.%X^ t.oX5 ! ^ a oX5 1           S.:Xv.m                         ",
"                                z +X&.=XP.s.] O.L 7.^ a z       V.  s -X>X                          ",
"                                p.&.`.i._ J.J.'.) 6.& i z i         1 ;                             ",
"                                3.L O.L K.q.C I.=Xb.L 1 & G         &         G.                    ",
"                      9X0X6X    ! :.O.U 5.Y.L.T.T.n N   9 z '     1 1                               ",
"                    4XE.5XQ.    f t.      r.C I.f.M.    # e.t.+X  & &                               ",
"                    2X4X8X7X     X&.      q.q.A.m.7       =.p.+X  1 +                               ",
"                      1X8XW.  :.}.h.      F.O.:.J V         /.t.] $                                 ",
"                            +X9.q.        e.,XV.N.1 1       *Xp.(.:                                 ",
"                        1   }.h.x     1 ! &.&.x f i :         }.~.i                                 ",
"                        p.f.^ O.    1 p.:.q.z z F $.: &         L t.                                ",
"                        ] 3.]       9 3.^ q.`.L t.L 5 -                                             ",
"                                    O.q.R ^ 1 L ! L L &                                             ",
"                                    L L !.)   a R &.^ z         .                                   ",
"                                    =.L (.t.  x t.v t.&.        +                                   ",
"                                    &.L L q.  z     e.t.        +                                   ",
"                                    5 L ~.&.        : i t.                                          ",
"                                    9 q.t.R         G z 1     &                                     ",
"                                    =.t.3.a       q z : &     1                                     ",
"                                    i p.L         f 1 &       1                                     ",
"                                    x L 9           - &     .                                       ",
"                                    t.G           z 1       .                                       ",
"                                    O.^             L                                               ",
"                                    =.3.            L z                                             ",
"                                    v L               x                                             ",
"                                      z                                                             ",
"                                                                                                    ",
"                                                                                                    ",
"                                                                                                    ",
"                                                                                                    ",
"                                                                                                    ",
"                                                                                                    ",
"                                                                                                    "
};
