/* XPM */
static char *Necromancer_creativekind_Sheet__1_1675525122[] = {
/* columns rows colors chars-per-pixel */
"51 50 217 2 ",
"   c None",
".  c #050509",
"X  c #060509",
"o  c #06060A",
"O  c #06060B",
"+  c #06040C",
"@  c #07050C",
"#  c #06060C",
"$  c #07070C",
"%  c #08060D",
"&  c #08070D",
"*  c #09080F",
"=  c #080810",
"-  c #090810",
";  c #090811",
":  c #0A0911",
">  c #090913",
",  c #0A0912",
"<  c #0B0913",
"1  c #0B0A13",
"2  c #0B0B13",
"3  c #0A0A14",
"4  c #0C0A14",
"5  c #0C0A15",
"6  c #0C0B15",
"7  c #0C0B16",
"8  c #0D0B17",
"9  c #0D0C16",
"0  c #0D0C17",
"q  c #0D0C18",
"w  c #0D0D18",
"e  c #0E0D19",
"r  c #0F0C1A",
"t  c #0F0D1A",
"y  c #0F0F1A",
"u  c #0F0E1B",
"i  c #0F0E1D",
"p  c #100D1A",
"a  c #100E1D",
"s  c #100F1D",
"d  c #110F1E",
"f  c #110F1F",
"g  c #10111B",
"h  c #11101D",
"j  c #13131D",
"k  c #11101F",
"l  c #13131E",
"z  c #13131F",
"x  c #13151F",
"c  c #14141E",
"v  c #3C0408",
"b  c #280A10",
"n  c #24101E",
"m  c #26101E",
"M  c #32101B",
"N  c #071925",
"B  c #081825",
"V  c #081926",
"C  c #091A27",
"Z  c #121020",
"A  c #121021",
"S  c #121121",
"D  c #131121",
"F  c #131022",
"G  c #121122",
"H  c #131122",
"J  c #131123",
"K  c #111323",
"L  c #161121",
"P  c #141223",
"I  c #131420",
"U  c #151523",
"Y  c #161622",
"T  c #141224",
"R  c #141324",
"E  c #151324",
"W  c #171724",
"Q  c #171725",
"!  c #161426",
"~  c #161526",
"^  c #161527",
"/  c #171627",
"(  c #191020",
")  c #1D1120",
"_  c #1C1122",
"`  c #181527",
"'  c #171826",
"]  c #181926",
"[  c #171728",
"{  c #1A172A",
"}  c #181829",
"|  c #191A28",
" . c #19192A",
".. c #19192B",
"X. c #1A1A2B",
"o. c #1A1A2C",
"O. c #1B1B2C",
"+. c #1D1A2E",
"@. c #1B1C2D",
"#. c #1C1C2E",
"$. c #1C1D2E",
"%. c #1D1E2F",
"&. c #1D1F2F",
"*. c #1E1E2E",
"=. c #1F1C30",
"-. c #1D1E30",
";. c #1F1F30",
":. c #1E1E31",
">. c #1E1F31",
",. c #201829",
"<. c #331522",
"1. c #201E33",
"2. c #211E33",
"3. c #172333",
"4. c #1E2031",
"5. c #1E2032",
"6. c #1F2032",
"7. c #1F2132",
"8. c #372B2A",
"9. c #202132",
"0. c #202133",
"q. c #212233",
"w. c #202234",
"e. c #212234",
"r. c #212235",
"t. c #202335",
"y. c #212335",
"u. c #222335",
"i. c #232036",
"p. c #232136",
"a. c #242134",
"s. c #242137",
"d. c #222436",
"f. c #232436",
"g. c #222437",
"h. c #262339",
"j. c #242539",
"k. c #262439",
"l. c #242639",
"z. c #27243B",
"x. c #24263A",
"c. c #27273B",
"v. c #28283D",
"b. c #29293E",
"n. c #2B2A3F",
"m. c #480A0F",
"M. c #58080B",
"N. c #5A080B",
"B. c #5C080C",
"V. c #460F17",
"C. c #570F13",
"Z. c #570E19",
"A. c #47141D",
"S. c #67090D",
"D. c #6C0A0D",
"F. c #700A0E",
"G. c #760B0F",
"H. c #711119",
"J. c #70141D",
"K. c #451623",
"L. c #5A1723",
"P. c #511A26",
"I. c #2A2A40",
"U. c #2A2B40",
"Y. c #2D2A42",
"T. c #2E2D44",
"R. c #2F2E46",
"E. c #322F49",
"W. c #323149",
"Q. c #33304A",
"!. c #33314A",
"~. c #33324A",
"^. c #33324B",
"/. c #34324B",
"(. c #34314C",
"). c #38344F",
"_. c #383650",
"`. c #393651",
"'. c #3A3653",
"]. c #3B3753",
"[. c #3B3955",
"{. c #3D3955",
"}. c #3D3956",
"|. c #3E3B58",
" X c #403C5A",
".X c #413D5B",
"XX c #724441",
"oX c #930C0F",
"OX c #9D0B0F",
"+X c #8F0C11",
"@X c #8B0F15",
"#X c #930C11",
"$X c #881721",
"%X c #804B44",
"&X c #94574F",
"*X c #9E5D55",
"=X c #816856",
"-X c #A46058",
";X c #AD655C",
":X c #AD665C",
">X c #B46A60",
",X c #B56A61",
"<X c #B86E63",
"1X c #B17666",
"2X c #B87265",
"3X c #B87566",
"4X c #BD7567",
"5X c #B88D74",
"6X c #AC9F96",
"7X c #D69C84",
"8X c #DFA788",
"9X c #E2AB8A",
"0X c #E3AD8B",
"qX c #E5AF8D",
"wX c #EABC9D",
"eX c #F3D3B9",
"rX c #FFEFDD",
/* pixels */
"                                                                                                      ",
"                                                                                                      ",
"                                                                                                      ",
"                                                                                                      ",
"                                                                                                      ",
"                                                                                                      ",
"                                                                                                      ",
"                                                                                                      ",
"                                                d A A                       B.D.                      ",
"                                                { [.x.0                     N.                        ",
"                                              s.3.N N [ g           N.                                ",
"                                            A z.C A K N I           G.                                ",
"                                            A z.N C A A I             %X,XeX=X        v               ",
"                                    .X    0 A c.u.J J 0.Y.-           ,X0X- 5X                        ",
"                                    T.U.v.y.p ` (.E.:.d g T           1XqX8.*X                        ",
"                                    u.+.v.U.@X#.`.5 5 _.T - w       S.  2XqX                          ",
"                                  |.:.7..X2.#Xu.T g.).c p L -       F.m.- ;X                          ",
"                                  } 7.#.u.Z.+.K.J.T.A.M 8 8 p                                         ",
"                        ;XwXrX      / J y.' OXy.u.#Xn J   A 5 -       -                               ",
"                        qX6X7XXX    O.J 5   } H.P.x.<.V.    d /.!.    -                               ",
"                        <X3X0X-X  A W.].    J y._ #Xm         y.l.    *                               ",
"                        &X8X4X  5 0.s.0.      ,.c.A )         f.y.y.  o                               ",
"                                v.J #.      p L.$XC.b -       {.`.(.# o                               ",
"                                /..XW     0 u.O.R = - -         0.y.J o                               ",
"                            3 !.1.      3 O.O.O.u.w } J o         x.X.p                               ",
"                            u.T         T [ A T.< / / J *           %                                 ",
"                            Y ]         / @.J Y J :.T J w -         -                                 ",
"                                      d / @.].3 - J :.J J -       o                                   ",
"                                      d u.R }.J - [ 7.y.} -       o                                   ",
"                                      A 7.=.F g - g     u.]       %                                   ",
"                                        R E.A c   %   0.- u.]     #                                   ",
"                                        A 7.u.3       / d - j                                         ",
"                                      g u.u.T 0     o A w - #                                         ",
"                                      p :.[ A       i g - -                                           ",
"                                        :.A           - -       #                                     ",
"                                      #.7.          i - -       %                                     ",
"                                      u.}             T                                               ",
"                                      d y.            A A                                             ",
"                                      w u.              A                                             ",
"                                                                                                      ",
"                                                                                                      ",
"                                                                                                      ",
"                                                                                                      ",
"                                                                                                      ",
"                                                                                                      ",
"                                                                                                      ",
"                                                                                                      ",
"                                                                                                      ",
"                                                                                                      ",
"                                                                                                      "
};
