/* XPM */
static char *Necromancer_creativekind_Sheet__2_1675525122[] = {
/* columns rows colors chars-per-pixel */
"50 50 225 2 ",
"   c None",
".  c #050407",
"X  c #050509",
"o  c #060408",
"O  c #060409",
"+  c #060509",
"@  c #060608",
"#  c #06040A",
"$  c #06050A",
"%  c #06060B",
"&  c #06040C",
"*  c #06060C",
"=  c #07070C",
"-  c #08050A",
";  c #08060C",
":  c #08060D",
">  c #08070D",
",  c #08070E",
"<  c #08060F",
"1  c #08070F",
"2  c #09080F",
"3  c #090810",
"4  c #090811",
"5  c #0A0810",
"6  c #0A0911",
"7  c #0B0911",
"8  c #0A0912",
"9  c #0B0913",
"0  c #0B0A13",
"q  c #0B0B13",
"w  c #0B0A14",
"e  c #0C0A14",
"r  c #0C0A15",
"t  c #0C0B16",
"y  c #0D0B17",
"u  c #0D0C17",
"i  c #0E0B1A",
"p  c #0D0C18",
"a  c #0D0C19",
"s  c #0E0C19",
"d  c #0E0D19",
"f  c #0E0E18",
"g  c #0F0E19",
"h  c #0F0D1A",
"j  c #0F0D1B",
"k  c #0F0E1A",
"l  c #0F0E1B",
"z  c #100910",
"x  c #170910",
"c  c #110C14",
"v  c #100E1C",
"b  c #100F1D",
"n  c #110F1E",
"m  c #11111B",
"M  c #11111C",
"N  c #11111D",
"B  c #11101E",
"V  c #11101F",
"C  c #12141E",
"Z  c #3C0608",
"A  c #200810",
"S  c #21111F",
"D  c #29101F",
"F  c #31101B",
"G  c #120F21",
"H  c #0B1624",
"J  c #0A1724",
"K  c #0B1724",
"L  c #0D1524",
"P  c #071925",
"I  c #121020",
"U  c #121021",
"Y  c #131021",
"T  c #131121",
"R  c #131022",
"E  c #121122",
"W  c #131122",
"Q  c #101323",
"!  c #131223",
"~  c #141022",
"^  c #151322",
"/  c #141223",
"(  c #131621",
")  c #171523",
"_  c #161722",
"`  c #171723",
"'  c #141324",
"]  c #151324",
"[  c #171524",
"{  c #161625",
"}  c #161426",
"|  c #161526",
" . c #161627",
".. c #1C1121",
"X. c #181827",
"o. c #181628",
"O. c #181728",
"+. c #181729",
"@. c #171A29",
"#. c #181828",
"$. c #181928",
"%. c #19182A",
"&. c #19192A",
"*. c #19192B",
"=. c #1A1A2B",
"-. c #1A1C2A",
";. c #1A1A2C",
":. c #1B1A2C",
">. c #1B1B2C",
",. c #1A1A2D",
"<. c #1B1B2D",
"1. c #1C182D",
"2. c #1C192D",
"3. c #1E1B2C",
"4. c #1D1A2E",
"5. c #1D1B2F",
"6. c #1C1D2C",
"7. c #1C1C2E",
"8. c #1C1D2F",
"9. c #1D1D2F",
"0. c #1C1F2E",
"q. c #1D1E2F",
"w. c #1D1F2F",
"e. c #1E1D30",
"r. c #1D1E30",
"t. c #1E1F30",
"y. c #1F1E31",
"u. c #1E1F31",
"i. c #2D1620",
"p. c #371C2B",
"a. c #3B1E2D",
"s. c #221F31",
"d. c #1D2031",
"f. c #1E2031",
"g. c #1F2031",
"h. c #1F2131",
"j. c #1F2133",
"k. c #1F2234",
"l. c #1B2436",
"z. c #3F2729",
"x. c #202133",
"c. c #202233",
"v. c #232332",
"b. c #202234",
"n. c #212334",
"m. c #212235",
"M. c #212335",
"N. c #222436",
"B. c #252238",
"V. c #29263D",
"C. c #20293D",
"Z. c #27283D",
"A. c #28293D",
"S. c #29293E",
"D. c #2D283D",
"F. c #2D2A3F",
"G. c #35283F",
"H. c #460F16",
"J. c #5A0E13",
"K. c #5E0E12",
"L. c #4A111D",
"P. c #65080C",
"I. c #6D0A0E",
"U. c #760B0F",
"Y. c #69131D",
"T. c #70141D",
"R. c #4D1B27",
"E. c #511A26",
"W. c #581824",
"Q. c #4C2E2F",
"!. c #4E3031",
"~. c #673C35",
"^. c #6E413A",
"/. c #72433E",
"(. c #272B40",
"). c #2A2A40",
"_. c #2D2A42",
"`. c #2F2E45",
"'. c #322F49",
"]. c #333049",
"[. c #33314A",
"{. c #33324A",
"}. c #36334C",
"|. c #393551",
" X c #383650",
".X c #393651",
"XX c #393652",
"oX c #393850",
"OX c #3B3854",
"+X c #3C3855",
"@X c #3C3955",
"#X c #3D3A56",
"$X c #3E3B58",
"%X c #403C5A",
"&X c #413D5A",
"*X c #413D5B",
"=X c #775C4F",
"-X c #9E0B0F",
";X c #870C12",
":X c #870F15",
">X c #950D12",
",X c #845148",
"<X c #A4504A",
"1X c #80624E",
"2X c #926F59",
"3X c #81736B",
"4X c #B56A60",
"5X c #B76D62",
"6X c #AF7664",
"7X c #B87365",
"8X c #BA7265",
"9X c #BC7467",
"0X c #C37E6D",
"qX c #C68270",
"wX c #C08470",
"eX c #CA8C76",
"rX c #CA9A7C",
"tX c #D69A7F",
"yX c #AFA598",
"uX c #BFB3A6",
"iX c #E5AE8D",
"pX c #E5AF8D",
"aX c #F7DBC4",
"sX c #FEEDDB",
"dX c #FFEFDD",
/* pixels */
"                                                                                                    ",
"                                                                                                    ",
"                                                                                                    ",
"                                                                                                    ",
"                                                                                                    ",
"                                                                                                    ",
"                                                                                                    ",
"                                                                                                    ",
"                                                                                                    ",
"                                              G q #XD.q                         I.                  ",
"                                            d }.v.P P f.q             U.                            ",
"                                                l.Q J J v.            <X                            ",
"                                  F.        v ^ C.P L Q u.q             ~.sXyXrX                    ",
"                                    *X    1 B ~ Z.L ~ =.@.  d         4X0X=X3X          Z           ",
"                                        M.M.d Q _.*XM.] q             5XpXq z.                      ",
"                                      `..Xq.a. X^ b ~ [ '.d r           wXpX8X                      ",
"                                      :.#X|.;XM.=.q.F.q.q n 9 O     P.  c 9X,X                      ",
"                                    N.:.+XG ~ >XW.#X~ J.q v G           q                           ",
"                      /.  2XuX      =.=.:.s.Y.k.a.Y.R.~ H.r q i       + .                           ",
"                        1XdXaX8X    v.Q Q     -XW.M.'.K.    G s.*X    1 .                           ",
"                      ^.6XQ.qX!.    B.u.    =.v.L.E.F r     - M.M.oX  q -                           ",
"                            tX    q.} [.      ] N...]           M.N.  2                             ",
"                        eX         .#XB       :XG.S F 2           M.  1                             ",
"                                )..XM.      q.M.D A x q         F.M.B q                             ",
"                            d f.OXq.      Q u.~ [.q Q ~ 1 &       *XZ.Q                             ",
"                          m B V.=.      ~ M.~ M.^ Q :.~ 1 - +       u                               ",
"                              M.        ~   o.M.v M.q.~ B & q       1                               ",
"                                      o.u.  :.Q     ~ Q Q   &       +                               ",
"                                      =.~   .Xu.+ ~ v.f.q.q           1                             ",
"                                      =.  :.:.v.+ Q ^ q.v.v                                         ",
"                                        =.}   M.  u   ( + w.^       1                               ",
"                                    Q   ~ }   Q       u.1 + N.    1                                 ",
"                                    u @.  N.  ~       r ~ 9 q     +                                 ",
"                                          f.Q         ~ 5 1       &                                 ",
"                                          -.n         q 1 O       +                                 ",
"                                        N.u           q q                                           ",
"                                        v.v           Q 1         1                                 ",
"                                        :.X.                                                        ",
"                                          d             ~                                           ",
"                                      }                   Q                                         ",
"                                        Q                                                           ",
"                                                                                                    ",
"                                                                                                    ",
"                                                                                                    ",
"                                                                                                    ",
"                                                                                                    ",
"                                                                                                    ",
"                                                                                                    ",
"                                                                                                    ",
"                                                                                                    "
};
