/* XPM */
static char *Necromancer_creativekind_Sheet__3_1675525122[] = {
/* columns rows colors chars-per-pixel */
"50 50 210 2 ",
"   c None",
".  c #040408",
"X  c #060409",
"o  c #05050A",
"O  c #06040C",
"+  c #06060C",
"@  c #07070D",
"#  c #07060E",
"$  c #08060C",
"%  c #08070E",
"&  c #08070F",
"*  c #08080F",
"=  c #09080F",
"-  c #0A080F",
";  c #1B080F",
":  c #030F17",
">  c #080810",
",  c #090810",
"<  c #090910",
"1  c #090811",
"2  c #090911",
"3  c #0A0811",
"4  c #0A0911",
"5  c #0A0812",
"6  c #0A0912",
"7  c #0B0912",
"8  c #0A0A12",
"9  c #0B0A13",
"0  c #0B0B13",
"q  c #0F0810",
"w  c #0B0A14",
"e  c #0A0A15",
"r  c #0B0A15",
"t  c #0C0A14",
"y  c #0C0B15",
"u  c #0D0B15",
"i  c #0C0A16",
"p  c #0D0C17",
"a  c #0E0D18",
"s  c #0E0C19",
"d  c #0F0C19",
"f  c #0F0E19",
"g  c #0E0D1A",
"h  c #0F0D1A",
"j  c #0E0D1B",
"k  c #0F0D1B",
"l  c #0F0E1A",
"z  c #0F0F1A",
"x  c #0F0E1B",
"c  c #0F0E1C",
"v  c #110A13",
"b  c #100E1C",
"n  c #100F1D",
"m  c #110F1E",
"M  c #10101C",
"N  c #11101F",
"B  c #12101F",
"V  c #12121E",
"C  c #13131E",
"Z  c #13141F",
"A  c #14141E",
"S  c #3E0B10",
"D  c #251A1A",
"F  c #0A1724",
"G  c #071823",
"H  c #071925",
"J  c #081825",
"K  c #131121",
"L  c #131320",
"P  c #121221",
"I  c #131022",
"U  c #131122",
"Y  c #131223",
"T  c #151221",
"R  c #141521",
"E  c #151621",
"W  c #151523",
"Q  c #161422",
"!  c #151723",
"~  c #161722",
"^  c #171723",
"/  c #141324",
"(  c #151324",
")  c #161725",
"_  c #171725",
"`  c #161526",
"'  c #171626",
"]  c #171627",
"[  c #171727",
"{  c #1E1120",
"}  c #161823",
"|  c #171825",
" . c #181925",
".. c #191C27",
"X. c #171628",
"o. c #171728",
"O. c #191729",
"+. c #181829",
"@. c #191829",
"#. c #191929",
"$. c #191A28",
"%. c #191B28",
"&. c #191B29",
"*. c #19192A",
"=. c #1A1B2A",
"-. c #1A1A2B",
";. c #1A1C29",
":. c #1B1C2A",
">. c #1A1A2C",
",. c #1B1B2C",
"<. c #1B1B2D",
"1. c #1C1A2E",
"2. c #1B1D2C",
"3. c #1B1C2D",
"4. c #1C1D2D",
"5. c #1C1D2E",
"6. c #1D1D2F",
"7. c #1D1E2E",
"8. c #1C1E2F",
"9. c #1D1E2F",
"0. c #1C1F2F",
"q. c #1E1D30",
"w. c #1D1E30",
"e. c #1E1F30",
"r. c #1E1F31",
"t. c #221020",
"y. c #231020",
"u. c #2A1F2E",
"i. c #1F2132",
"p. c #202233",
"a. c #202234",
"s. c #212234",
"d. c #202334",
"f. c #202335",
"g. c #212335",
"h. c #222435",
"j. c #222436",
"k. c #282233",
"l. c #292537",
"z. c #252539",
"x. c #27243B",
"c. c #2A273D",
"v. c #2A273E",
"b. c #2A273F",
"n. c #2B2A3F",
"m. c #2C293E",
"M. c #450509",
"N. c #570C0E",
"B. c #430F1A",
"V. c #61060A",
"C. c #67090D",
"Z. c #6F0A0E",
"A. c #760B0F",
"S. c #770E12",
"D. c #780D10",
"F. c #74121A",
"G. c #75121B",
"H. c #77131B",
"J. c #663D35",
"K. c #693D36",
"L. c #6E413A",
"P. c #75443E",
"I. c #2C2C42",
"U. c #2D2C43",
"Y. c #2E2D42",
"T. c #2D2C44",
"R. c #2F2E45",
"E. c #312E47",
"W. c #322F49",
"Q. c #313048",
"!. c #333149",
"~. c #33324A",
"^. c #35314C",
"/. c #36334C",
"(. c #38354E",
"). c #393551",
"_. c #393650",
"`. c #3A3752",
"'. c #3B3853",
"]. c #3C3854",
"[. c #3D3856",
"{. c #3E3956",
"}. c #3F3B58",
"|. c #413D5A",
" X c #413D5B",
".X c #7C4942",
"XX c #795346",
"oX c #8B0E14",
"OX c #940E13",
"+X c #9B0B10",
"@X c #841017",
"#X c #804B44",
"$X c #A25F56",
"%X c #8D6D58",
"&X c #B1685E",
"*X c #B56A60",
"=X c #B86E63",
"-X c #BC7467",
";X c #B58A6F",
":X c #AD8379",
">X c #C78371",
",X c #C98973",
"<X c #C19477",
"1X c #CD9D7F",
"2X c #D6997F",
"3X c #A3988D",
"4X c #B2A699",
"5X c #D89D81",
"6X c #E2AD8B",
"7X c #E5AF8D",
/* pixels */
"                                                                                                    ",
"                                                                                                    ",
"                                                                                                    ",
"                                                                                                    ",
"                                                                                                    ",
"                                                                                                    ",
"                                                                                                    ",
"                                                                                                    ",
"                                                                                                    ",
"                                            i i   r                                                 ",
"                                          p m |.    A                                               ",
"                                        i   l.:     z V                         M.                  ",
"                                        V     H H H   f.#             C.                            ",
"                              /.            ].J F U   f.&               3X                          ",
"                              $.(.        U   H   U   `   z         #X=X                            ",
"                                  :.p.0 2 p _.e.p U V 3 z         .X$X1X                A.          ",
"                                2   !.z.f.    b.q.1.T m.z s         ,X6X  X XX                      ",
"                                  :.|.z.+XH.( _.m -   2 I r -       - $X  &X                        ",
"                              e.  U /.y.    ..` 3.Y.  r 3 V         q - K.5X                        ",
"                  P.  ;X3X        X.e.v   f.V @X!.N.      2 U       #                               ",
"                    <X  4X        e.      F.k.u.S.T         i         &                 Z.          ",
"                    L.%X:X>XD     3.        B.V.f.  ;     | I.I.      -                             ",
"                      *X5X7XJ.  1.  ].  h.` 7.t.D.        :.f.!.    2                               ",
"                          *X  O.>.  W   r W 7.I.    {       T.7.f.                                  ",
"                      -X      f.c         F.oXOX    S 2 #   |.T.}.                                  ",
"                              _.        T f.V O.    2         h.    3                               ",
"                        ` z c.e.      $.e.  b T T e.z   -       z m.$.p                             ",
"                          h.$.        >./ X.[.i e.I     &             i.                            ",
"                                        $.( 3   ` U z   X                                           ",
"                                  e.i.  f.W.  2 U f.I T                                             ",
"                                    /   z E.  2 e...W ` &                                           ",
"                                  7.  $.m ]   2       f...                                          ",
"                                  z   U '.          ` - p.                                          ",
"                                  W 7.U W           M y 2                                           ",
"                                  z   A h.U       & U 2 2         #   &                             ",
"                                      Z U z       U 2                                               ",
"                                        U           &   #         #                                 ",
"                                    3.$.            2 2         #                                   ",
"                                  | $.r         z   z             X                                 ",
"                                  :.                            -                                   ",
"                                                                                                    ",
"                                  i.                    z                                           ",
"                                  W                                                                 ",
"                                                                                                    ",
"                                                                                                    ",
"                                                                                                    ",
"                                                                                                    ",
"                                                                                                    ",
"                                                                                                    ",
"                                                                                                    "
};
