/* XPM */
static char *Necromancer_creativekind_Sheet__4_1675525122[] = {
/* columns rows colors chars-per-pixel */
"50 50 159 2 ",
"   c None",
".  c #050509",
"X  c #060408",
"o  c #06040A",
"O  c #06050A",
"+  c #07070A",
"@  c #05050C",
"#  c #06040C",
"$  c #06060C",
"%  c #07060E",
"&  c #07070E",
"*  c #08070E",
"=  c #08070F",
"-  c #0B070E",
";  c #08080E",
":  c #08080F",
">  c #09080F",
",  c #070E14",
"<  c #090810",
"1  c #090811",
"2  c #0A0911",
"3  c #0A0A11",
"4  c #090913",
"5  c #0B0913",
"6  c #0F0810",
"7  c #0C0B13",
"8  c #0C0C13",
"9  c #0A0A14",
"0  c #0B0B14",
"q  c #0A0A15",
"w  c #0B0A15",
"e  c #0C0B15",
"r  c #0D0A16",
"t  c #0D0B17",
"y  c #0E0B17",
"u  c #0C0C16",
"i  c #0D0C17",
"p  c #0E0B19",
"a  c #0D0C18",
"s  c #0F0D1A",
"d  c #0F0D1B",
"f  c #0F0E1A",
"g  c #0F0E1B",
"h  c #0F0F1B",
"j  c #0F0E1C",
"k  c #120F15",
"l  c #100E1C",
"z  c #110F1E",
"x  c #110F1F",
"c  c #06141D",
"v  c #081019",
"b  c #10101A",
"n  c #11111F",
"m  c #12101F",
"M  c #13131E",
"N  c #12141D",
"B  c #12141E",
"V  c #13151F",
"C  c #14141E",
"Z  c #340808",
"A  c #230A10",
"S  c #2D0E18",
"D  c #340F19",
"F  c #25101E",
"G  c #2A101D",
"H  c #33101B",
"J  c #3C1119",
"K  c #3D121C",
"L  c #081722",
"P  c #071822",
"I  c #091825",
"U  c #121020",
"Y  c #121021",
"T  c #121121",
"R  c #131121",
"E  c #131221",
"W  c #121022",
"Q  c #131122",
"!  c #101323",
"~  c #141223",
"^  c #141420",
"/  c #141421",
"(  c #141521",
")  c #151523",
"_  c #171523",
"`  c #161622",
"'  c #161722",
"]  c #171723",
"[  c #151324",
"{  c #151424",
"}  c #171724",
"|  c #161625",
" . c #171725",
".. c #161526",
"X. c #171627",
"o. c #181121",
"O. c #1B1525",
"+. c #171824",
"@. c #171925",
"#. c #171927",
"$. c #181A27",
"%. c #181728",
"&. c #181729",
"*. c #161F2E",
"=. c #191829",
"-. c #1A1829",
";. c #181A28",
":. c #191A28",
">. c #191A29",
",. c #1A1B29",
"<. c #19192A",
"1. c #19192B",
"2. c #1A1B2A",
"3. c #1B1C2A",
"4. c #1A1A2C",
"5. c #1A1B2C",
"6. c #1B1B2C",
"7. c #1B1B2D",
"8. c #1C1E2D",
"9. c #1D1D2F",
"0. c #1C1E2E",
"q. c #1D1E2F",
"w. c #1D1E30",
"e. c #3A1925",
"r. c #3C1B26",
"t. c #331E2B",
"y. c #1E2031",
"u. c #1F2031",
"i. c #1F2132",
"p. c #1F2133",
"a. c #2C202F",
"s. c #202133",
"d. c #262132",
"f. c #202234",
"g. c #212334",
"h. c #212335",
"j. c #222335",
"k. c #440A0C",
"l. c #5E0E11",
"z. c #601014",
"x. c #5A3630",
"c. c #643A35",
"v. c #6A3F3D",
"b. c #764643",
"n. c #7C4942",
"m. c #735848",
"M. c #805049",
"N. c #90554D",
"B. c #A36057",
"V. c #A87762",
"C. c #BF7869",
"Z. c #BC8970",
"A. c #C68370",
"S. c #CA8874",
"D. c #CD9D7E",
"F. c #D2947B",
"G. c #D1967C",
"H. c #DDA888",
"J. c #E3AC8B",
/* pixels */
"                                                                                                    ",
"                                                                                                    ",
"                                                                                                    ",
"                                                                                                    ",
"                                                                                                    ",
"                                                                                                    ",
"                                                                                                    ",
"                                                l                                                   ",
"                                                          l                                         ",
"                                                            / t                                     ",
"                                            l           c P   h.+                                   ",
"                                                  v         , h.=                                   ",
"                                    V         t m *.L !       h.                  D.                ",
"                                    i.          Q *.I   !         l                                 ",
"                                      $.      + Q 6.w.  Q 9.+   t                                   ",
"                                  i.7         h.< 8     h.!  .  l !   n.  S.k                       ",
"                                          h.h.e.Z 2.2.l l   Q     <     x.V.  m.                    ",
"                                    m     i.!       ! h.s.    < ~           ; N.    v.              ",
"                                        h.  O.  t.  2.s.F   +   < Q         < = Z.                  ",
"                                        &.      a.D     G         <         <                       ",
"                              H.J.B.  Q +.  9.  d.j.z.   .l.    l i.  h.      =                     ",
"                            A.M.G.b. .2.w.    i.  K   k.      +           <   ;                     ",
"                                C.  2.  +.    a   7.h.l   !       9.  h.  <                         ",
"                            F.  c.  )         J h.  e.S   H A     h.    )                           ",
"                                    9.      l 9.    C -   6 -       s.                              ",
"                                          l 3.    i 9.t _ Q   <         h.<                         ",
"                              _ 3. .a       l 2.l s.<   &.~   <             &                       ",
"                                2.i.        m _ ! _   h. .    < =             a                     ",
"                                              ) 6.; + q 1.~ d                                       ",
"                                      ! h.      h.m & O.h.w.q -             !                       ",
"                                                  V < ~   $.i.v                                     ",
"                                        ) 3.Q !       =   9.7 j.)                                   ",
"                                        k x Q             w.  < _                                   ",
"                                      ! 2.    ) '       + l l <                                     ",
"                                        t      .h.Q     l !             <                           ",
"                                                Q q     <     <                                     ",
"                                          9.s.  Q           <   +       ;                           ",
"                                                            < <       +                             ",
"                                                                        &                           ",
"                                        9.                                                          ",
"                                                              <                                     ",
"                                      ~   m                     i                                   ",
"                                        V a                                                         ",
"                                                                                                    ",
"                                                                                                    ",
"                                                                                                    ",
"                                                                                                    ",
"                                                                                                    ",
"                                                                                                    ",
"                                                                                                    "
};
