/* XPM */
static char *Necromancer_creativekind_Sheet__5_1675525123[] = {
/* columns rows colors chars-per-pixel */
"50 50 87 1 ",
"  c None",
". c #050409",
"X c #050509",
"o c #060408",
"O c #060409",
"+ c #06040A",
"@ c #06050A",
"# c #07050A",
"$ c #07050C",
"% c #07050D",
"& c #06060C",
"* c #07070C",
"= c #07070E",
"- c #08060C",
"; c #08070E",
": c #08080F",
"> c #09080F",
", c #040E13",
"< c #030F17",
"1 c #040E15",
"2 c #090810",
"3 c #0A0A11",
"4 c #080812",
"5 c #090912",
"6 c #0A0812",
"7 c #0B0B13",
"8 c #0C0A12",
"9 c #0C0B13",
"0 c #0A0A15",
"q c #0B0A15",
"w c #0C0B15",
"e c #0D0B15",
"r c #0D0A16",
"t c #0C0B16",
"y c #0D0B17",
"u c #0E0B17",
"i c #0D0C17",
"p c #0D0A18",
"a c #0E0D18",
"s c #0E0C19",
"d c #0E0E18",
"f c #0D0D1A",
"g c #0F0D1B",
"h c #0F0E1A",
"j c #0F0E1C",
"k c #0F0F1C",
"l c #100D1A",
"z c #100E1C",
"x c #110F1D",
"c c #110E1E",
"v c #110F1E",
"b c #100F1F",
"n c #110F1F",
"m c #051017",
"M c #06141D",
"N c #06141F",
"B c #06151F",
"V c #171016",
"C c #11101F",
"Z c #12101F",
"A c #231618",
"S c #120F20",
"D c #120F21",
"F c #091724",
"G c #121020",
"H c #121021",
"J c #131021",
"K c #131121",
"L c #121022",
"P c #131022",
"I c #131122",
"U c #5A3630",
"Y c #5E3630",
"T c #603833",
"R c #663B35",
"E c #673C35",
"W c #663D35",
"Q c #6F413C",
"! c #7A4842",
"~ c #824D46",
"^ c #864F47",
"/ c #864F48",
"( c #8B514A",
") c #8F554C",
"_ c #90554C",
"` c #AE665C",
"' c #B46960",
/* pixels */
"                                                  ",
"                                                  ",
"                                                  ",
"                                                  ",
"                                                  ",
"                                                  ",
"                                                  ",
"                                                  ",
"                    B   i                         ",
"                   e                              ",
"                 2     Bm Z                       ",
"                    B    B                        ",
"                  e0 <,     #                     ",
"             v      F 1    i2           '         ",
"                   s e      #=                    ",
"              k          k           :            ",
"            is           vv              T        ",
"                I  e s       i                    ",
"             v i  Is Si  ;   2  _`                ",
"       Y U        I2   2         U U              ",
"        _ W          I7 i         #2              ",
"           /     I e   sI   h#    ##   A/         ",
"             )  I   sII I    i v   ;   ~          ",
"        ( RV            ek             !          ",
"              I      I   0     2    : #           ",
"          W            I  I     s I 2             ",
"           Q  S    ee           I  0              ",
"            p I         p ;#     v                ",
"            S         # Z  #       v              ",
"                        0  =:                     ",
"                I         Z         i             ",
"                       2   #                      ",
"                I :      vv                       ",
"                     s   =                        ",
"               e   s                  ;           ",
"             S  v                                 ",
"                    I          0      #           ",
"             v               #:                   ",
"             0 2                     #            ",
"             I              I      :              ",
"             l                                    ",
"                       l       #   =              ",
"                  I          #                    ",
"                                   #              ",
"                                                  ",
"                                                  ",
"                               s                  ",
"                                                  ",
"                                                  ",
"                                                  "
};
