/* XPM */
static char *acvbf_9d48a[] = {
/* columns rows colors chars-per-pixel */
"50 50 174 2 ",
"   c None",
".  c #09080C",
"X  c #100F0F",
"o  c #0C0F16",
"O  c #0F121B",
"+  c #1C1C1B",
"@  c #131316",
"#  c #1E1D2A",
"$  c #171823",
"%  c #201E2C",
"&  c #21202E",
"*  c #292A25",
"=  c #31322B",
"-  c #282A39",
";  c #3B283A",
":  c #6C1A25",
">  c #731D27",
",  c #45362F",
"<  c #442E3E",
"1  c #562735",
"2  c #463730",
"3  c #4B3E37",
"4  c #53313E",
"5  c #6C212A",
"6  c #7A232D",
"7  c #7C2D34",
"8  c #6A3A39",
"9  c #61333E",
"0  c #4D423C",
"q  c #50443E",
"w  c #3A3B4C",
"e  c #3D3845",
"r  c #443344",
"t  c #4C3645",
"y  c #443B4B",
"u  c #4A3C4B",
"i  c #483A43",
"p  c #593542",
"a  c #693F41",
"s  c #3E4152",
"d  c #4E4946",
"f  c #534C46",
"g  c #564E48",
"h  c #54514C",
"j  c #59544F",
"k  c #414455",
"l  c #45495A",
"z  c #515050",
"x  c #595753",
"c  c #5C5A55",
"v  c #6C4041",
"b  c #605D58",
"n  c #65645D",
"m  c #696A5F",
"M  c #505161",
"N  c #6B6B61",
"B  c #737369",
"V  c #77786B",
"C  c #7A7C6D",
"Z  c #727266",
"A  c #6C6E7B",
"S  c #646676",
"D  c #7D7E71",
"F  c #8E1318",
"G  c #841D1F",
"H  c #981816",
"J  c #971514",
"K  c #AA070A",
"L  c #BF0000",
"P  c #B40C09",
"I  c #AD160D",
"U  c #B6150A",
"Y  c #A81D18",
"T  c #BF1211",
"R  c #852C1F",
"E  c #B2231C",
"W  c #B72216",
"Q  c #8F1B20",
"!  c #C20300",
"~  c #C50A04",
"^  c #CB0D00",
"/  c #C10C0C",
"(  c #CE1200",
")  c #C61608",
"_  c #D11500",
"`  c #D41C01",
"'  c #DA1E01",
"]  c #D11908",
"[  c #C91912",
"{  c #C62109",
"}  c #D32301",
"|  c #DD2400",
" . c #DA2C00",
".. c #DF3100",
"X. c #DF300E",
"o. c #DC3900",
"O. c #CF2013",
"+. c #D52B16",
"@. c #CE3517",
"#. c #DD3515",
"$. c #E42C00",
"%. c #E92F00",
"&. c #E02500",
"*. c #E33401",
"=. c #EA3401",
"-. c #E33C03",
";. c #EB3A01",
":. c #EB3B0B",
">. c #E8370C",
",. c #E13413",
"<. c #A9441F",
"1. c #854226",
"2. c #94562E",
"3. c #A34A2C",
"4. c #AA4721",
"5. c #D1490C",
"6. c #C64613",
"7. c #D55E1D",
"8. c #EC4300",
"9. c #E74800",
"0. c #ED4B00",
"q. c #EF4B0A",
"w. c #F14700",
"e. c #F14F00",
"r. c #EE5301",
"t. c #F15301",
"y. c #F25B00",
"u. c #F15D09",
"i. c #E64F1E",
"p. c #F46604",
"a. c #F76B01",
"s. c #F5600B",
"d. c #F67300",
"f. c #F87201",
"g. c #FA7D00",
"h. c #F7740C",
"j. c #E65639",
"k. c #A66B4A",
"l. c #7D806F",
"z. c #7F8271",
"x. c #FC8202",
"c. c #FF8C00",
"v. c #FB8D1C",
"b. c #FE9513",
"n. c #F7812B",
"m. c #FC9126",
"M. c #F88A36",
"N. c #FA933F",
"B. c #FEA536",
"V. c #868A77",
"C. c #8A8E7A",
"Z. c #858878",
"A. c #F89644",
"S. c #F1985D",
"D. c #FEAB57",
"F. c #F9A766",
"G. c #FEB464",
"H. c #FCBB78",
"J. c #727381",
"K. c #909380",
"L. c #F6AE8B",
"P. c #E5BE8A",
"I. c #CBB9A5",
"U. c #FECB8D",
"Y. c #FCC792",
"T. c #FDD8AA",
"R. c #F6CCBA",
"E. c #FCDBB5",
"W. c #F5E0C5",
"Q. c #FDECD5",
"!. c #FDF1DE",
"~. c #EDE9E4",
"^. c #FDF1E1",
"/. c #F8F7F6",
/* pixels */
"                                                                                                    ",
"                                                                                                    ",
"                                                                                                    ",
"                                                                                                    ",
"                                                                                                    ",
"                                                                                                    ",
"                                                                                                    ",
"                                                                                                    ",
"                                                                                                    ",
"                                                                                                    ",
"            %.                                    L                                                 ",
"            8.=.                                L L L                                               ",
"          =.a.8.                                L ! ^                                               ",
"          ;.F.n.                              ! _ ( ` !                                             ",
"        ;.p.E.T.p.                            ~ | _ $.^                                             ",
"        e.B.Q.!.N.w.                          ` 8._ 8. .!                                           ",
"      R k.W././.I.1.                        ^ 9.d.` y.d.(                                           ",
"      O s A A A M $                         _ a.r.( y.b.-.!                             =.          ",
"        @ # % % $                         ! o.c.8._ r.U.S.~                             ;.8.        ",
"          * * =                           ^ 0.c.0.|  .F.R.O.                            y.t.        ",
"              C.                          ^ t.a.;.| _ h.Y.#.!                         8.A.M.;.      ",
"            C.                          ! *.g.t.%.' _ 8.v.p.(                         u.U.H.t.=.    ",
"            V                           ^ 8.a.=.} J I $.a.g...!                     s.H./.^.m.t.    ",
"            x                         ! ' ;.0.%.U ; : ' ;.y.8.^                     k.~././.P.2.    ",
"            C V.                    > K P ) $.] 5 t 4 H &.$.{ P K                 o - A J.J.S -     ",
"            n D                   z y < < 1 J 5 8 5.<.4 F G t t r e                 o # & & # .     ",
"              Z N                 N w w s k w 8 7.G.A.4.t w l k w i 0                 @ + + X       ",
"              n C K.            V.    Q 9 y y v 7.D.A.3.t r u 6 F   f                   b x         ",
"              c   C.          B B     ] @.E Y 7 a 6.3.p H W E T !   j q                             ",
"                c z.            V     ) X.q.=.+.7 u p Y 0.p.,.)     f g q                           ",
"                  N l.    n C           ] r.t.>.W r > | x.h.+./       c 0                           ",
"                    N Z.D n m           ~ -.a.:.#.Y U u.H.i.[         x f 3             b           ",
"                      N n                 } d.u.>.' | M.L.+./           3             h d           ",
"                                          ^ r.f.*.( t.U.j.!             2 ,           0 d           ",
"                                             .f.8.( y.M.,.!               ,         h 0             ",
"                                            ( ;.$.} x.r.^ L                       x                 ",
"                                              ' $.} g.9.!                     f 0 f 0               ",
"                                              ^ | ( 8.} L                     h 0 2                 ",
"                                              ! ` ( ' !                                             ",
"                                                ! ! !                                               ",
"                                                L L L                                               ",
"                                                  L L                                               ",
"                                                  L                                                 ",
"                                                                                                    ",
"                                                                                                    ",
"                                                                                                    ",
"                                                                                                    ",
"                                                                                                    ",
"                                                                                                    ",
"                                                                                                    "
};
