/* XPM */
static char *a0jp6_8gmgy[] = {
/* columns rows colors chars-per-pixel */
"50 50 168 2 ",
"   c None",
".  c #0C0B0E",
"X  c #0E0D13",
"o  c #0F1019",
"O  c #141414",
"+  c #14141D",
"@  c #181718",
"#  c #1D1E1B",
"$  c #20211E",
"%  c #1C1B28",
"&  c #201F2C",
"*  c #252429",
"=  c #252333",
"-  c #282A38",
";  c #7C181F",
":  c #691D29",
">  c #7E1C21",
",  c #751921",
"<  c #45362F",
"1  c #4C2232",
"2  c #582A39",
"3  c #4A3D36",
"4  c #4B3F38",
"5  c #463831",
"6  c #5B373E",
"7  c #62202D",
"8  c #7E252C",
"9  c #6B2732",
"0  c #642C38",
"q  c #742F32",
"w  c #62313D",
"e  c #4C413A",
"r  c #3B2F42",
"t  c #373444",
"y  c #383E50",
"u  c #423B44",
"i  c #4C3846",
"p  c #513D4C",
"a  c #543343",
"s  c #673843",
"d  c #3C4254",
"f  c #534A45",
"g  c #564C48",
"h  c #59524D",
"j  c #57524D",
"k  c #424555",
"l  c #454A5A",
"z  c #494B5B",
"x  c #555553",
"c  c #595651",
"v  c #5D5B55",
"b  c #634149",
"n  c #774543",
"m  c #605C57",
"M  c #65645D",
"N  c #68685E",
"B  c #5E5F6E",
"V  c #6D6E63",
"C  c #77786A",
"Z  c #787A6C",
"A  c #727268",
"S  c #767A76",
"D  c #8C191B",
"F  c #981614",
"G  c #AE0D0F",
"H  c #BF0000",
"J  c #B50608",
"K  c #B8160A",
"L  c #AE1E18",
"P  c #9A3017",
"I  c #AB2617",
"U  c #BA2415",
"Y  c #A53B15",
"T  c #811E25",
"R  c #86252D",
"E  c #922424",
"W  c #C20401",
"Q  c #C50801",
"!  c #C90D00",
"~  c #C31605",
"^  c #CD1202",
"/  c #CA170A",
"(  c #D21500",
")  c #D31A00",
"_  c #D91E00",
"`  c #C91810",
"'  c #C41F10",
"]  c #D52202",
"[  c #DC2301",
"{  c #D52A00",
"}  c #D82B00",
"|  c #D8280E",
" . c #D93303",
".. c #DE3D00",
"X. c #DB2E13",
"o. c #E02500",
"O. c #E32B02",
"+. c #E33400",
"@. c #EA3200",
"#. c #E63E00",
"$. c #EA3D00",
"%. c #E73308",
"&. c #BE4C1C",
"*. c #88473A",
"=. c #A34025",
"-. c #B95429",
";. c #A35D30",
":. c #A06320",
">. c #C6531C",
",. c #EC4401",
"<. c #EE4B00",
"1. c #F14901",
"2. c #EE5000",
"3. c #EF5A00",
"4. c #EC530A",
"5. c #ED580B",
"6. c #F05402",
"7. c #F25A00",
"8. c #F25D0B",
"9. c #F46500",
"0. c #F46900",
"q. c #F96800",
"w. c #F77200",
"e. c #FA7502",
"r. c #FA7B01",
"t. c #FA7B0C",
"y. c #E96414",
"u. c #F76E16",
"i. c #F87D1A",
"p. c #F77D1E",
"a. c #E44223",
"s. c #EB752B",
"d. c #AC7041",
"f. c #EA6B4D",
"g. c #7F8272",
"h. c #FD8B00",
"j. c #FD931C",
"k. c #FA8C2D",
"l. c #FFA130",
"z. c #FDA53A",
"x. c #828473",
"c. c #898D79",
"v. c #868976",
"b. c #FB9D45",
"n. c #FCAC5B",
"m. c #FDA75A",
"M. c #C0956C",
"N. c #F9A766",
"B. c #FDB967",
"V. c #FCBB79",
"C. c #787986",
"Z. c #7F818D",
"A. c #81828E",
"S. c #D8BFA1",
"D. c #FFCB8A",
"F. c #FDC687",
"G. c #F9C29C",
"H. c #FED49B",
"J. c #FAC9A7",
"K. c #FDD8A8",
"L. c #F4C5B0",
"P. c #EBDFD0",
"I. c #FCE5CA",
"U. c #FDEBD5",
"Y. c #F3EDE4",
"T. c #FCF7EE",
"R. c #FCFCFC",
"E. c #FCF9F3",
/* pixels */
"                                                                                                    ",
"                                                                                                    ",
"                                                                                                    ",
"                                                                                                    ",
"                                                                                                    ",
"                                                                                                    ",
"            @.                                                                                      ",
"                                                                                                    ",
"                                                                                                    ",
"                                                                                                    ",
"                                                                                                    ",
"                                                                                                    ",
"                                                  H                                                 ",
"              @.                                H H H                                               ",
"              ,.                                H W Q                                     ,.        ",
"            7.r.                              W ! ^ ) H                                 <.r.        ",
"        @.8.n.j.0.                            W _ ( o.!                               <.b.z.6.      ",
"        <.N.T.H.e.                            ( +.^ @.) H                           ,.r.D.I.p.@.    ",
"        u.K.R.U.l.q.                        Q +.0.) 6.3.!                         @.e.B.T.E.n.1.    ",
"      Y M.R.R.R.S.:.                        ^ 9.9.( 7.h.} W                       P d.Y.R.R.P.;.    ",
"      + l Z.A.A.B %                       H { r.,.^ 7.B.s.Q                       o t C.A.A.S -     ",
"        + = = = %                         Q <.h.<._ ..F.L.`                         X = = = & .     ",
"          $ # *                           Q 2.r.,.[ ) i.J.X.H                         O @ @ .       ",
"              c.                        W [ w.7.@.[ ( 6.b.4.!                           c           ",
"            c.                          Q $.e.$.O.K ~ @.e.e.] W                                     ",
"            x.                        H _ ,.7.@.~ 1 ; [ ,.w.4.`                                     ",
"            v                         H ^ [ @.[ D t 2 K O.@.O./ J                                   ",
"            C x.                  x p 9 9 8 ' E 6 =.*.0 K I q 9 2 u                     j           ",
"            N x.                  M k d l z a b -.k.s.*.2 i z l y u                   m f           ",
"              Z V               A Z   0 p k d n s.D.m.&.i d z 2 7 h g                 j h           ",
"              M C               g.S   / I > ; w *.y.>.6 : T R G W   f e               c             ",
"              v   c.            A     ^ O.O.o.U s n 6 >  .4.X.^     4 f 3             f             ",
"                  x.        v g.v.      | 7.,.%.L r : ] e.t.| Q       j 4         v   5             ",
"                  V         v Z         Q #.9.@./ , F ,.b.5.!         f   e       f 3               ",
"                    V C   N c             } r.<.O.( ) i.G.X.H           3 4     f 4                 ",
"                      V c.N               ! 7.9.O.( <.V.f.!                 < 5 3                   ",
"                                          Q #.r.,.^ 7.N.a.W                   <                     ",
"                                            ^ <.+.) w.6.( W                                         ",
"                                            Q [ O.{ h.<.Q                                           ",
"                                              ( O.( 7. .H                                           ",
"                                              W _ ( O.!                                             ",
"                                              W ! Q ! H                                             ",
"                                                H H H                                               ",
"                                                H H H                                               ",
"                                                  H                                                 ",
"                                                                                                    ",
"                                                                                                    ",
"                                                                                                    ",
"                                                                                                    ",
"                                                                                                    "
};
