/* XPM */
static char *ayuh9_pjpwp[] = {
/* columns rows colors chars-per-pixel */
"50 50 165 2 ",
"   c None",
".  c #0A090D",
"X  c #171718",
"o  c #1A1A1A",
"O  c #151517",
"+  c #1B1A25",
"@  c #221C26",
"#  c #1F212E",
"$  c #232220",
"%  c #26242F",
"&  c #272837",
"*  c #2E2E3F",
"=  c #762C1F",
"-  c #651B27",
";  c #751D27",
":  c #5E222F",
">  c #45352E",
",  c #4D2C3B",
"<  c #5D2432",
"1  c #572D3A",
"2  c #473932",
"3  c #493C36",
"4  c #493B34",
"5  c #5A303C",
"6  c #6B222C",
"7  c #652432",
"8  c #692934",
"9  c #6C2D39",
"0  c #6B3C3C",
"q  c #703E3B",
"w  c #4D423B",
"e  c #70413F",
"r  c #382F42",
"t  c #3E3840",
"y  c #383C4E",
"u  c #453A47",
"i  c #513040",
"p  c #583946",
"a  c #613C47",
"s  c #3D4355",
"d  c #3E4759",
"f  c #4D4348",
"g  c #524A45",
"h  c #544E4A",
"j  c #55424C",
"k  c #59544F",
"l  c #424455",
"z  c #4A4B5B",
"x  c #595652",
"c  c #5D5B55",
"v  c #605F58",
"b  c #66665D",
"n  c #595A69",
"m  c #6E6D63",
"M  c #717266",
"N  c #737469",
"B  c #76796C",
"V  c #7A7E6C",
"C  c #606170",
"Z  c #82161C",
"A  c #961616",
"S  c #BE0000",
"D  c #A31614",
"F  c #BE1610",
"G  c #A6231D",
"H  c #BA3F13",
"J  c #831D25",
"K  c #8D2722",
"L  c #91312A",
"P  c #823B32",
"I  c #A32725",
"U  c #C20300",
"Y  c #C60901",
"T  c #CA0C01",
"R  c #C40C08",
"E  c #CD1201",
"W  c #C61B05",
"Q  c #C81A05",
"!  c #CB160C",
"~  c #D21500",
"^  c #D31A00",
"/  c #D41D07",
"(  c #C52308",
")  c #D32200",
"_  c #DB2201",
"`  c #DB2803",
"'  c #D42B00",
"]  c #DD3903",
"[  c #C72311",
"{  c #D72A14",
"}  c #DD3215",
"|  c #E02600",
" . c #E32B01",
".. c #E93100",
"X. c #E53A02",
"o. c #EA3C00",
"O. c #E93708",
"+. c #E53206",
"@. c #9D482C",
"#. c #8D4438",
"$. c #825235",
"%. c #A55134",
"&. c #8C603F",
"*. c #C34E13",
"=. c #C4511D",
"-. c #E54400",
";. c #EB4400",
":. c #ED4B00",
">. c #E7480E",
",. c #EE5000",
"<. c #F25201",
"1. c #F25C00",
"2. c #F35F0C",
"3. c #F46300",
"4. c #F56C00",
"5. c #F66B09",
"6. c #F3600C",
"7. c #F97500",
"8. c #FA7B01",
"9. c #FA7A0E",
"0. c #EB601A",
"q. c #F36611",
"w. c #F57213",
"e. c #F5771A",
"r. c #E4492B",
"t. c #DA6521",
"y. c #EB7120",
"u. c #834941",
"i. c #7D806F",
"p. c #FC8400",
"a. c #FE8D00",
"s. c #FB840A",
"d. c #FC8B10",
"f. c #D98127",
"g. c #F9892C",
"h. c #FD9627",
"j. c #E8993C",
"k. c #F9933A",
"l. c #828474",
"z. c #898D79",
"x. c #878B77",
"c. c #FEAD46",
"v. c #EE8060",
"b. c #FCAC63",
"n. c #FDB666",
"m. c #FBBA7E",
"M. c #FDC07A",
"N. c #797881",
"B. c #A5A6AD",
"V. c #DABD97",
"C. c #FBBD80",
"Z. c #F3BB9B",
"A. c #FFCF91",
"S. c #FBC59B",
"D. c #FED095",
"F. c #E4CBAB",
"G. c #F9CBAF",
"H. c #FEDDAD",
"J. c #FEDFB6",
"K. c #FDE5C2",
"L. c #FFEED5",
"P. c #F0EEEC",
"I. c #FDF5EA",
"U. c white",
"Y. c #F6F4F2",
/* pixels */
"                                                                                                    ",
"                                                                                                    ",
"                                                                                                    ",
"                                                                                                    ",
"                                                                                                    ",
"                                                                                                    ",
"                                                                                                    ",
"            ..                                                                                      ",
"                                                                                                    ",
"                                                                                                    ",
"                                                                                                    ",
"                                                  S                                                 ",
"                                                  S S                                               ",
"                                                S U U                                               ",
"            3.;.                                Y T ~                                               ",
"          <.k.q.                              U ^ ~ _ Y                                 :.          ",
"        ..5.H.C.5.                            E | E ..~ S                               3.3.        ",
"        <.b.Y.K.8.                            ` 1.^ :.:.Y                               d.s.        ",
"      H f.H.U.L.j.*.                        E 1.4.^ 1.p.) S                           3.n.M.6.      ",
"      @ n B.B.B.N.%                         ) 8.;.E 1.c.0.Y                         1.h.J.I.h.1.    ",
"        + * * * % .                       Y -.a.:.^ -.D.Z.!                       = &.F.P.P.V.$.    ",
"          X O o .                         Y ,.p.;._ ^ g.G.{ S                       & n C C n #     ",
"              V                         U ^ 3.1..._ ~ 2.b.>.Y                       . + + + +       ",
"            z.                          U X.8.;. .E ~ ..8.7.^ S                       o $ $         ",
"            l.                        S ^ ;.3...W - A | <.8.;.T                         c           ",
"            b                         U ^  .o.| A r : Q ..o.O.! U                                   ",
"            M                       5 Z Z A ^ D 1 P 0 6 Q ( K J ; u                                 ",
"            m l.                  x l s l f 8 p @.w.t.e < 1 l l y t                     3           ",
"            c B m                 B j i z z d u.y.A.b.=.u s z p , h g                   x           ",
"              b B               l.B   F L 8 7 a %.e.t.q < 7 9 D S   g                 x h           ",
"              v   z.            M     !  ._ ^ G a #.0 6 ( ] { R     k w               w             ",
"                  l.        x B l.      ` 1.o.+.I u < W 4.9.} R     c g               g             ",
"                x c         c i.        T ;.3.O.[ : Z X.h.q./         c w         c                 ",
"                    M N M b x             ] 7.;. .E E w.S.} U         g 3       h w                 ",
"                      M x.b               E 3.1. .^ -.b.v.E             2 g   4 3 >                 ",
"                                          Y ;.8.o.T 1.m.r.U             > g w > >                   ",
"                                            ^ 1.o.^ 4.2._ U               2 > >                     ",
"                                            T |  .' a.,.Y                                           ",
"                                              ^ | ^ 3.] U                                           ",
"                                              Y _ ~ ..E                                             ",
"                                              U E T E U                                             ",
"                                                S S S                                               ",
"                                                S S S                                               ",
"                                                  S                                                 ",
"                                                                                                    ",
"                                                                                                    ",
"                                                                                                    ",
"                                                                                                    ",
"                                                                                                    ",
"                                                                                                    "
};
