/* XPM */
static char *axj5n_md5bj[] = {
/* columns rows colors chars-per-pixel */
"50 50 171 2 ",
"   c None",
".  c #090A0F",
"X  c #1B1B1A",
"o  c #17161F",
"O  c #1F201E",
"+  c #1A1823",
"@  c #1D1D2A",
"#  c #171721",
"$  c #2D2C2A",
"%  c #232328",
"&  c #292738",
"*  c #252736",
"=  c #382B3E",
"-  c #7B181F",
";  c #641D29",
":  c #771A23",
">  c #5F2923",
",  c #45362F",
"<  c #4E2E3D",
"1  c #512E3D",
"2  c #5B2C39",
"3  c #5E2834",
"4  c #493C35",
"5  c #4B3E38",
"6  c #463831",
"7  c #5B363E",
"8  c #6B212B",
"9  c #612632",
"0  c #653A3E",
"q  c #793336",
"w  c #4D433C",
"e  c #50413B",
"r  c #76483C",
"t  c #3C3749",
"y  c #3D3B4C",
"u  c #3E3643",
"i  c #443C4D",
"p  c #4A3644",
"a  c #563645",
"s  c #613F47",
"d  c #3D4355",
"f  c #4F4741",
"g  c #454149",
"h  c #534B45",
"j  c #564F4A",
"k  c #58524C",
"l  c #474454",
"z  c #494D5D",
"x  c #464C5C",
"c  c #555350",
"v  c #595752",
"b  c #5C5A54",
"n  c #5F5C58",
"m  c #654249",
"M  c #7C5A44",
"N  c #65635D",
"B  c #4F5162",
"V  c #545666",
"C  c #6B6B62",
"Z  c #717266",
"A  c #77796B",
"S  c #7A7B6E",
"D  c #76776A",
"F  c #7E7F72",
"G  c #696A78",
"H  c #9B0D10",
"J  c #991618",
"K  c #A90A0E",
"L  c #BF0000",
"P  c #AC140D",
"I  c #B41B0C",
"U  c #B9180B",
"Y  c #AA1514",
"T  c #AD2618",
"R  c #A4301B",
"E  c #801C20",
"W  c #911D24",
"Q  c #912A2B",
"!  c #813F32",
"~  c #C20300",
"^  c #CA0C00",
"/  c #C50E09",
"(  c #CE1201",
")  c #CD1B01",
"_  c #C5110B",
"`  c #C51708",
"'  c #D31600",
"]  c #D31B00",
"[  c #DA1E00",
"{  c #D11C0C",
"}  c #C9270D",
"|  c #D52402",
" . c #DC2200",
".. c #DD2C0C",
"X. c #D82903",
"o. c #C52518",
"O. c #D32513",
"+. c #DD3311",
"@. c #E52C00",
"#. c #E82E00",
"$. c #E13501",
"%. c #EA3300",
"&. c #E43A00",
"*. c #EB3B01",
"=. c #E6360C",
"-. c #E23E11",
";. c #B04B19",
":. c #884536",
">. c #AA4224",
",. c #BD5324",
"<. c #C34F18",
"1. c #C55314",
"2. c #E24100",
"3. c #EC4200",
"4. c #ED4C00",
"5. c #E84A07",
"6. c #F04C00",
"7. c #EE5200",
"8. c #EA5A04",
"9. c #F15201",
"0. c #F25C00",
"q. c #F46400",
"w. c #F66E02",
"e. c #F56A0D",
"r. c #F3620E",
"t. c #F67202",
"y. c #F87201",
"u. c #FA7C00",
"i. c #F87408",
"p. c #E66B1D",
"a. c #F56F1D",
"s. c #F46B17",
"d. c #F67413",
"f. c #E24520",
"g. c #E54E31",
"h. c #EB7A2D",
"j. c #8F7C6A",
"k. c #7F8171",
"l. c #FD8A00",
"z. c #FB860C",
"x. c #FF9106",
"c. c #FC8A13",
"v. c #FA8929",
"b. c #FB8F31",
"n. c #FD9D31",
"m. c #FEA029",
"M. c #FFA637",
"N. c #838774",
"B. c #858877",
"V. c #898D7A",
"C. c #FA9A46",
"Z. c #FEAD4D",
"A. c #FCA557",
"S. c #F29775",
"D. c #F2AB7E",
"F. c #8F9380",
"G. c #8F919D",
"H. c #91929C",
"J. c #D8BC9D",
"K. c #FBB980",
"L. c #FEC785",
"P. c #FCC48E",
"I. c #FCC790",
"U. c #FDD29A",
"Y. c #DCC8B0",
"T. c #F7CDB6",
"R. c #FDDEB3",
"E. c #FEEDD4",
"W. c #E8E7E8",
"Q. c #FEF7EC",
"!. c #FFFEFD",
/* pixels */
"                                                                                                    ",
"                                                                                                    ",
"                                                                                                    ",
"                                                                                                    ",
"                                                                                                    ",
"                                                                                                    ",
"              %.                                                                                    ",
"                                                                                                    ",
"                                                                                                    ",
"                                                                                                    ",
"            *.                                    L                                                 ",
"          9.w.3.    %.                            L L                                               ",
"          x.Z.s.                                L L L                                               ",
"          w.R.I.i.                              ~ ^ (                                               ",
"        *.w.R.E.v.                            ~ ' ( [ ~                                             ",
"      R 1.M.E.!.J.;.                          ^  .( #.(                                             ",
"      + e j.G.H.G %                            .4.' 4.&.~                                           ",
"        # & & & @                           ^ 7.t.' 0.u.) L                                         ",
"          X X O                             ] y.4.( 0.m.5.~                             %.          ",
"          N.  N.                          ~ 2.l.3.' 4.U.D._                             %.%.        ",
"            V.                            ^ 7.l.4. .| C.T.O.L                           6.4.        ",
"            k.                          L ( 0.q.%. .' e.K.-.~                           d.z.3.      ",
"            b                           ~ &.u.4.#.' ' *.z.w.' L                       a.U.L.r.      ",
"            Z                           ' 3.q.%.) - J @.0.u.&.~                     q.Z.!.Q.n.0.    ",
"            C k.                      ~ [ %.3.#.P = ; ] %.6.*.^ ~                 > M Y.W.W.J.r     ",
"            N F S                   9 H H P  .U 3 0 7 E [ | T J J                   * B V V z @     ",
"              Z V.                c y t t p : 3 ! 8.<.7 : 8 i i y u                 . + + + o       ",
"              n   F.              A g i l x d r p.L.A.,.p d z l u g h                 % $ $         ",
"                n B.            B.    Y q a a m ,.b.h.:.< 1 a W K   k                   N b         ",
"                n A S         C Z     { +.} ` Q s >.:.2 I } o./ ~   k w                             ",
"                      D S b     k.      X.9.%...Q i 2 I 0.i.+./     j j 5                           ",
"                        C   N           ) 4.0.=.o.1 : @.c.d.O.        v w               h           ",
"                          v             ~ $.y.3.=.U ` e.P.f._         n h 4             b           ",
"                                          ) w.0.#.' $.C.S.{             6 ,           h w           ",
"                                          ^ 4.u.&.( 0.P.g.~             , ,         h 5             ",
"                                            | q.3.( q.a...~               , h         f             ",
"                                            ^ #.#.X.l.7.^                 6 h 4   v                 ",
"                                              ' @.] t.2.~                     w 5 c w ,             ",
"                                              ^  .( *.]                         f w                 ",
"                                              ~ ' ( ' ~                                             ",
"                                                ~ ~ ~                                               ",
"                                                L L L                                               ",
"                                                  L                                                 ",
"                                                                                                    ",
"                                                                                                    ",
"                                                                                                    ",
"                                                                                                    ",
"                                                                                                    ",
"                                                                                                    ",
"                                                                                                    "
};
