/* XPM */
static char *ax0du_zvwsu[] = {
/* columns rows colors chars-per-pixel */
"50 50 173 2 ",
"   c None",
".  c #0D0D12",
"X  c #100F14",
"o  c #131217",
"O  c #12121A",
"+  c #171720",
"@  c #191721",
"#  c #2A1B22",
"$  c #2F2F3F",
"%  c #3D2739",
"&  c #2F313F",
"*  c #3C3836",
"=  c #771620",
"-  c #731D27",
";  c #592828",
":  c #45362F",
">  c #442E3E",
",  c #562735",
"<  c #463730",
"1  c #473932",
"2  c #493D36",
"3  c #4B3F39",
"4  c #53313E",
"5  c #6C212A",
"6  c #7A232D",
"7  c #60392F",
"8  c #7C2D34",
"9  c #6A3A39",
"0  c #61333E",
"q  c #3E4036",
"w  c #45433F",
"e  c #4E433D",
"r  c #50433E",
"t  c #353546",
"y  c #3B3B4C",
"u  c #3D3845",
"i  c #443344",
"p  c #4C3645",
"a  c #443B4B",
"s  c #4A3C4B",
"d  c #493A44",
"f  c #593542",
"g  c #693F40",
"h  c #3E4253",
"j  c #4F4741",
"k  c #4C4A47",
"l  c #534B45",
"z  c #564F49",
"x  c #56504C",
"c  c #59514C",
"v  c #414455",
"b  c #45495A",
"n  c #545350",
"m  c #595752",
"M  c #5C5954",
"N  c #5F5E58",
"B  c #6C4041",
"V  c #615F5A",
"C  c #65645D",
"Z  c #69695F",
"A  c #505262",
"S  c #6C6D62",
"D  c #757669",
"F  c #78796C",
"G  c #74766A",
"H  c #7D7F71",
"J  c #9E0B10",
"K  c #8E1318",
"L  c #841D1F",
"P  c #981715",
"I  c #AC0909",
"U  c #BF0000",
"Y  c #B40C08",
"T  c #B7150A",
"R  c #A81D18",
"E  c #BF1211",
"W  c #AF2112",
"Q  c #B2231C",
"!  c #BE2319",
"~  c #8F1B20",
"^  c #C20300",
"/  c #C40A04",
"(  c #CB0D00",
")  c #C10B0C",
"_  c #CE1200",
"`  c #C61608",
"'  c #D11500",
"]  c #D41C01",
"[  c #D91E01",
"{  c #D11908",
"}  c #C91912",
"|  c #C62109",
" . c #D32400",
".. c #DC2400",
"X. c #DA2C00",
"o. c #DF3100",
"O. c #DE3507",
"+. c #CF2013",
"@. c #D52B16",
"#. c #CE3517",
"$. c #DD3515",
"%. c #E32C01",
"&. c #E92F00",
"*. c #E02500",
"=. c #E33401",
"-. c #E93201",
";. c #E33C03",
":. c #EC3A00",
">. c #EB3B0B",
",. c #E8370C",
"<. c #F03F00",
"1. c #E13413",
"2. c #A9441F",
"3. c #A34A2C",
"4. c #AA4721",
"5. c #D1490C",
"6. c #C64613",
"7. c #D55E1D",
"8. c #EB4300",
"9. c #E74800",
"0. c #EC4C01",
"q. c #EF4B0A",
"w. c #EE5301",
"e. c #F15401",
"r. c #F25A00",
"t. c #F15D09",
"y. c #E64F1E",
"u. c #D76617",
"i. c #F46502",
"p. c #F76C01",
"a. c #F56A0A",
"s. c #F67300",
"d. c #F87201",
"f. c #FA7D00",
"g. c #F7740C",
"h. c #F46B16",
"j. c #E65639",
"k. c #F26B24",
"l. c #8F6A60",
"z. c #FC8202",
"x. c #FF8C00",
"c. c #FB840E",
"v. c #FA8A17",
"b. c #FE9513",
"n. c #F78835",
"m. c #FB9638",
"M. c #838675",
"N. c #898D79",
"B. c #8D917C",
"V. c #F79240",
"C. c #F1985D",
"Z. c #FDAC5A",
"A. c #FBAB60",
"S. c #FEB464",
"D. c #F7A774",
"F. c #FBB676",
"G. c #B29A80",
"H. c #A9A8AC",
"J. c #F6AE8B",
"K. c #FECB8C",
"L. c #FDC681",
"P. c #FCC898",
"I. c #F6CCBA",
"U. c #F8D9B5",
"Y. c #BABCC2",
"T. c #E3D7C9",
"R. c #FEE6C3",
"E. c #FCE8CE",
"W. c #E6E0DA",
"Q. c #E3E5E8",
"!. c #FFF4E5",
"~. c #FFFFFF",
"^. c #FCF8F1",
/* pixels */
"                                                                                                    ",
"                                                                                                    ",
"                                                                                                    ",
"                                                                                                    ",
"                                                                                                    ",
"                                                                                                    ",
"                                                                                                    ",
"                                                                                                    ",
"                                                                                                    ",
"                                                                                                    ",
"            -.-.                                  U                                                 ",
"            -.-.                                U U U                                               ",
"          -.:.r.                                U ^ (                                               ",
"          -.i.c.                              ^ ' _ ] ^                                             ",
"          :.m.K.a.                            / ..' %.(                                             ",
"        :.n.E.R.a.                            ] 8.' 8.X.^                                           ",
"      %.w.K.~.R.c.0.                        ( 9.s.] r.s._                                           ",
"      ; l.T.Q.W.G.7                         ' p.w._ r.b.;.^                             :.:.        ",
"      . & A A A y O                       ^ O.x.8.' w.K.C./                             k.h.        ",
"        . @ @ @ o                         ( 0.x.0...X.A.I.+.                          8.D.P.h.      ",
"          q * k                           ( e.p.:...' g.P.$.^                       :.e.L.^.m.<.    ",
"              B.                        ^ =.f.e.&.[ ' 8.v.i._                       u.Z.!.~.U.u.    ",
"            N.                          ( 8.p.-...I _ %.p.f.o.^                   # k H.Y.Y.H.d     ",
"            S                         ^ [ :.0.&.T % = [ :.r.8.(                     + t t t $ o     ",
"            V                       - I Y ` %.{ 5 p 4 P *.%.| Y J                     X o o .       ",
"            H N.                  n a > > , P 5 9 5.2.4 K L p p i u                     w w         ",
"            N F D                 C y y h v u 9 7.S.V.4.p y b v y * <                               ",
"              S S               D G   ~ 0 a a B 7.Z.V.3.p i s 6 K   z                               ",
"              C M.N.            F     { #.Q R 8 g 6.3.f P W Q E ^   M r                             ",
"              V   N.          C F     ` O.q.,.@.8 s f R 0.a.1.`     l z r               c           ",
"                m Z         N M.B.      { w.e.,.! i - ..z.g.@.)       M e               M           ",
"                  M D   F S M S         / ;.p.>.$.R T t.F.y.}         m l 2           l x           ",
"                    C C     m              .s.t.,.[ ..n.J.@.)           3           x e             ",
"                        N.                ( w.d.=._ e.K.j.^             < :       m   j             ",
"                                            X.d.8._ r.n.1.^               3 3                       ",
"                                            _ :.%. .z.w.( U               2 1 2 j 1 :               ",
"                                              [ %. .f.9.^                     < 1                   ",
"                                              ( .._ 8. .U                                           ",
"                                              ^ ] _ [ ^                                             ",
"                                                ^ ^ ^                                               ",
"                                                U U U                                               ",
"                                                  U U                                               ",
"                                                  U                                                 ",
"                                                                                                    ",
"                                                                                                    ",
"                                                                                                    ",
"                                                                                                    ",
"                                                                                                    ",
"                                                                                                    ",
"                                                                                                    "
};
