/* XPM */
static char *azyjq_40lft[] = {
/* columns rows colors chars-per-pixel */
"50 50 165 2 ",
"   c None",
".  c #0C0C0E",
"X  c #0F0E12",
"o  c #0F121C",
"O  c #131215",
"+  c #14131B",
"@  c #181620",
"#  c #1B1C29",
"$  c #201E2C",
"%  c #292A25",
"&  c #31322B",
"*  c #282736",
"=  c #2A293A",
"-  c #252433",
";  c #302F3D",
":  c #3E363A",
">  c #7D1A1F",
",  c #7D171F",
"<  c #691D29",
"1  c #791B22",
"2  c #45362F",
"3  c #4E2737",
"4  c #562837",
"5  c #5D2B38",
"6  c #453730",
"7  c #4B3F39",
"8  c #473933",
"9  c #5B373E",
"0  c #62202D",
"q  c #7F2A29",
"w  c #6B2732",
"e  c #642C38",
"r  c #742F33",
"t  c #62313D",
"y  c #4D423C",
"u  c #3B2F42",
"i  c #3C3748",
"p  c #383E50",
"a  c #423B44",
"s  c #4B3847",
"d  c #513D4C",
"f  c #543343",
"g  c #673843",
"h  c #3C4254",
"j  c #4F4640",
"k  c #504741",
"l  c #554E4A",
"z  c #594E4D",
"x  c #54514B",
"c  c #424555",
"v  c #444B5C",
"b  c #494B5B",
"n  c #555453",
"m  c #595551",
"M  c #5D5A55",
"N  c #634149",
"B  c #774543",
"V  c #605F58",
"C  c #64625B",
"Z  c #68685F",
"A  c #505263",
"S  c #696661",
"D  c #6F7064",
"F  c #727467",
"G  c #78796C",
"H  c #6D6F7E",
"J  c #7C7E71",
"K  c #8C191B",
"L  c #981614",
"P  c #AE0D0F",
"I  c #BF0000",
"U  c #B8160A",
"Y  c #AE1E18",
"T  c #AB2616",
"R  c #BA2415",
"E  c #811E25",
"W  c #86252D",
"Q  c #922424",
"!  c #C20400",
"~  c #C50801",
"^  c #C90C00",
"/  c #C31605",
"(  c #CD1102",
")  c #CA170A",
"_  c #D21500",
"`  c #D31A00",
"'  c #D91E00",
"]  c #C91810",
"[  c #C41F10",
"{  c #D52202",
"}  c #DC2301",
"|  c #D52A00",
" . c #D82B00",
".. c #D8280E",
"X. c #D93303",
"o. c #DE3D00",
"O. c #DB2E13",
"+. c #E02500",
"@. c #E32B02",
"#. c #E33400",
"$. c #E93100",
"%. c #E63E00",
"&. c #EB3D00",
"*. c #E73208",
"=. c #BD4D1C",
"-. c #AB551F",
";. c #894425",
":. c #88473A",
">. c #A34025",
",. c #B95429",
"<. c #BA6329",
"1. c #C6531C",
"2. c #EC4301",
"3. c #ED4B00",
"4. c #F24900",
"5. c #EE5000",
"6. c #EF5A00",
"7. c #EC530A",
"8. c #ED580B",
"9. c #F15403",
"0. c #F25A00",
"q. c #F46400",
"w. c #F46904",
"e. c #F77200",
"r. c #F97501",
"t. c #FA7C00",
"y. c #FA7C0A",
"u. c #E96414",
"i. c #F6771B",
"p. c #F87D1A",
"a. c #E44223",
"s. c #C07339",
"d. c #EB752B",
"f. c #EA6B4D",
"g. c #7F8271",
"h. c #FD8B00",
"j. c #FE8E08",
"k. c #F9872D",
"l. c #F88C37",
"z. c #8A8E7A",
"x. c #848775",
"c. c #8D917E",
"v. c #FC9F45",
"b. c #FBA94B",
"n. c #FCA75A",
"m. c #CBA06B",
"M. c #F9A766",
"N. c #FEBC66",
"B. c #FCBB79",
"V. c #878994",
"C. c #9697A1",
"Z. c #FDC684",
"A. c #FFCA8A",
"S. c #F9C29C",
"D. c #FAC9A7",
"F. c #FDD8A3",
"G. c #F4C5B0",
"H. c #FDDFB9",
"J. c #FDE2BD",
"K. c #F1DFC9",
"L. c #F7ECDE",
"P. c #F7EDE1",
"I. c #FCF1E3",
"U. c white",
"Y. c #FCF9F1",
/* pixels */
"                                                                                                    ",
"                                                                                                    ",
"                                                                                                    ",
"                                                                                                    ",
"                                                                                                    ",
"                                                                                                    ",
"                                                                                                    ",
"                                                                                                    ",
"              $.                                                                                    ",
"              $.                                                                                    ",
"            $.$.                                                                      $.            ",
"            3.                                                                                      ",
"          q.t.                                    I                                                 ",
"          j.N.i.  $.                            I I I                                               ",
"          w.F.b.q.                              I ! ~                                               ",
"        &.r.H.J.y.4.                          ! ^ ( ` I                                             ",
"      q -.b.L.P.m.;.                          ! ' _ +.^                                             ",
"      o : S H H A @                           _ #.( $.` I                               $.          ",
"        + # $ $ @                           ~ #.w.` 9.6.^                           $.  &.2.        ",
"          % % &                             ( q.q._ 0.h. .!                           2.l.k.        ",
"              z.                          I | t.2.( 0.N.d.~                           9.Z.H.i.      ",
"            z.                            ~ 3.h.3.' o.Z.G.]                         9.n.I.Y.b.4.    ",
"            G                             ~ 5.t.2.} ` p.D.O.I                       s.L.U.U.K.<.    ",
"            F                           ! } e.0.$.} _ 9.v.7.^                     + i V.C.C.V.;     ",
"            Z g.                        ~ %.r.&.@.U / $.r.r.{ !                     O * = = - X     ",
"              J x.                    I ' 2.0.$./ 3 , } 2.e.7.]                       X O O .       ",
"              g.F                     I ( } $.} K i 4 U @.$.@.) I                         x         ",
"              S z.                n d w w q [ Q 9 >.:.t U T r w 5 a                                 ",
"              M   c.              S c h v b f N ,.k.d.:.3 s b v p a                                 ",
"                  F             c.c.  e d c h B d.A.n.=.s h b 5 0 z l                               ",
"                  M D           J     ) T > , t :.u.1.9 < E W P !   m k                 M           ",
"                      G     C   C     ( @.@.+.R g B 9 1 X.7.O.(     k y               n n           ",
"                        C V   x.        } 0.2.*.Y u < { r.y...~       M j             j l           ",
"                          m             ~ %.q.$.) 1 L 2.v.8.(         m y 6         x y             ",
"                                           .t.3.@._ ` p.S.O.I           2 2       m   y             ",
"                                          ^ 0.q.@._ 3.B.f.^               6 l     x   2             ",
"                                          ~ %.t.2.^ 0.M.a.!                 j 8   7 6               ",
"                                            ( 3.#.` e.9._ !                   x j 7                 ",
"                                            ~ } @.| h.3.~                       y                   ",
"                                              _ @._ 0.X.I                                           ",
"                                              ! ' _ @.^                                             ",
"                                              ! ^ ~ ^ I                                             ",
"                                                I I I                                               ",
"                                                I I I                                               ",
"                                                  I                                                 ",
"                                                                                                    ",
"                                                                                                    ",
"                                                                                                    ",
"                                                                                                    ",
"                                                                                                    "
};
