/* XPM */
static char *coin1_50x501674431742[] = {
/* columns rows colors chars-per-pixel */
"50 50 175 2 ",
"   c None",
".  c #070A10",
"X  c #0B0D12",
"o  c #0D1018",
"O  c #15141B",
"+  c #1B1D28",
"@  c #29292D",
"#  c #38262C",
"$  c #2D2D3C",
"%  c #3E2D38",
"&  c #313230",
"*  c #791B23",
"=  c #4C2322",
"-  c #44362F",
";  c #432536",
":  c #542C3A",
">  c #433731",
",  c #453A35",
"<  c #483C36",
"1  c #6D242F",
"2  c #7D2329",
"3  c #692C35",
"4  c #732832",
"5  c #6D313C",
"6  c #4B423C",
"7  c #76583D",
"8  c #3C3C4D",
"9  c #422F40",
"0  c #433444",
"q  c #433A4A",
"w  c #4A3A4B",
"e  c #4B3644",
"r  c #5A3B45",
"t  c #553745",
"y  c #653F44",
"u  c #4E4641",
"i  c #4E4A45",
"p  c #4D424D",
"a  c #4B4A4F",
"s  c #504742",
"d  c #524A45",
"f  c #534F4B",
"g  c #5E4742",
"h  c #56514D",
"j  c #555A4D",
"k  c #424353",
"l  c #474758",
"z  c #474859",
"x  c #565652",
"c  c #5C5B56",
"v  c #5E5E5A",
"b  c #784541",
"n  c #6B5851",
"m  c #5C6053",
"M  c #63635C",
"N  c #616657",
"B  c #4D5161",
"V  c #676660",
"C  c #686762",
"Z  c #6C6C63",
"A  c #707167",
"S  c #74776A",
"D  c #76786A",
"F  c #990D13",
"G  c #89181C",
"H  c #9A1216",
"J  c #BD0101",
"K  c #BB0606",
"L  c #AB160E",
"P  c #BC1407",
"I  c #B5140B",
"U  c #BA1609",
"Y  c #A51A13",
"T  c #AC1617",
"R  c #BA1E15",
"E  c #BE2918",
"W  c #831B24",
"Q  c #822328",
"!  c #922222",
"~  c #923F28",
"^  c #C10400",
"/  c #C60A02",
"(  c #CB0E00",
")  c #C10C0C",
"_  c #CE1200",
"`  c #CE1A00",
"'  c #CB160B",
"]  c #D31600",
"[  c #D41A00",
"{  c #D81C00",
"}  c #D11C08",
"|  c #D32201",
" . c #DD2401",
".. c #D72A00",
"X. c #DE2A00",
"o. c #DD2C0B",
"O. c #D5260C",
"+. c #DD3000",
"@. c #DE3C00",
"#. c #C72B18",
"$. c #D12214",
"%. c #E52D01",
"&. c #E92F00",
"*. c #E53201",
"=. c #E93400",
"-. c #E23B04",
";. c #EB3B01",
":. c #E6340B",
">. c #E03010",
",. c #E23C12",
"<. c #B7461C",
"1. c #954228",
"2. c #B74D22",
"3. c #D84206",
"4. c #DC540B",
"5. c #E44404",
"6. c #EB4300",
"7. c #ED4D00",
"8. c #EE4C0C",
"9. c #EC400C",
"0. c #F04900",
"q. c #EE5200",
"w. c #F15401",
"e. c #F15A00",
"r. c #EC6F0E",
"t. c #F46300",
"y. c #F76C01",
"u. c #F56B0B",
"i. c #F2640C",
"p. c #F67401",
"a. c #F97501",
"s. c #F77901",
"d. c #FA7C00",
"f. c #EA701D",
"g. c #F67A1F",
"h. c #E55235",
"j. c #CA622E",
"k. c #E16E2A",
"l. c #F57727",
"z. c #FE8C00",
"x. c #FB840C",
"c. c #FB8500",
"v. c #FC8C13",
"b. c #FE9519",
"n. c #F1812F",
"m. c #ED9A3A",
"M. c #F9933A",
"N. c #838675",
"B. c #858977",
"V. c #878B79",
"C. c #FA9D4C",
"Z. c #FDA34C",
"A. c #FBA353",
"S. c #FEB555",
"D. c #F2A06B",
"F. c #F8BD7C",
"G. c #FFC079",
"H. c #959397",
"J. c #C8AA86",
"K. c #F4A381",
"L. c #FBBE8C",
"P. c #FDCA8F",
"I. c #FDD39A",
"U. c #FED191",
"Y. c #F6CDB9",
"T. c #FDDAB1",
"R. c #C1C0C2",
"E. c #C7C9D0",
"W. c #CBCCD0",
"Q. c #DADBDE",
"!. c #FDE6C5",
"~. c #FFECD2",
"^. c #FCF2E4",
"/. c #FFFFFE",
"(. c #FFFBF4",
/* pixels */
"                                                                                                    ",
"                                                                                                    ",
"                                                                                                    ",
"                                                                                                    ",
"                                                                                                    ",
"                                                                                                    ",
"                                                                                                    ",
"                                                                                                    ",
"                                                                                                    ",
"                                                                                                    ",
"            *.                                                                                      ",
"            7.=.                                                                                    ",
"            s.t.                                                                      *.*.          ",
"          *.a.x.;.                                                                                  ",
"          5.M.P.u.                                J                                                 ",
"        5.p.T.!.u.*.                            J ^ J                             *.    *.*.        ",
"      6.a.S.^.!.v.6.                            J / _                                   =.*.        ",
"      3.m.~./.(.F.4.                          J ] ] { J                                 w.w.*.      ",
"      # 7 J.E.W.H.-                           /  ._ %._                               =.g.b.q.      ",
"      . @ 8 8 8 $ X                           [ 6.` 6.X.^                           ;.l.T.I.v.q.    ",
"        X O O O X                           _ 7.p.[ e.s.`                           f.T././.I.r.    ",
"          m j N                             ] y.q._ e.b.5.^                       = n W.Q.Q.R.g     ",
"                                          ^ @.z.6.] q.U.D.)                         + k l l k +     ",
"            V.                            / 7.z.7. ...A.Y.$.                          O O O O       ",
"            V                           J ( e.y.=. .] u.P.,.^                           & &         ",
"            Z                           ^ =.d.w.&.{ ] ;.v.t.}                                       ",
"            S N.                        ( 6.y.=.[ G L %.u.d.-.)                                     ",
"            c D A                     ) o.;.8.:.I 8 1 } ;.e.8.' K                                   ",
"              Z Z                   4 T T E >.#.1 r r ! %.o.#.T F                       s           ",
"              V V.                v w w w t W 5 b 4.2.t W * w q q p                     c           ",
"              x   V.            A C k 8 k k 8 b k.G.C.2.e l B k 8 a d                 f f           ",
"                x D B.          A     H 3 9 9 y j.Z.n.~ e w w W F   h               f 6             ",
"                  v M       c S Z     } O.U P W y <.~ : Y E R K ^   x s               d             ",
"                    c S N.M m Z       K X.0.=.| * q : L w.y.%.^     u i ,         x                 ",
"                      M M x x           ` 7.w.=.P ; * %.x.y.` K       x u >       6 < -             ",
"                                        J -.p.=. .L P i.F.,.^           < > i <   6                 ",
"                                          ` p.e.%.] X.M.K.$.J             >     ,                   ",
"                                          / q.a.=._ e.P.h.^                                         ",
"                                            | y.6._ e.l.>.^                                         ",
"                                            _ =.%.| z.q./ J                                         ",
"                                              { %.| d.5.^                                           ",
"                                              (  .] ;.|                                             ",
"                                              J ] _ [ ^                                             ",
"                                                ^ ^ ^                                               ",
"                                                J ^ J                                               ",
"                                                  J J                                               ",
"                                                  J                                                 ",
"                                                                                                    ",
"                                                                                                    ",
"                                                                                                    "
};
