/* XPM */
static char *aqac6_loi0z[] = {
/* columns rows colors chars-per-pixel */
"50 50 172 2 ",
"   c None",
".  c #0A090D",
"X  c #15151D",
"o  c #1C1C1A",
"O  c #20201E",
"+  c #1B1A25",
"@  c #1B1C29",
"#  c #1F202E",
"$  c #242321",
"%  c #242332",
"&  c #272837",
"*  c #3C2C3E",
"=  c #791B23",
"-  c #45352E",
";  c #432536",
":  c #542C3A",
">  c #493C35",
",  c #493D36",
"<  c #6D242F",
"1  c #772725",
"2  c #692C35",
"3  c #762832",
"4  c #6D313B",
"5  c #4E433D",
"6  c #7F533C",
"7  c #3A394C",
"8  c #422F40",
"9  c #433444",
"0  c #43394A",
"q  c #4A3A4B",
"w  c #4B3644",
"e  c #5A3B45",
"r  c #553745",
"t  c #653F45",
"y  c #4F4640",
"u  c #4C424E",
"i  c #4F494E",
"p  c #524A44",
"a  c #564F49",
"s  c #58524C",
"d  c #424353",
"f  c #484856",
"g  c #595651",
"h  c #5C5A54",
"j  c #5A5856",
"k  c #784541",
"l  c #64645B",
"z  c #6A6A5F",
"x  c #4D5161",
"c  c #5C5D6C",
"v  c #545565",
"b  c #6D6D62",
"n  c #6F7064",
"m  c #76786B",
"M  c #76766C",
"N  c #606170",
"B  c #7D7E71",
"V  c #990D12",
"C  c #89181C",
"Z  c #9C1215",
"A  c #BF0000",
"S  c #BF0906",
"D  c #AB160E",
"F  c #BC1407",
"G  c #B5140B",
"H  c #BA1609",
"J  c #A51A13",
"K  c #AA1416",
"L  c #B51D18",
"P  c #BE2918",
"I  c #821B24",
"U  c #822328",
"Y  c #922222",
"T  c #923F29",
"R  c #C20300",
"E  c #C60A02",
"W  c #CB0D00",
"Q  c #C40C0B",
"!  c #CE1200",
"~  c #CF1D00",
"^  c #CB140B",
"/  c #D31600",
"(  c #D31A00",
")  c #D81C00",
"_  c #D21B09",
"`  c #D32201",
"'  c #DD2401",
"]  c #D72A00",
"[  c #DE2A00",
"{  c #DD2C0B",
"}  c #D5260C",
"|  c #DD3000",
" . c #DE3C00",
".. c #C72B17",
"X. c #D12214",
"o. c #E52C00",
"O. c #E92F00",
"+. c #E53500",
"@. c #EA3200",
"#. c #E23B04",
"$. c #EB3A02",
"%. c #E6340B",
"&. c #F03F00",
"*. c #E03010",
"=. c #E23C12",
"-. c #A3491D",
";. c #B7461C",
":. c #954228",
">. c #B74D22",
",. c #DB530E",
"<. c #E44504",
"1. c #EB4300",
"2. c #ED4D01",
"3. c #EE4C0C",
"4. c #EC400C",
"5. c #F04900",
"6. c #F34500",
"7. c #ED5100",
"8. c #F25502",
"9. c #F15A01",
"0. c #F66C01",
"q. c #F46708",
"w. c #F67400",
"e. c #F87602",
"r. c #FA7B00",
"t. c #F46712",
"y. c #F46812",
"u. c #E55236",
"i. c #CA622E",
"p. c #E16E2A",
"a. c #F5792D",
"s. c #8A644C",
"d. c #C46C42",
"f. c #7F8272",
"g. c #FE8C00",
"h. c #FC8504",
"j. c #FB8818",
"k. c #FE9A1C",
"l. c #F4822C",
"z. c #FA8F2B",
"x. c #FC982B",
"c. c #FA8E32",
"v. c #F9923A",
"b. c #828574",
"n. c #898D79",
"m. c #FA9D4C",
"M. c #F89E5B",
"N. c #FDA34C",
"B. c #FBA353",
"V. c #F1A06B",
"C. c #FCBC7E",
"Z. c #FFC079",
"A. c #FEC577",
"S. c #7F828E",
"D. c #81828E",
"F. c #F4A381",
"G. c #FBBE8C",
"H. c #D7BDA0",
"J. c #FDC78F",
"K. c #FDC88F",
"L. c #FCCE9C",
"P. c #FED191",
"I. c #F6CDB9",
"U. c #FBDBB6",
"Y. c #DAD5CF",
"T. c #FDE9CD",
"R. c #FDEED8",
"E. c #E4E2E0",
"W. c #FDF4E5",
"Q. c #F0F1F3",
"!. c #FCFCFC",
"~. c #FDFAF5",
/* pixels */
"                                                                                                    ",
"                                                                                                    ",
"                                                                                                    ",
"                                                                                                    ",
"                                                                                                    ",
"                                                                                                    ",
"                                                                                                    ",
"                                                                                                    ",
"                                                                                                    ",
"                                                                                                    ",
"                                                                                                    ",
"                                                                                                    ",
"                                                                                                    ",
"                                                                                      @.@.          ",
"            @.1.                                  A                                     @.          ",
"            8.r.                                A A A                                     @.        ",
"          $.M.j.$.                              R E W                                     8.2.      ",
"          9.U.L.e.                            R / ! ) R                                 y.C.z.      ",
"        &.l.T.R.c.6.                          E ' ! o.W                               t.J.W.x.1.    ",
"        d.U.!.!.H.-.                          ) 1./ 1.| R                           t.J.!.~.A.0.    ",
"      X f S.D.D.c @                         W 2.w.( 9.e.!                         1 s.E.Q.Q.Y.6     ",
"        X % % % +                           / 0.2.! 9.k.<.R                         & c N N v #     ",
"          O o $                           R  .g.1./ 7.P.V.Q                         . + + + +       ",
"              n.                          E 2.g.2.' ] B.I.X.                          o $ $         ",
"            n.                          A W 9.0.$.' / y.G.=.R                           h           ",
"            b.                          R +.r.8.O.) / $.j.0._                                       ",
"            h                           ! 1.0.@.` C J o.0.r.#.^                                     ",
"            m b.                      Q { 4.3.%.G * < } $.8.3._ R                       >           ",
"            l f.                    3 K L P %...2 e e Y ' { P K Z                       g           ",
"              m b                 h d q q r C 4 k ,.>.r C 1 u 0 0 u                   g a           ",
"              l m                 M f 0 d d 7 k p.Z.m.;.w d x 0 7 i p                 5             ",
"              h   n.            B m   Z 2 9 8 t i.N.l.:.w q q I V   s                 p             ",
"                g b.            b     _ } H G U t ;.T : J P L S R   5 s 5         h                 ",
"                g b           n.l       ' 5.@.` = 9 : D 7.0.' E     y a           g 5 -             ",
"                    b       n m l       ! 7.8.O.F ; = [ h.0./ A         g 5 y     p >               ",
"                    g z n.l g l         R #.0.$.' D F q.C.=.R             > , a p                   ",
"                      l     g             ~ w.8.o.) [ v.F.X.A                 >                     ",
"                                          E 7.e.+.! 9.K.u.R                                         ",
"                                            ' 0.1.! 9.a.*.R                                         ",
"                                            W +.o.] h.7.W A                                         ",
"                                              ) o.` r.<.R                                           ",
"                                              W ' ! 1.`                                             ",
"                                              R ) ! ) R                                             ",
"                                                R R R                                               ",
"                                                A A A                                               ",
"                                                  A A                                               ",
"                                                  A                                                 ",
"                                                                                                    ",
"                                                                                                    ",
"                                                                                                    "
};
