/* XPM */
static char *coin2_50x501674431045[] = {
/* columns rows colors chars-per-pixel */
"50 50 174 2 ",
"   c None",
".  c #0C0E16",
"X  c #111116",
"o  c #11131C",
"O  c #181722",
"+  c #171822",
"@  c #2A1A20",
"#  c #2F2E3A",
"$  c #3B283B",
"%  c #393D35",
"&  c #6A1A26",
"*  c #771922",
"=  c #5E2A29",
"-  c #44352F",
";  c #402638",
":  c #433630",
">  c #493F39",
",  c #453832",
"<  c #54313E",
"1  c #6E242F",
"2  c #7A2227",
"3  c #64392D",
"4  c #6F2B34",
"5  c #792D34",
"6  c #6A303B",
"7  c #41433E",
"8  c #4B423D",
"9  c #353546",
"0  c #3C3C4D",
"q  c #3A374A",
"w  c #383D50",
"e  c #4B3342",
"r  c #453E45",
"t  c #443B4C",
"y  c #483948",
"u  c #593442",
"i  c #583946",
"p  c #653E42",
"a  c #3F4556",
"s  c #4D4642",
"d  c #4E4944",
"f  c #4A4947",
"g  c #524B46",
"h  c #514C4D",
"j  c #54514D",
"k  c #58514C",
"l  c #4C4352",
"z  c #474A5A",
"x  c #414352",
"c  c #504D57",
"v  c #565652",
"b  c #5B5A58",
"n  c #6B4447",
"m  c #744644",
"M  c #62635B",
"N  c #67685F",
"B  c #4C5060",
"V  c #515263",
"C  c #6B6C62",
"Z  c #646562",
"A  c #737569",
"S  c #77796D",
"D  c #7A7D6E",
"F  c #707165",
"G  c #797C71",
"H  c #881B1E",
"J  c #9C1513",
"K  c #921717",
"L  c #AB0A0D",
"P  c #BD0101",
"I  c #B80C0D",
"U  c #A7140E",
"Y  c #B6150A",
"T  c #BC120B",
"R  c #AD1D19",
"E  c #96221F",
"W  c #A4221C",
"Q  c #831C24",
"!  c #A22222",
"~  c #C20500",
"^  c #C60B01",
"/  c #C90C00",
"(  c #CE1201",
")  c #C3120D",
"_  c #C8180D",
"`  c #D11400",
"'  c #D41C01",
"]  c #DA1E00",
"[  c #CC1D12",
"{  c #CD240E",
"}  c #D42401",
"|  c #DB2200",
" . c #D42A0E",
".. c #D92C00",
"X. c #DC3301",
"o. c #DD3209",
"O. c #C02C11",
"+. c #D72712",
"@. c #DD3215",
"#. c #E42C01",
"$. c #E92F00",
"%. c #E12B06",
"&. c #E53102",
"*. c #E93400",
"=. c #E63901",
"-. c #EC3C00",
";. c #E7350B",
":. c #E23A1A",
">. c #AD471F",
",. c #9F482B",
"<. c #91542A",
"1. c #C24515",
"2. c #D65316",
"3. c #E64302",
"4. c #EB4301",
"5. c #ED4B02",
"6. c #E74A0D",
"7. c #F04D00",
"8. c #EE5401",
"9. c #EE5805",
"0. c #F15400",
"q. c #F25A00",
"w. c #D96716",
"e. c #EC6404",
"r. c #F36204",
"t. c #F66A00",
"y. c #F86F00",
"u. c #F3660B",
"i. c #F97401",
"p. c #FA7B00",
"a. c #F77608",
"s. c #F36C1A",
"d. c #F77515",
"f. c #E75C3F",
"g. c #D7672B",
"h. c #F26722",
"j. c #F67B26",
"k. c #7D806F",
"l. c #7E8171",
"z. c #FC8302",
"x. c #FF8F00",
"c. c #FE910A",
"v. c #FB8D1C",
"b. c #FD9712",
"n. c #F98526",
"m. c #FB932A",
"M. c #F48B3A",
"N. c #828575",
"B. c #8A8D7A",
"V. c #858977",
"C. c #F08C4B",
"Z. c #F89448",
"A. c #FDAB55",
"S. c #FDB75D",
"D. c #E4AB61",
"F. c #FBAD63",
"G. c #FCB66F",
"H. c #F7A672",
"J. c #FFBB71",
"K. c #FFC87E",
"L. c #B29A80",
"P. c #A9A8AC",
"I. c #F7B692",
"U. c #FDC785",
"Y. c #FAC59C",
"T. c #FED79F",
"R. c #F5CBB9",
"E. c #FADDBA",
"W. c #FFE0B8",
"Q. c #BABCC2",
"!. c #E3DFDB",
"~. c #E6E1DB",
"^. c #FFF5E5",
"/. c white",
/* pixels */
"                                                                                                    ",
"                                                                                                    ",
"                                                                                                    ",
"                                                                                                    ",
"                                                                                                    ",
"                                                                                                    ",
"                                                                                                    ",
"                                                                                                    ",
"                                                                                                    ",
"                                                                                                    ",
"              &.                                                                                    ",
"              &.                                                                      &.&.          ",
"            =.5.*.                                                                                  ",
"            4.d.4.                                P                                                 ",
"          &.d.U.u.$.&.                          P P P                             &.                ",
"        &.4.v.T.a.5.                            P ~ /                                   &.          ",
"      o.3.z.K.W.b.e.                          P ( ( ' P                                 *.          ",
"      = <.D.~.~.L.3                           ^ ] ( #./                                 =.*.        ",
"      . # c V V 0 o                           ` =.( -.} ~                               h.s.        ",
"        . O + + o                           ^ 3.i.' q.t.(                             -.H.A.4.      ",
"          7 % s                             ( t.q.( q.c.X.P                         4.i.K.E.j.*.    ",
"                                          ~ X.z.4.( q.K.C.^                         w.S.^./.E.w.    ",
"            B.                            / 5.x.5.| X.G.R.[                       @ h P.Q.Q.P.q     ",
"            F                             ^ 8.i.-.| ` d.Y.@.P                       O 9 9 9 9 o     ",
"            l.V.                        ~ ..i.q.*.] ` 5.m.r.(                         X X . .       ",
"            N.                          / 4.y.*.| U Y $.y.p.o.)                         s s         ",
"              D S                     P ] -.0.$.T $ * | -.r.6._                                     ",
"                D                     I _ { ;. .2 y u W #.*. .) L                                   ",
"              C B.                Z l u u 6 R 5 p 1.,.< J E p i < f                                 ",
"              b   B.            F G a a z z y n g.A.M.,.e t B a 0 l g                   k           ",
"                  C l.        N N.    Q < f q m g.G.Z.>.y w l 1 *   k                   v           ",
"                    N     M A M A     ( R J J 5 m 2.>.< H ! ! I ~   j 8               d j           ",
"                      G   C k.        ) ..-.#.{ 4 i e K 3.u.;.)     g d             g s             ",
"                                        ' 0.5.$.Y $ & | p.i.' P       v s         v   s ,           ",
"                                        ~ =.y.*.' K U 9.F.6.^           > , d     v   ,             ",
"                                          } p.8.$.] | n.I.+.P             ,       j > -             ",
"                                          ^ 0.y.&.` 8.U.f.~                 g v h 8                 ",
"                                          ^ X.i.4./ q.Z.:.P                     8                   ",
"                                            ( -.*.} p.8.( P                                         ",
"                                              | #.} z.5.~                                           ",
"                                              ( #.( 5.} P                                           ",
"                                              P ' ` | ^                                             ",
"                                                ~ ~ ~ P                                             ",
"                                                P ~ P                                               ",
"                                                  P P                                               ",
"                                                  P                                                 ",
"                                                                                                    ",
"                                                                                                    ",
"                                                                                                    ",
"                                                                                                    "
};
