/* XPM */
static char *coin3_50x501674430227[] = {
/* columns rows colors chars-per-pixel */
"50 50 174 2 ",
"   c None",
".  c #0C0C0E",
"X  c #0D0E14",
"o  c #0F1118",
"O  c #141415",
"+  c #15141D",
"@  c #1C1B27",
"#  c #131722",
"$  c #201F2D",
"%  c #22212F",
"&  c #2C302A",
"*  c #33362F",
"=  c #252433",
"-  c #282A38",
";  c #3B283B",
":  c #393C35",
">  c #7E161F",
",  c #6A1A26",
"<  c #711A24",
"1  c #402638",
"2  c #423732",
"3  c #423935",
"4  c #493E38",
"5  c #54313E",
"6  c #6E242F",
"7  c #7A2227",
"8  c #783F29",
"9  c #6F2B34",
"0  c #792D34",
"q  c #6A303B",
"w  c #4C423D",
"e  c #3D3B4D",
"r  c #363647",
"t  c #383E50",
"y  c #4B3342",
"u  c #443B4C",
"i  c #483948",
"p  c #593442",
"a  c #583946",
"s  c #653E42",
"d  c #3F4556",
"f  c #474047",
"g  c #4D4641",
"h  c #4D464B",
"j  c #514D49",
"k  c #504A45",
"l  c #56514D",
"z  c #58514D",
"x  c #474959",
"c  c #454353",
"v  c #565551",
"b  c #5A5A55",
"n  c #5C5C5A",
"m  c #6B4447",
"M  c #744644",
"N  c #64645C",
"B  c #67695F",
"V  c #68685F",
"C  c #4C5060",
"Z  c #5F616F",
"A  c #5F6171",
"S  c #6A6B63",
"D  c #6F7065",
"F  c #7A7D6E",
"G  c #747669",
"H  c #606270",
"J  c #7A7D71",
"K  c #881B1E",
"L  c #9C1513",
"P  c #921717",
"I  c #AB090D",
"U  c #BD0101",
"Y  c #B80C0D",
"T  c #A7140E",
"R  c #B6150A",
"E  c #BC120B",
"W  c #AD1D19",
"Q  c #96221F",
"!  c #A4221C",
"~  c #811C24",
"^  c #842129",
"/  c #A22222",
"(  c #C30500",
")  c #C50A01",
"_  c #C90B00",
"`  c #CE1201",
"'  c #C2120E",
"]  c #C8180D",
"[  c #D11400",
"{  c #D41C01",
"}  c #DA1E00",
"|  c #CC1D12",
" . c #CD240E",
".. c #D42401",
"X. c #DB2200",
"o. c #D42A0E",
"O. c #D92C00",
"+. c #DC3401",
"@. c #DD3209",
"#. c #C02C11",
"$. c #D72712",
"%. c #DD3215",
"&. c #E42B01",
"*. c #E92F00",
"=. c #E12B06",
"-. c #E53102",
";. c #E93200",
":. c #E63A00",
">. c #EB3C00",
",. c #E7350B",
"<. c #E23A1A",
"1. c #AD471F",
"2. c #9F482B",
"3. c #AA5B26",
"4. c #C24515",
"5. c #D65316",
"6. c #E64302",
"7. c #E94200",
"8. c #ED4B01",
"9. c #E9460C",
"0. c #F04C00",
"q. c #EE5402",
"w. c #EF5904",
"e. c #ED5609",
"r. c #F15400",
"t. c #F25B02",
"y. c #F05909",
"u. c #F36305",
"i. c #F66A00",
"p. c #F86F00",
"a. c #F3650B",
"s. c #F97401",
"d. c #FA7B00",
"f. c #F47100",
"g. c #F77511",
"h. c #E75C3F",
"j. c #D7672B",
"k. c #F67E2B",
"l. c #B27241",
"z. c #A66F59",
"x. c #7D8070",
"c. c #FC8302",
"v. c #FF8F00",
"b. c #FE910A",
"n. c #F98526",
"m. c #FB932A",
"M. c #F48B3A",
"N. c #868A77",
"B. c #858A77",
"V. c #8C917D",
"C. c #F08C4B",
"Z. c #F99644",
"A. c #F99747",
"S. c #FDA852",
"D. c #FBAD63",
"F. c #FBB36C",
"G. c #ECBC7D",
"H. c #FCB677",
"J. c #FFC97F",
"K. c #747684",
"L. c #81828E",
"P. c #F7B692",
"I. c #C0B3A5",
"U. c #FDC785",
"Y. c #FAC59C",
"T. c #FDD7A7",
"R. c #F5CBB9",
"E. c #EEDEC9",
"W. c #FDE3C2",
"Q. c #FDF0DC",
"!. c #F2ECE3",
"~. c #FDF4E8",
"^. c #EFF0F3",
"/. c #F8F7F6",
/* pixels */
"                                                                                                    ",
"                                                                                                    ",
"                                                                                                    ",
"                                                                                                    ",
"                                                                                                    ",
"                                                                                                    ",
"                                                                                                    ",
"                                                                                                    ",
"                                                                                                    ",
"                                                                                                    ",
"                                                                                                    ",
"                                                                                                    ",
"                                                                                                    ",
"                                                  U                                                 ",
"            -.                                  U U U                                   -.          ",
"        -.  -.;.                                U ( _                                   -.          ",
"            >.y.                              U ` ` { U                           -.    y.q.        ",
"          >.k.H.9.                            ( } [ &._                           -.  w.F.Z.8.      ",
"          t.T.W.u.                            { :.` >...(                           y.F.~.U.c.7.    ",
"        8.Z.Q.~.A.8.                        _ 6.f.{ t.i.`                           l.!././.G.3.    ",
"        z.E.^.^.I.8                         ` i.w.` t.b.+.U                         r K.L.L.K.-     ",
"      o r H A H x #                       U +.c.7.[ q.U.C.)                         X % = = $ X     ",
"        o @ @ @ +                         _ 8.v.8.X.+.F.R.|                           O O O X       ",
"          * & :                           _ q.s.>.X.{ g.Y.%.U                           v           ",
"              V.                        ( O.d.t.;.X.[ 0.m.y.[                                       ",
"            V.                          _ >.p.;.X.T R *.p.d.@.'                                     ",
"            G                         U } >.y.;.E 1 < X.>.u.8.|                                     ",
"            b                       ^ Y ]  .,.o.7 i p ! &.-.o.' I                       l           ",
"            F N.                  n c p a q W ^ m 4.2.5 L Q a p 5 i                   n j           ",
"            N J                   S d d x x u m j.S.M.2.y u C x d i w                 z z           ",
"              D S               J J   ~ 5 r r M j.F.Z.1.i e c 6 <   z               n v             ",
"              N J N.            J     ` #.L L 0 M 5.1.5 ~ ! / Y (   b             n                 ",
"                  N.            D     ' =.>.&. .9 a 5 P 6.a.@.)     g z w         b g 2             ",
"                  x.        b B.N.      { w.0.*.R ; , X.d.s.{ Y     g j   :     j j 4               ",
"                  S F   D N b D         U :.i.-...P T y.D.9._           k 3 3 k w                   ",
"                    B G     v             O.d.q.*.{ X.n.P.$.U               3 4                     ",
"                      S N.                _ r.p.-.` q.U.h.(                                         ",
"                                          ( +.s.7._ t.A.<.U                                         ",
"                                            ` >.;...d.q.` U                                         ",
"                                              X.&...c.8.(                                           ",
"                                              ` O.` 8.O.U                                           ",
"                                              U } ` X.(                                             ",
"                                                ( ( _ U                                             ",
"                                                U ( U                                               ",
"                                                  U U                                               ",
"                                                  U                                                 ",
"                                                                                                    ",
"                                                                                                    ",
"                                                                                                    ",
"                                                                                                    "
};
