/* XPM */
static char *ag09s_3ljbt[] = {
/* columns rows colors chars-per-pixel */
"50 50 168 2 ",
"   c None",
".  c #09080C",
"X  c #100F0F",
"o  c #0C0D13",
"O  c #1B1B1A",
"+  c gray8",
"@  c #1F201E",
"#  c #1E1D29",
"$  c #181823",
"%  c #21202D",
"&  c #292738",
"*  c #2B2B3B",
"=  c #242534",
"-  c #7F151D",
";  c #5F1D2A",
":  c #761D27",
">  c #5E222F",
",  c #45362F",
"<  c #4D2C3B",
"1  c #5D2432",
"2  c #552F3B",
"3  c #592B39",
"4  c #453730",
"5  c #493C36",
"6  c #4B3F39",
"7  c #6B222C",
"8  c #652432",
"9  c #692934",
"0  c #6C2D39",
"q  c #6B3B3C",
"w  c #703E3B",
"e  c #4D443E",
"r  c #50433D",
"t  c #70413F",
"y  c #382F42",
"u  c #3B3A47",
"i  c #453A47",
"p  c #553644",
"a  c #613C47",
"s  c #3D4355",
"d  c #3E4759",
"f  c #4D404E",
"g  c #4F4640",
"h  c #504741",
"j  c #534B46",
"k  c #514949",
"l  c #55514C",
"z  c #5A554F",
"x  c #414455",
"c  c #4A4B5B",
"v  c #585651",
"b  c #5C5A55",
"n  c #5F5D58",
"m  c #575450",
"M  c #605D58",
"N  c #65645E",
"B  c #6F6F65",
"V  c #6F7064",
"C  c #717266",
"Z  c #75756B",
"A  c #6A6B79",
"S  c #646573",
"D  c #83161C",
"F  c #89171A",
"G  c #991615",
"H  c #BE0000",
"J  c #A31614",
"K  c #BD1610",
"L  c #A6231D",
"P  c #A4301B",
"I  c #831D25",
"U  c #8D2722",
"Y  c #91312A",
"T  c #823B32",
"R  c #A32725",
"E  c #C20300",
"W  c #C60901",
"Q  c #CA0C01",
"!  c #C40C08",
"~  c #CD1201",
"^  c #C71B05",
"/  c #C81A05",
"(  c #CB160C",
")  c #D21500",
"_  c #D31A00",
"`  c #D41D07",
"'  c #C52308",
"]  c #D32200",
"[  c #DB2201",
"{  c #DB2803",
"}  c #D42B00",
"|  c #DD3903",
" . c #C72311",
".. c #D72A14",
"X. c #DD3215",
"o. c #E02600",
"O. c #E32B01",
"+. c #EA3200",
"@. c #E53A02",
"#. c #EB3B00",
"$. c #E93708",
"%. c #E53106",
"&. c #AA4A1B",
"*. c #9D482C",
"=. c #8D4438",
"-. c #975B36",
";. c #A55134",
":. c #C55219",
">. c #E54400",
",. c #EB4400",
"<. c #ED4A00",
"1. c #E7480E",
"2. c #F24700",
"3. c #EE5000",
"4. c #F25401",
"5. c #F25C00",
"6. c #F25E0B",
"7. c #F46502",
"8. c #F66C01",
"9. c #F5600B",
"0. c #F87401",
"q. c #FA7B01",
"w. c #FA7A0E",
"e. c #EB601A",
"r. c #F26A12",
"t. c #F57213",
"y. c #F5771A",
"u. c #E4492B",
"i. c #DA6521",
"p. c #EB7121",
"a. c #834941",
"s. c #A06C46",
"d. c #8F7C6A",
"f. c #7E8170",
"g. c #FC8400",
"h. c #FE8D00",
"j. c #FF9302",
"k. c #F9892C",
"l. c #FD9829",
"z. c #FFA637",
"x. c #838575",
"c. c #898D7A",
"v. c #858876",
"b. c #8D917C",
"n. c #E09E4E",
"m. c #FEAD46",
"M. c #EE8060",
"N. c #FCAD62",
"B. c #FEBC64",
"V. c #FBBB7B",
"C. c #FEC16D",
"Z. c #727380",
"A. c #8F9380",
"S. c #8F919D",
"D. c #91929D",
"F. c #F3BB9B",
"G. c #FDCA96",
"H. c #FED095",
"J. c #F9CBAF",
"K. c #FDDBAC",
"L. c #FDDFB5",
"P. c #E4DCD1",
"I. c #FEEDD6",
"U. c #FFF1DE",
"Y. c #EDE9E4",
"T. c #FDF5EA",
"R. c #F8F9FA",
"E. c #FDF9F4",
/* pixels */
"                                                                                                    ",
"                                                                                                    ",
"                                                                                                    ",
"                                                                                                    ",
"                                                                                                    ",
"                                                                                                    ",
"              +.                                                                                    ",
"              +.                                                                                    ",
"                                                                                                    ",
"              +.                                                                                    ",
"            #.+.                                                                                    ",
"            0.4.                                  H                                                 ",
"          0.j.q.#.+.+.                            H H                                               ",
"          7.C.l.5.                              H E E                                               ",
"        #.8.L.K.0.2.                            W Q )                                               ",
"      P :.z.I.U.n.&.                          E _ ) [ W                                             ",
"      $ r d.S.D.A %                           ~ o.~ +.) H                                           ",
"        $ & & & #                             { 5._ <.<.W                                           ",
"          O O @                             ~ 5.8._ 5.g.] H                               +.        ",
"          x.  x.                            ] q.,.~ 5.m.e.W                             3.,.        ",
"            c.                            W >.h.<._ >.H.F.(                             7.q.<.      ",
"            f.                            W 3.g.,.[ _ k.J...H                         6.V.B.0.+.    ",
"            B                           E _ 7.5.+.[ ) 6.N.1.W                       9.V.E.T.N.4.    ",
"            V x.                        E @.q.,.O.~ ~ +.q.0._ H                     s.Y.R.R.P.-.    ",
"            v   v.                    H _ ,.7.+.^ ; F o.4.q.,.Q                   o * A Z.Z.S =     ",
"              x.C                     E _ O.#.o.G y > / +.#.$.( E                   o # % % # .     ",
"              C c.                  2 - D G _ J 2 T q 7 / ' U I : i                   + O O X       ",
"              n   A.              b x s x f 9 p *.t.i.t 1 3 x x u u                     M b         ",
"                  b.              v.f p c c d a.p.H.N.:.i s c p < k j                               ",
"                n C             x.    K Y 9 8 a ;.y.i.w 1 8 0 J H   z                               ",
"                  b V           B     ( O.[ _ L a =.q 7 ' | ..!     j r                             ",
"                      Z Z n C   v.      { 5.#.%.R i 1 ^ 8.w.X.!     l l 5               M           ",
"                        N   n           Q ,.7.$. .> F @.l.r.`         n h             l j           ",
"                          v               | 0.,.O.~ ~ t.G.X.E         m e 4           6 h           ",
"                                          ~ 7.5.O._ >.N.M.~             , ,         l e             ",
"                                          W ,.q.#.Q 5.V.u.E               ,       v                 ",
"                                            _ 5.#._ 8.6.[ E               4 j     v e ,             ",
"                                            Q o.O.} h.3.W                   j 5   j 5               ",
"                                              _ o._ 7.| E                     l g 5                 ",
"                                              W [ ) +.~                         5                   ",
"                                              E ~ Q ~ E                                             ",
"                                                H H H                                               ",
"                                                H H H                                               ",
"                                                  H                                                 ",
"                                                                                                    ",
"                                                                                                    ",
"                                                                                                    ",
"                                                                                                    ",
"                                                                                                    ",
"                                                                                                    "
};
