/* XPM */
static char *_3bb47d4c226475ee291d5740e69e87dsy8M5zUJzZAsCytl[] = {
/* columns rows colors chars-per-pixel */
"50 50 223 2 ",
"   c None",
".  c #010101",
"X  c #0B0203",
"o  c #0B0B0B",
"O  c #070B0F",
"+  c #120202",
"@  c #1D0103",
"#  c #140D0E",
"$  c #1D0D0E",
"%  c #0F0F15",
"&  c #140E12",
"*  c #0E1110",
"=  c #0D141C",
"-  c #141314",
";  c #1D1516",
":  c #13141C",
">  c #1C141C",
",  c #1B1B1B",
"<  c #230002",
"1  c #2C0002",
"2  c #23070A",
"3  c #29090B",
"4  c #340003",
"5  c #3B0104",
"6  c #3B0C0E",
"7  c #3C0609",
"8  c #2D0E14",
"9  c #230E15",
"0  c #310D14",
"q  c #3D0D14",
"w  c #21141C",
"e  c #2B141B",
"r  c #23191A",
"t  c #2B1C1C",
"y  c #281113",
"u  c #34131B",
"i  c #3B141D",
"p  c #3B1E1C",
"a  c #361516",
"s  c #37251E",
"d  c #0F1620",
"f  c #121721",
"g  c #151A25",
"h  c #1B1B25",
"j  c #151D29",
"k  c #1A1E2B",
"l  c #2A1721",
"z  c #231A24",
"x  c #2C1A24",
"c  c #241D29",
"v  c #2A1D29",
"b  c #221620",
"n  c #3B1620",
"m  c #321B23",
"M  c #3D1A23",
"N  c #321D2A",
"B  c #16212D",
"V  c #1B212D",
"C  c #0E2637",
"Z  c #1C2432",
"A  c #1A2A3C",
"S  c #192536",
"D  c #22222D",
"F  c #2B262A",
"G  c #372629",
"H  c #222432",
"J  c #2B2432",
"K  c #212837",
"L  c #2A2A33",
"P  c #242B38",
"I  c #2B2D3B",
"U  c #26273A",
"Y  c #332533",
"T  c #392935",
"R  c #36333B",
"E  c #363533",
"W  c #400004",
"Q  c #4E0004",
"!  c #490408",
"~  c #46090C",
"^  c #5B0005",
"/  c #54050A",
"(  c #5B0409",
")  c #580608",
"_  c #58130E",
"`  c #4C0D15",
"'  c #5E0D14",
"]  c #590E17",
"[  c #45131C",
"{  c #4B131B",
"}  c #481B18",
"|  c #5E1213",
" . c #52121C",
".. c #591516",
"X. c #630106",
"o. c #6A0005",
"O. c #6D090D",
"+. c #64070A",
"@. c #760106",
"#. c #7B0106",
"$. c #7C050D",
"%. c #76080E",
"&. c #630D14",
"*. c #6D0A12",
"=. c #730911",
"-. c #7A0A12",
";. c #62191A",
":. c #671419",
">. c #7B131C",
",. c #7A1A1F",
"<. c #6A160D",
"1. c #43271D",
"2. c #5C361E",
"3. c #6A261C",
"4. c #742210",
"5. c #743715",
"6. c #4C1C21",
"7. c #441822",
"8. c #561A28",
"9. c #4E1E30",
"0. c #561F30",
"q. c #671B26",
"w. c #781825",
"e. c #432025",
"r. c #492825",
"t. c #592928",
"y. c #593627",
"u. c #462736",
"i. c #5D2032",
"p. c #4D3438",
"a. c #7D2735",
"s. c #64232D",
"d. c #664332",
"f. c #7D623E",
"g. c #1B3044",
"h. c #202E44",
"j. c #2F3340",
"k. c #323845",
"l. c #433842",
"z. c #8B0206",
"x. c #85060E",
"c. c #8C040B",
"v. c #840908",
"b. c #940107",
"n. c #9B0007",
"m. c #93040A",
"M. c #9B030A",
"N. c #960A08",
"B. c #9E0909",
"V. c #98190D",
"C. c #8B0F1B",
"Z. c #880811",
"A. c #9A0B13",
"S. c #831616",
"D. c #9C151C",
"F. c #9A151A",
"G. c #84180E",
"H. c #A50107",
"J. c #AC0007",
"K. c #A50209",
"L. c #AC0209",
"P. c #B20007",
"I. c #B10108",
"U. c #B0090F",
"Y. c #A7180C",
"T. c #B21B0F",
"R. c #B91B0E",
"E. c #AC0C12",
"W. c #B40C13",
"Q. c #A71218",
"!. c #B5131A",
"~. c #B7141A",
"^. c #8A2A0A",
"/. c #8F3A11",
"(. c #A4250B",
"). c #A52F10",
"_. c #A7291D",
"`. c #B32411",
"'. c #B9280F",
"]. c #801321",
"[. c #AC1A21",
"{. c #B71E23",
"}. c #8A2D28",
"|. c #B02922",
" X c #C2380F",
".X c #C12E1D",
"XX c #9A420B",
"oX c #905014",
"OX c #8D5113",
"+X c #A8400D",
"@X c #AA4A14",
"#X c #A45B13",
"$X c #9E6D1C",
"%X c #A06E1B",
"&X c #B46812",
"*X c #905131",
"=X c #936023",
"-X c #9C703E",
";X c #A77835",
":X c #C85D12",
">X c #D94C18",
",X c #C86812",
"<X c #CA4B28",
"1X c #C05B21",
"2X c #D35132",
"3X c #DD6133",
"4X c #C66835",
"5X c #E67D35",
"6X c #966846",
"7X c #9B724E",
"8X c #8D6247",
"9X c #A46244",
"0X c #DF704D",
"qX c #F19436",
"wX c #CF8441",
"eX c #DC8D47",
"rX c #CD9249",
"tX c #D7964A",
"yX c #DA9052",
"uX c #F3994E",
"iX c #ED8941",
"pX c #F6A159",
"aX c #DD9D61",
/* pixels */
"                                                                                                    ",
"                                                                                                    ",
"                                                                                                    ",
"                                                                                                    ",
"                                                                                                    ",
"                                                                                                    ",
"                                        %X                $X                                        ",
"                                      wX;X                ;XtX                                      ",
"                            8X      @X<X                    <X@X      8X                            ",
"                          =XtX      `.R.                  4.T.`.      rX=X                          ",
"                          aXtX    +.V.v.! XX            /.~ v.V.'     rXyX                          ",
"                        9XpXqX*X  3 6 q y a % 8 e e e - a > 8 6 2   ^.qXpX*X                        ",
"                        eXuX2Xw.L m G y.k f h h f : f h - z V > t : O..XiXeX                        ",
"                      7XuX3XD.[ V E d.r.j j Z Z S C C C V B g , m f q m.>XqX6X                      ",
"                      4X0X|.&.D L k.2.j C h.0.C.C.w.0.u.h.S D D V g k X.Y.3X1X                      ",
"                      _.Q.-.e.I p.j.A e.].A.I.P.I.J.I.I.L.].u.A j h h 0 #.H.Y.                      ",
"                      ) / 8 h j S g.i.L.J.H.z.o.X.^ o.b.J.P.J.w.U k h : e / )                       ",
"                    t F : f Z d A a.{.E.z.Q @ X . . . 1 ^ #.J.J.C.I Z f j h - =                     ",
"                    7X*XB V A U }.{.[.F.%.5 X . . . . X X X ( K.P.q.A J v *XF Z       5.            ",
"          #XoX    V /.p.H V U }.{.Q.m.-.[ o . . . . . 4 4 . X ^ K.L.8.Z h /.s B g     OX#X          ",
"          &X&X    k 7.L H f T [.E.m.^ @ ; 3 X . . . . X 1 4 X X o.J.K.N g t.y.G B     &X&X          ",
"          ,X,X    g k K k B 0.I.K.@.+ X ` a - o . . . . . < 4 . @ n.P.8.V G t.s.D     ,X,X          ",
"          :X'.    Z k h y.J >.I.b.^ o w 3.; o % o . . . . . < . . o.J.q.L F r.G H     '.,X          ",
"          (.B.o.  g k Z e.n K.H.#.5 * t ' # ; , - + . . . . . . . W J.A.Z Z u k j   o.B.(.          ",
"          #.c.(   k k g k h c.M.Q 5 o , 7 X * - 2 $ - . . . . . . @ n.Z.k V V k Z   / z.#.          ",
"          ! @.!   V K j Z } z.n.1 @ . o * o . . # r , . . . . . . @ n.z.} V j K j d ~ #.!           ",
"          % 0 $ O f J f p +XN.n.< . . . . X . . , , X . * @ . . . < n.N.+Xp f K j = > e :           ",
"            % > j j V w ). XN.J.5 . . . . . . - , - O - ; ~ + o o 5 H.N. X).; V g j > =             ",
"            z l Z V j 0 (.(.m.I.X.. . . . . . , , - * o # ' y # - X.P.b.(.(.0 j c v x j             ",
"            g k g k j w X.( c.J.b.@ . . . . X O . . X . 3 } , o @ b.L.8./ +.b c k h k j             ",
"              V V k B b _ t ` #.H.o.X . . . . . . . o - M r o . X.H.&.S > 9 e { j V Z               ",
"              j H h Y B 2.1.p ^.J.H.@.Q 4 < . . . . , , * . o | Q.E.^.s f j c J h H k               ",
"              B G [ K k 2.G ../.>.I.K.o.< X . . . . o # + 6 w.{.~.Q._.3.k D k A ` F B               ",
"              j M G.h j e.e.:.G.c w.L.K.@.4 + . . . X 1 ^ D.~.!.D.t.}.8.j v g h G.n j               ",
"                a T.;.V V l ; 8 g H <.H.P.H.z.o.^ ^ X.z.K.{.F.&.Y P p z D V V :.T.a                 ",
"                a Y.T.6.B V V V g 1.} i -.J.I.I.I.I.J.I.J.>.Y { e.B G E k.I } T.Y.a                 ",
"                2 @.c.+.f t T J f | / j l $.M.J.J.I.M.x.O.l k .._ g 7X7XI D *.c.@.2                 ",
"              c u ^ X.q j D H f f 0 u j h $.L.J.I.I.L.H.$.h f u 0 V y.*XP H r.:./ u z               ",
"            x ' m.b.) c j U k V K f g k Z ` J.I.J.J.I.I.` j g g g R l.T k.R R ;.m.M.&.v             ",
"        k n x.J.J.J.J.=.e k k K k Z Z g j u K.I.I.I.I.H.u f k Z Z V L V P u.,.L.W.!.L.x.7.k         ",
"        c =.I.I.U.J.I.I.K.%.` u b Z k T j u K.J.J.J.I.H.u Z Z k Z b 8 8.].[.!.!.!.!.I.I.-.m         ",
"        l 7.M.J.I.P.I.I.I.I.J.H.c.O.` c g [ L.I.I.I.J.J.[ Z h ` O.c.K.I.~.W.U.I.I.I.J.M.7.i         ",
"        z M 7.] =.$.#.c.m.m.M.K.J.I.H.z.O.m.I.L.I.I.I.I.M.*.x.J.I.J.K.m.m.m.x.x.$.*.] 7.7.l         ",
"            k z l i z v n   { ' *.=.*.-.-.x.x.b.m.m.c.-.-.-.-.&.&. .7.M M r.c l z k n q             ",
"                                  i M V c n 3.;.m v n n D m V c v k c z w                           ",
"                                                                                                    ",
"                                                                                                    ",
"                                                                                                    ",
"                                                                                                    ",
"                                                                                                    "
};
