/* XPM */
static char *_a8b6ca1d1fe4b79ffb4338b5b059883Ei8qzzxODNzWH7Rg[] = {
/* columns rows colors chars-per-pixel */
"50 50 227 2 ",
"   c None",
".  c #040100",
"X  c #0B0201",
"o  c #050905",
"O  c #05030C",
"+  c #0E040B",
"@  c #140202",
"#  c #1C0202",
"$  c #16030A",
"%  c #1B030B",
"&  c #1E0907",
"*  c #191007",
"=  c #090413",
"-  c #0E031C",
";  c #130414",
":  c #1F061D",
">  c #14061B",
",  c #1A191E",
"<  c #230302",
"1  c #2A0403",
"2  c #21020B",
"3  c #2A030C",
"4  c #2A0B0D",
"5  c #34040B",
"6  c #3C000C",
"7  c #360A08",
"8  c #23150B",
"9  c #2C150D",
"0  c #251A0D",
"q  c #271107",
"w  c #3D1A0D",
"e  c #2B0312",
"r  c #230C12",
"t  c #24031C",
"y  c #290716",
"u  c #320412",
"i  c #3E0511",
"p  c #3B0C13",
"a  c #35031C",
"s  c #3B031C",
"d  c #3F0B1B",
"f  c #2F1015",
"g  c #2C1614",
"h  c #3C1A13",
"j  c #381717",
"k  c #2F220A",
"l  c #3B270C",
"z  c #3A280F",
"x  c #2E2516",
"c  c #3C2013",
"v  c #372217",
"b  c #120323",
"n  c #1A032D",
"m  c #150327",
"M  c #1E1F26",
"N  c #230423",
"B  c #26042B",
"V  c #2D022A",
"C  c #280322",
"Z  c #350522",
"A  c #33042D",
"S  c #3C032A",
"D  c #311827",
"F  c #2A0532",
"G  c #3C0635",
"H  c #36073A",
"J  c #261B28",
"K  c #42020D",
"L  c #460B0F",
"P  c #461D0E",
"I  c #450514",
"U  c #4A0310",
"Y  c #450C13",
"T  c #4D0C16",
"R  c #4B051C",
"E  c #460B1A",
"W  c #4D0B1B",
"Q  c #410419",
"!  c #54031E",
"~  c #5C061A",
"^  c #55091C",
"/  c #56061B",
"(  c #451A13",
")  c #4B1D13",
"_  c #411B1B",
"`  c #4F1A1D",
"'  c #4B1117",
"]  c #5D131C",
"[  c #551F1B",
"{  c #65041B",
"}  c #6F071E",
"|  c #64091C",
" . c #660A1B",
".. c #72011F",
"X. c #64131F",
"o. c #6C121D",
"O. c #691C1D",
"+. c #76151E",
"@. c #71191E",
"#. c #45270E",
"$. c #46320E",
"%. c #492415",
"&. c #4A2B14",
"*. c #4C251B",
"=. c #452915",
"-. c #542B16",
";. c #5C2319",
":. c #592F15",
">. c #4E3412",
",. c #563614",
"<. c #78221C",
"1. c #61351A",
"2. c #440324",
"3. c #46042B",
"4. c #4C0429",
"5. c #490723",
"6. c #540424",
"7. c #5C0324",
"8. c #550B21",
"9. c #5C0B21",
"0. c #54032A",
"q. c #5B032B",
"w. c #431323",
"e. c #4C1321",
"r. c #581823",
"t. c #580633",
"y. c #560739",
"u. c #640223",
"i. c #6C0323",
"p. c #640924",
"a. c #690D24",
"s. c #65022A",
"d. c #6C062C",
"f. c #660B29",
"g. c #720424",
"h. c #730C23",
"j. c #7C0A25",
"k. c #74062B",
"l. c #7E072B",
"z. c #760D2B",
"x. c #7C0B2D",
"c. c #7A0424",
"v. c #651322",
"b. c #6D1422",
"n. c #7A1426",
"m. c #7A1225",
"M. c #640331",
"N. c #6D0333",
"B. c #750332",
"V. c #7C0531",
"C. c #482423",
"Z. c #4E263A",
"A. c #5B233A",
"S. c #6A2A23",
"D. c #7C2424",
"F. c #7F2A27",
"G. c #6F3122",
"H. c #7E2732",
"J. c #554111",
"K. c #5C421B",
"L. c #594316",
"P. c #624615",
"I. c #69401F",
"U. c #7B481A",
"Y. c #87361F",
"T. c #840625",
"R. c #820A26",
"E. c #8D062E",
"W. c #830A2D",
"Q. c #8B0C2C",
"!. c #89072B",
"~. c #960B2C",
"^. c #831427",
"/. c #841C24",
"(. c #8C1229",
"). c #8D1A24",
"_. c #931425",
"`. c #941924",
"'. c #9B1924",
"]. c #95132A",
"[. c #9D122B",
"{. c #91192B",
"}. c #9C1A2B",
"|. c #830431",
" X c #890630",
".X c #830A31",
"XX c #8B0C31",
"oX c #920D30",
"OX c #8D1130",
"+X c #871632",
"@X c #961431",
"#X c #9C1331",
"$X c #9B1A31",
"%X c #9C1F3A",
"&X c #941B34",
"*X c #A31C24",
"=X c #AB1D2C",
"-X c #B51F26",
";X c #A51C32",
":X c #A01531",
">X c #842222",
",X c #862B26",
"<X c #95212B",
"1X c #9B242C",
"2X c #902C2B",
"3X c #922527",
"4X c #8A2339",
"5X c #8F2030",
"6X c #982332",
"7X c #A32423",
"8X c #A5242E",
"9X c #A8272D",
"0X c #BB2526",
"qX c #B2212F",
"wX c #A52234",
"eX c #AB2332",
"rX c #AF2931",
"tX c #B22432",
"yX c #B42A33",
"uX c #B92D33",
"iX c #BD3233",
"pX c #C12A25",
"aX c #C13634",
"sX c #8A431D",
"dX c #8E5C1E",
"fX c #83561E",
"gX c #B13248",
/* pixels */
"                                                                                                    ",
"                                                                                                    ",
"                                                                                                    ",
"                                                                                                    ",
"                                                              X                                     ",
"                                                      X X # @ .                                     ",
"                                              @ @ X @ @ # # X         Q u                           ",
"                                        X @ @ @ @ # # # # @       7.W u                             ",
"                                  @ @ # @ @ # # # < < < 1 #   6.W.Q.u                               ",
"                            @ @ # @ # # # < < < < 1 1 7 ~ g.z.@X;Xo.                                ",
"                        @ # # # # # < < < < < < 1 K | d.Q.#X;XeX<X                                  ",
"                        # # # < < # # < # < 1 i a.W.XX@X;XeXuXtX'                                   ",
"                      @ # @ # # # # # # 3 9.j.l.XX:X;X;XrXrXyXwX4                                   ",
"                      @ @ @ # # @ # u / g..XXX#X;X;XeXeXrXyXiXiX>X  3 $                             ",
"                      X . X # < 5 p.k.W. XoXoX:X;XeXrXyXuXyXyXtX(.W 2                               ",
"                            % 9.x.V..XoXE. X#X;XeXeXeXwX$X#X@Xn.u                                   ",
"                          3 7.N.V.|.|.V.|..X.XOXXXXXXX@XyXyX/.                                      ",
"              k   $.l   I l.N.B.V.|.XX$XeXwXeXeXeXrXyXuXiX3Xp                                       ",
"            L.  z >.    k.q.s. XV.B..X.XXX@X;XrXuXiXiXaXiXb.                                        ",
"          J.$.z >.      ^ %   7.|..X$X#XOX.XV.@X;XeXyXiX9X                                          ",
"          L.&.dX%.g             s.|.oX;X;X;X$XoXXXXXXXoXn.e                                         ",
"        P.K.fXG.v.r.*.          2.B. X;X;X;X;XeX;X{.9.u 4 % X $                                     ",
"      L >X2XsX} j.X.r.%.8 *     u M.|. XOXtXyXyX}.Y     .                                           ",
"      <X8X8Xh.K ( [ /.:.P %.9 0 4 0.N.M.+XuXaXaXD.                                                  ",
"    9.6XF.,Xn.h ,.Y ;.-.] ( h %.W q.M.s.z.XX$XeXb.                                                  ",
"    m.].{.wXH.L.w &.,.j c %.] a.s.f.~ ).l.j.a.n.z.W @ & &                                           ",
"  +.eXqX;X&XS.L.-.dX*.` v.b.*Xf.0.6.6.6.6.q.p.h._.'.;.) 7 @                                         ",
"  {.[._.A.D &.I.dXS.n.}.1X].=X_.i.s.g.i.} g.} i.l.!.'.@.P q                                         ",
"  j.g.e.M p 3X1XY. ...(.8Xj.R.T.i.q.g.........~ { u.h.'.7X<.%.                                      ",
"  6 3     6X9X1Xm.6 6 U  .K } ~..Xt.i.i...g.{ ^ W ] 7XpX0XQ./.h                                     ",
"        9.&XF.,X{.v.U 6 6 K T.[.!.y.Z R / ~ i I R `.0X*Xc.7.4.8.' g                           r +   ",
"        ^.}.}.6XgX2Xp # < 5 c.~.T.t.; % 4 4 > : o.0X_.6.2.G H 2.E ` v x                   0 j r     ",
"      +.eXqX}.+Xe.f         R c.R.M.m o o o = r 7X_.q.G H H F A 3.Q e.[ 8               v j         ",
"      _.].R.Z.J $             g.W.N.A         i _.u.0.3.4.4.t - n A S Z j j 0 c 0 0 x C.w.          ",
"      } { E ,             W h.x.B.4.          3 ! 7.u.s.s.{ ! % O b n F A E f d f e.B N             ",
"      3               4 ^ wXf.s a               e a C B A 3.6.I m = = b n A V A B m ;               ",
"                    $.U.F.4Xf                         O = : a ! R C O     - - >                     ",
"                    $.P.U.(                               X $ R z.z.j                               ",
"                        $.                                    E 4Xb.G.&.                            ",
"                                                                p 1.1.$.                            ",
"                                                                    k                               ",
"                                                                                                    ",
"                                                                                                    ",
"                                                                                                    ",
"                                                                                                    ",
"                                                                                                    ",
"                                                                                                    ",
"                                                                                                    ",
"                                                                                                    ",
"                                                                                                    "
};
