/* XPM */
static char *_8507a541c9a4845cb1a1b3c8e3806a2cewuP74nc6E8fzXt[] = {
/* columns rows colors chars-per-pixel */
"50 50 219 2 ",
"   c None",
".  c #040100",
"X  c #0B0201",
"o  c #05020C",
"O  c #0C030C",
"+  c #0B0A03",
"@  c #130202",
"#  c #1D0202",
"$  c #14030A",
"%  c #1E0308",
"&  c #1A0E04",
"*  c #1F1708",
"=  c #070312",
"-  c #080215",
";  c #0B031B",
":  c #180613",
">  c #12031B",
",  c #150C14",
"<  c #250301",
"1  c #2B0402",
"2  c #23020A",
"3  c #2E020F",
"4  c #220F0B",
"5  c #2E0A0E",
"6  c #310503",
"7  c #360008",
"8  c #3A040B",
"9  c #3A0D0D",
"0  c #2B160D",
"q  c #21120B",
"w  c #331E0D",
"e  c #381F0F",
"r  c #2C0312",
"t  c #24041C",
"y  c #2C031A",
"u  c #290815",
"i  c #330315",
"p  c #3B0313",
"a  c #3B0B13",
"s  c #350C16",
"d  c #271012",
"f  c #2D1513",
"g  c #2A1911",
"h  c #251A11",
"j  c #361B14",
"k  c #3B1C13",
"l  c #371517",
"z  c #30220A",
"x  c #3A230D",
"c  c #3A2A0C",
"v  c #3F310E",
"b  c #352614",
"n  c #342811",
"m  c #3C2618",
"M  c #3A2212",
"N  c #0F032A",
"B  c #140326",
"V  c #1D0321",
"C  c #1D032D",
"Z  c #170332",
"A  c #220324",
"S  c #2B032D",
"D  c #290E2A",
"F  c #3C0524",
"G  c #380D20",
"H  c #35032A",
"J  c #3C032B",
"K  c #360A27",
"L  c #2F1822",
"P  c #270230",
"I  c #350637",
"U  c #3D0531",
"Y  c #30063A",
"T  c #352C3B",
"R  c #46030F",
"E  c #440517",
"W  c #4D0415",
"Q  c #45051B",
"!  c #4A041B",
"~  c #450E18",
"^  c #480C1B",
"/  c #55041B",
"(  c #5B041C",
")  c #520B1B",
"_  c #550C17",
"`  c #401110",
"'  c #41121D",
"]  c #4D141C",
"[  c #4D1114",
"{  c #541C16",
"}  c #51101C",
"|  c #5F1A1D",
" . c #64041B",
".. c #6C051D",
"X. c #62091F",
"o. c #6E081E",
"O. c #700E1C",
"+. c #62111D",
"@. c #6C1A1C",
"#. c #6C141E",
"$. c #79181E",
"%. c #4A2E0C",
"&. c #4B330F",
"*. c #533A0F",
"=. c #412314",
"-. c #422618",
";. c #40291C",
":. c #462717",
">. c #5F2F18",
",. c #483211",
"<. c #473313",
"1. c #593619",
"2. c #5A3819",
"3. c #583914",
"4. c #69281E",
"5. c #62311E",
"6. c #763F1C",
"7. c #440425",
"8. c #4D042C",
"9. c #4B0428",
"0. c #540423",
"q. c #5D0223",
"w. c #500628",
"e. c #5E0328",
"r. c #401123",
"t. c #511A25",
"y. c #620325",
"u. c #6A0423",
"i. c #650924",
"p. c #6D052D",
"a. c #6D0A28",
"s. c #6B0D26",
"d. c #7C0624",
"f. c #720B25",
"g. c #7C0C23",
"h. c #71042B",
"j. c #77092C",
"k. c #79082E",
"l. c #760627",
"z. c #641224",
"x. c #6F1926",
"c. c #621528",
"v. c #741523",
"b. c #7B1523",
"n. c #731D24",
"m. c #7C1C23",
"M. c #781C28",
"N. c #78142D",
"B. c #6B0434",
"V. c #790633",
"C. c #770831",
"Z. c #6C1A30",
"A. c #472720",
"S. c #793221",
"D. c #574311",
"F. c #5B4412",
"G. c #624314",
"H. c #654019",
"J. c #6C441C",
"K. c #654718",
"L. c #71481C",
"P. c #7C4E1F",
"I. c #820B26",
"U. c #8D0C26",
"Y. c #840B2E",
"T. c #8D0A2A",
"R. c #940B2E",
"E. c #990E2E",
"W. c #831321",
"Q. c #8E1A27",
"!. c #851A2B",
"~. c #8D1B2C",
"^. c #94132D",
"/. c #9B132C",
"(. c #951B2C",
"). c #9C1B2C",
"_. c #991A23",
"`. c #8B0C30",
"'. c #850431",
"]. c #920630",
"[. c #920D30",
"{. c #990F30",
"}. c #821731",
"|. c #871933",
" X c #8D1F36",
".X c #931130",
"XX c #9B1531",
"oX c #951A30",
"OX c #9D1831",
"+X c #9E1D3C",
"@X c #AC1C27",
"#X c #A41D2D",
"$X c #AD1D2F",
"%X c #A31C31",
"&X c #AA1E31",
"*X c #A11632",
"=X c #892625",
"-X c #932A29",
";X c #992929",
":X c #97232B",
">X c #973A26",
",X c #972130",
"<X c #A2202F",
"1X c #B12024",
"2X c #B82527",
"3X c #B6272E",
"4X c #B0282F",
"5X c #BD2928",
"6X c #A52133",
"7X c #AC2331",
"8X c #A32E3C",
"9X c #B32432",
"0X c #B92D32",
"qX c #B32833",
"wX c #BC3234",
"eX c #854B1D",
"rX c #87591C",
"tX c #9E4C25",
"yX c #AE2941",
/* pixels */
"                                                                                                    ",
"                                                                                                    ",
"                                                                                                    ",
"                                                                                                    ",
"                                                                                                    ",
"                                                                                                    ",
"                                                                                                    ",
"                                                                                                    ",
"                                                                                                    ",
"                                                                                                    ",
"                                                                                                    ",
"                                                                                                    ",
"                                                                                                    ",
"                                                                                                    ",
"                                                                                                    ",
"                                      . . X X @ @ @ X @ .                                           ",
"                              X @ # @ # < < < < < < < < < # @ . .                                   ",
"                          X @ < < 1 1 < 1 1 < < < < < 1 < < # X     .                               ",
"              n     &.  . . . @ # 1 6 6 6 1 1 1 1 < 1 < 1 < # @ .                                   ",
"            D.c   ,.          + @ < 1 1 6 6 6 6 6 1 6 1 # X X     .                                 ",
"          v F.c 2.q +           X < < 1 1 1 1 1 6 6 6 < X                                           ",
"          K.m rX2.b k e *.      . # < < < 1 1 1 < 6 1 .                                             ",
"          J.P.L.,.4.| ,.k @   & M < M 0 9 { 4.@.m.v.#._ W E ! E 0.Q 7.! i 3 %                       ",
"        $.:X>X3.G.{ G.l l 0 4 a M.X.b.!.(.<X%X%X6X%XOXOX^.XXXX^.^.^.^.Y.i.p $                       ",
"      M.7X-X~.H.-.K.c j :.t.c.p.'.].].].R.E.{.OX%X7X7X7XqX7X7X7X7X4X;X[                             ",
"    E |.=XS.x.J.L.5.) n.x.g.Y.T.[..X.X{.{.XX.XR.[.[..XOX*X&XqX0XwX=X`                               ",
"    v./.).b.v.-XtXM./.#X4X(.<X/.k.Y.%XOX.X*X6X7X7X6X%X*X.X`.`..X).a                                 ",
"    ).3X#X!.6X-X:Xl...f./.W.I.O.d.p.k.%X%X.X`.XXqX0XwXwX0X&X[.^._                                   ",
"  W.#XU.X.b.|.S.,X!.+.R W R / T.E.V.B.k.oX).XXY.`.%X4X5X2X/.u.a.^                                   ",
"  ...._ } ).#X#XyX8Xn.8 7 7  .E.E.V.B.0.y E ( u.u./.@X@XI.q.9.S 0.^ b                               ",
"    2 5 Q.$X$X Xc.s       < W T.T.p.8.r $ % 8 ( O.1X/.q.J 8.Y P 7.7.' -.                            ",
"      X./.U.Z.T ,           3 u.I.C.7.$ # 2 2 E :X_.e.U I Y Z C J J 7.t.l b                     d   ",
"      / ..! L                 i.'.C.J         p W.u.0.8.8.8.t - N C S S F l f               g j f   ",
"                          i.f.j.p.0.A           ! q.q.y.y.u./ %   - N Z S H ' f =.4   h ;.A.l :     ",
"                      x z.+XZ.r i               $ y A A S 7.0.! t     ; N C H S F G r.D K t         ",
"                      rXeXM.                          o = O y / ! t o       : B A B V B             ",
"                      z *.%.                                O Q f.s.5                               ",
"                                                              a }.v.6.w                             ",
"                                                                s >.2.e                             ",
"                                                                    *                               ",
"                                                                                                    ",
"                                                                                                    ",
"                                                                                                    ",
"                                                                                                    ",
"                                                                                                    ",
"                                                                                                    ",
"                                                                                                    ",
"                                                                                                    ",
"                                                                                                    ",
"                                                                                                    "
};
