/* XPM */
static char *a08805ef07614e21f9e3a022f44d80f9tvJYz1vDaE8Hd38H[] = {
/* columns rows colors chars-per-pixel */
"50 50 212 2 ",
"   c None",
".  c #0A0301",
"X  c #0B0804",
"o  c #08030D",
"O  c #07020C",
"+  c #120201",
"@  c #1A0405",
"#  c #1B0C06",
"$  c #100608",
"%  c #1B030A",
"&  c #171107",
"*  c #1D120B",
"=  c #1C1306",
"-  c #090215",
";  c #140316",
":  c #1E0617",
">  c #1A011A",
",  c #12031E",
"<  c #1F1115",
"1  c #101119",
"2  c #1F1119",
"3  c #250C06",
"4  c #24030A",
"5  c #270508",
"6  c #33040D",
"7  c #300D09",
"8  c #3F0E0D",
"9  c #23130C",
"0  c #2A150C",
"q  c #2C1C0D",
"w  c #23190D",
"e  c #3F120C",
"r  c #230314",
"t  c #200911",
"y  c #280912",
"u  c #2F0218",
"i  c #2C0D19",
"p  c #340313",
"a  c #3F0115",
"s  c #33021B",
"d  c #3E011E",
"f  c #380D18",
"g  c #291A14",
"h  c #321311",
"j  c #3A1613",
"k  c #371810",
"l  c #3C1F14",
"z  c #2B210C",
"x  c #392A0E",
"c  c #3F250D",
"v  c #392D11",
"b  c #3B2712",
"n  c #0D0324",
"m  c #0F032E",
"M  c #180324",
"N  c #14032A",
"B  c #1E0330",
"V  c #2D032D",
"C  c #26082B",
"Z  c #3D0326",
"A  c #3C042C",
"S  c #3C0928",
"D  c #370323",
"F  c #250230",
"G  c #2C222A",
"H  c #43010D",
"J  c #461E0F",
"K  c #430513",
"L  c #4D0614",
"P  c #4C0C15",
"I  c #4C021B",
"U  c #410D1C",
"Y  c #4D0D19",
"T  c #510315",
"R  c #590A19",
"E  c #461217",
"W  c #401F12",
"Q  c #4A121F",
"!  c #401919",
"~  c #5A131E",
"^  c #52121C",
"/  c #600A16",
"(  c #62041C",
")  c #6B041F",
"_  c #690D1D",
"`  c #630B1D",
"'  c #60171E",
"]  c #69191E",
"[  c #78161E",
"{  c #771B1E",
"}  c #412C0E",
"|  c #45320D",
" . c #402411",
".. c #442816",
"X. c #41221D",
"o. c #522816",
"O. c #51291B",
"+. c #552317",
"@. c #4A3211",
"#. c #533613",
"$. c #523D13",
"%. c #50351A",
"&. c #5C351A",
"*. c #69201E",
"=. c #632E1B",
"-. c #6F2C1D",
";. c #72281F",
":. c #633C1D",
">. c #430323",
",. c #4C0423",
"<. c #4D032D",
"1. c #420229",
"2. c #530325",
"3. c #5C0423",
"4. c #5F0E22",
"5. c #5D032A",
"6. c #560626",
"7. c #441723",
"8. c #4A172A",
"9. c #5E1320",
"0. c #531E20",
"q. c #5E1029",
"w. c #640425",
"e. c #6B0424",
"r. c #6D0821",
"t. c #63022C",
"y. c #69022E",
"u. c #6C0829",
"i. c #640C22",
"p. c #730523",
"a. c #7C0523",
"s. c #740A21",
"d. c #7F0927",
"f. c #71042B",
"g. c #7B062C",
"h. c #700B28",
"j. c #7C0B2C",
"k. c #671122",
"l. c #661B20",
"z. c #661C28",
"x. c #741122",
"c. c #7A1124",
"v. c #751F21",
"b. c #7C1923",
"n. c #781129",
"m. c #660231",
"M. c #6B0232",
"N. c #6D0A30",
"B. c #730331",
"V. c #7C0431",
"C. c #7F0A31",
"Z. c #761E36",
"A. c #7E2422",
"S. c #673022",
"D. c #6D3120",
"F. c #574311",
"G. c #574219",
"H. c #5B411A",
"J. c #644415",
"K. c #644D18",
"L. c #6C421A",
"P. c #754F17",
"I. c #800C26",
"U. c #83062C",
"Y. c #850B2B",
"T. c #8D0C2A",
"R. c #8D0C26",
"E. c #920C2C",
"W. c #9A0D2E",
"Q. c #891E26",
"!. c #821528",
"~. c #88122D",
"^. c #891425",
"/. c #981D27",
"(. c #95152B",
"). c #9D152E",
"_. c #951C29",
"`. c #961426",
"'. c #820631",
"]. c #8C0330",
"[. c #850B32",
"{. c #8C0B31",
"}. c #920A30",
"|. c #980E30",
" X c #8A1331",
".X c #9F1330",
"XX c #951D37",
"oX c #A81E25",
"OX c #AC1D2C",
"+X c #A4182C",
"@X c #892024",
"#X c #872A24",
"$X c #8B2B29",
"%X c #942424",
"&X c #91232D",
"*X c #9E222F",
"=X c #912E2E",
"-X c #8D243B",
";X c #992330",
":X c #A4212F",
">X c #A9202F",
",X c #A42325",
"<X c #B62026",
"1X c #B1212F",
"2X c #AD2230",
"3X c #A2223B",
"4X c #AC2B3F",
"5X c #C02A24",
"6X c #855D1C",
"7X c #915B1C",
"8X c #92611D",
"9X c #982440",
/* pixels */
"                                                                                                    ",
"                                                                                                    ",
"                                                                                                    ",
"                                                                                                    ",
"                                                                                                    ",
"                                                                                                    ",
"                                                                                                    ",
"                                                                                                    ",
"                                                                                                    ",
"                                                                                                    ",
"                                                                                                    ",
"                                                                                                    ",
"                                                                                                    ",
"                                                                                                    ",
"                                                                                                    ",
"                                                                                                    ",
"                                                                                                    ",
"                                                                                                    ",
"                                                                                                    ",
"                    X     q     + + + .                                                             ",
"              q   x z   #.}   + @ 3 3 3 # . .                                                       ",
"            F.  v $.  @.@.      # =.K J o.J o.7  .*                                                 ",
"          F.| = K.b J.L.9 g 9 l Y /.[ { [ ~ %Xc.@X+.k .                                             ",
"          G...F.H.&.8XO.l 0.^ 9.c.I.4.6.I ,.2.,.3.h.c.=.0                                           ",
"        J.H.&.;.S.7X-.t.~._.`.Y.f.5.,.,.,.3.3.2.3.t.I.oX] q                                         ",
"      P @X] A.>X*X#X_ ].).>X^.W.}.V.V.f.f.e.e.e.p.a.p.U.`.Q.h *                                     ",
"      *X/.k.;X=X$Xc.T e.) a.R ) |.{.g.B.V.j.V.u.w.e.) g.E.,X%X] 0                                   ",
"    q.XXY ~ ~.Z.&X4XQ.R 8 H ( p.U.}.{.[.M.M.M.B.f.f.e.d.OX5X<XR.A.0                                 ",
"    ^.c.~ >X1XOX3X-X] 6 L T E.W.g.T.[.[.}.[.M.M.M.M.B.f.R.`.`.p.3.Q                                 ",
"  [ >X] /.+X+XZ.8.i X 4 ` T E.W.U.N.{.M.B.{.[.N.m.M.m.M.M.y.3.<.1.,.E                               ",
"  /.I.K R.a.q.G 1       p 4 p.].g.5.'.'.M.B.'.'.V.m.m.M.M.M.M.<.A >.Q h                             ",
"  a.( 4 K p 2               K p.Y.M.B..X'.M.M.B.'.C.M.M.M.M.5.D N V Z Q %.                          ",
"  6                         4 u.Y.t.>.:X[.M.M.M.M.B.V.B.m.m.w.p O N V A U q                         ",
"                          P n.u.t.s @ &X[.y.M.M.M.m.M.g.V.M.3.I   n m B A U 9                       ",
"                        p  X9Xy       Q.[.M.m.M.B.M.M.M.B.B.3.I ;   - m F Z j 9                     ",
"                        =.#Xz.        b.[.M.M.B.M.M.B.M.5.w.e.3.;     - n V D f j q                 ",
"                        6XP.#.        b.[.M.M.M.M.m.2.<.r p j.j.r         ; M V S 7.g w             ",
"                        x q z         _ V.M.M.m.2.s       @ ^ A. .            , N F C 7.X.9 9       ",
"                                      ` B.M.t.d %           #.:. .                  ; > : t 2 < o   ",
"                                      w.M.<.u               & *                                     ",
"                                      t.>.                                                          ",
"                                    % p                                                             ",
"                                                                                                    ",
"                                                                                                    ",
"                                                                                                    ",
"                                                                                                    ",
"                                                                                                    ",
"                                                                                                    ",
"                                                                                                    ",
"                                                                                                    "
};
