/* XPM */
static char *fb508a044bdf4130f20f9cb02a419a68wyEXbR6iauMFF0ws[] = {
/* columns rows colors chars-per-pixel */
"50 50 256 2 ",
"   c black",
".  c #010101",
"X  c #020202",
"o  c gray1",
"O  c #040404",
"+  c gray2",
"@  c #060606",
"#  c #070707",
"$  c gray3",
"%  c #090909",
"&  c gray4",
"*  c #0B0B0B",
"=  c #0C0C0C",
"-  c gray5",
";  c #0E0E0E",
":  c gray6",
">  c #101010",
",  c #111111",
"<  c gray7",
"1  c #131313",
"2  c gray8",
"3  c #151515",
"4  c #161616",
"5  c gray9",
"6  c #181818",
"7  c #191919",
"8  c gray10",
"9  c #1B1B1B",
"0  c gray11",
"q  c #1D1D1D",
"w  c #1E1E1E",
"e  c gray12",
"r  c #202020",
"t  c gray13",
"y  c #222222",
"u  c #232323",
"i  c gray14",
"p  c #252525",
"a  c gray15",
"s  c #272727",
"d  c #282828",
"f  c gray16",
"g  c #2A2A2A",
"h  c gray17",
"j  c #2C2C2C",
"k  c #2D2D2D",
"l  c gray18",
"z  c #2F2F2F",
"x  c gray19",
"c  c #313131",
"v  c #323232",
"b  c gray20",
"n  c #343434",
"m  c #353535",
"M  c gray21",
"N  c #373737",
"B  c gray22",
"V  c #393939",
"C  c #3A3A3A",
"Z  c gray23",
"A  c #3C3C3C",
"S  c gray24",
"D  c #3E3E3E",
"F  c #3F3F3F",
"G  c gray25",
"H  c #414141",
"J  c gray26",
"K  c #434343",
"L  c #444444",
"P  c gray27",
"I  c #464646",
"U  c gray28",
"Y  c #484848",
"T  c #494949",
"R  c gray29",
"E  c #4B4B4B",
"W  c #4C4C4C",
"Q  c gray30",
"!  c #4E4E4E",
"~  c gray31",
"^  c #505050",
"/  c #515151",
"(  c gray32",
")  c #535353",
"_  c gray33",
"`  c #555555",
"'  c #565656",
"]  c gray34",
"[  c #585858",
"{  c gray35",
"}  c #5A5A5A",
"|  c #5B5B5B",
" . c gray36",
".. c #5D5D5D",
"X. c gray37",
"o. c #5F5F5F",
"O. c #606060",
"+. c gray38",
"@. c #626262",
"#. c gray39",
"$. c #646464",
"%. c #656565",
"&. c gray40",
"*. c #676767",
"=. c #686868",
"-. c DimGray",
";. c #6A6A6A",
":. c gray42",
">. c #6C6C6C",
",. c #6D6D6D",
"<. c gray43",
"1. c #6F6F6F",
"2. c gray44",
"3. c #717171",
"4. c #727272",
"5. c gray45",
"6. c #747474",
"7. c gray46",
"8. c #767676",
"9. c #777777",
"0. c gray47",
"q. c #797979",
"w. c gray48",
"e. c #7B7B7B",
"r. c #7C7C7C",
"t. c gray49",
"y. c #7E7E7E",
"u. c gray50",
"i. c #808080",
"p. c #818181",
"a. c gray51",
"s. c #838383",
"d. c #848484",
"f. c gray52",
"g. c #868686",
"h. c gray53",
"j. c #888888",
"k. c #898989",
"l. c gray54",
"z. c #8B8B8B",
"x. c gray55",
"c. c #8D8D8D",
"v. c #8E8E8E",
"b. c gray56",
"n. c #909090",
"m. c gray57",
"M. c #929292",
"N. c #939393",
"B. c gray58",
"V. c #959595",
"C. c gray59",
"Z. c #979797",
"A. c #989898",
"S. c gray60",
"D. c #9A9A9A",
"F. c #9B9B9B",
"G. c gray61",
"H. c #9D9D9D",
"J. c gray62",
"K. c #9F9F9F",
"L. c #A0A0A0",
"P. c gray63",
"I. c #A2A2A2",
"U. c gray64",
"Y. c #A4A4A4",
"T. c #A5A5A5",
"R. c gray65",
"E. c #A7A7A7",
"W. c gray66",
"Q. c #A9A9A9",
"!. c #AAAAAA",
"~. c gray67",
"^. c #ACACAC",
"/. c gray68",
"(. c #AEAEAE",
"). c #AFAFAF",
"_. c gray69",
"`. c #B1B1B1",
"'. c #B2B2B2",
"]. c gray70",
"[. c #B4B4B4",
"{. c gray71",
"}. c #B6B6B6",
"|. c #B7B7B7",
" X c gray72",
".X c #B9B9B9",
"XX c gray73",
"oX c #BBBBBB",
"OX c #BCBCBC",
"+X c gray74",
"@X c gray",
"#X c gray75",
"$X c #C0C0C0",
"%X c #C1C1C1",
"&X c gray76",
"*X c #C3C3C3",
"=X c gray77",
"-X c #C5C5C5",
";X c #C6C6C6",
":X c gray78",
">X c #C8C8C8",
",X c gray79",
"<X c #CACACA",
"1X c #CBCBCB",
"2X c gray80",
"3X c #CDCDCD",
"4X c #CECECE",
"5X c gray81",
"6X c #D0D0D0",
"7X c gray82",
"8X c #D2D2D2",
"9X c LightGray",
"0X c gray83",
"qX c #D5D5D5",
"wX c gray84",
"eX c #D7D7D7",
"rX c #D8D8D8",
"tX c gray85",
"yX c #DADADA",
"uX c gray86",
"iX c gainsboro",
"pX c #DDDDDD",
"aX c gray87",
"sX c #DFDFDF",
"dX c gray88",
"fX c #E1E1E1",
"gX c #E2E2E2",
"hX c gray89",
"jX c #E4E4E4",
"kX c gray90",
"lX c #E6E6E6",
"zX c #E7E7E7",
"xX c gray91",
"cX c #E9E9E9",
"vX c #EAEAEA",
"bX c gray92",
"nX c #ECECEC",
"mX c gray93",
"MX c #EEEEEE",
"NX c #EFEFEF",
"BX c gray94",
"VX c #F1F1F1",
"CX c gray95",
"ZX c #F3F3F3",
"AX c #F4F4F4",
"SX c gray96",
"DX c #F6F6F6",
"FX c gray97",
"GX c #F8F8F8",
"HX c #F9F9F9",
"JX c gray98",
"KX c #FBFBFB",
"LX c gray99",
"PX c #FDFDFD",
"IX c #FEFEFE",
"UX c white",
/* pixels */
"q w w w w w w w w 9 9 q q q q q q q q q q q q q q q q q q q q q q q q q q q q 9 9 w w w w w w w w q ",
"h c c c c c c c x f k c v v v v v v v v v v v v v v v v v v v v v v v v v v c k f x c c c c c c c h ",
"j b b b b b b b v h z v b b b b b b b b b b b b b b b b b b b b b b b b b b v z h v b b b b b b b k ",
"j b b b b b b b v g k c v v v v v v v v v v v v v v v v v v v v v v v v v v c l g v b b b b b b b j ",
"j b b b b b b b v k C H K K K K K K K K K K K K K K K K K K K K K K K K K K J A l v b b b b b b b j ",
"j b b b b b b b v x J W ^ ^ ^ ^ ^ ^ ^ ^ ^ ^ ^ ^ ^ ^ ^ ^ ^ ^ ^ ^ ^ ^ ^ ^ ^ ^ ! I c v b b b b b b b j ",
"j b b b b b b b v p 8 q r t t t t t t t t t t t t t t t t t t t t t t t t t e 9 i v b b b b b b b j ",
"j v b b b b b b c g a w r u i i i i i i i i i i i i i i i i i i i i i i i u e 0 a v b b b v b b v j ",
"n F G F G G F F S l z f w r u i i i i i i i i i i i i i i i i i i i i i u r w s l D G F F G F F F n ",
"} ,.,.,.>.=.<.5.:.U x b g w r u i i i i i i i i i i i i i i i i i i i u r e h x U :.,.5.,.:.,.,.,.} ",
"z n b b z t f U S b z f x g w t u i i i i i i i i i i i i i i i i i u r e h l x b b F L a k b b b z ",
"k v v v l r e f Y S l g l b g w r u i i i i i i i i i i i i i i i u r e h z i g v D I p w k v v v k ",
"l b b b z t y t g R D C n b b g w t u i i i i i i i i i i i i i u r e h b b C m F Y d r t z n b b l ",
"l b b b z t y i y h T S b b b b g w t u i i i i i i i i i i i u r e h b b b b G Y d y y t z n b b l ",
"l b b b z t y i i t g R S b b b v g w r u i i i i i i i i i u r e h b b b b G Y d y i y t z b b b l ",
"l b b b z t u i i i t g R S v d a c g w t u i i i i i i i u r e h h s c b F Y d y i i u t z n b b l ",
"l b b b z t y i i i i t g R S b n v b g w t u i i i i i u r e h b x x c G Y d y i i i y t z b b b l ",
"l b b n z t y i i i i i t g R F m b b b g w t u i i i u r e h b b M B G Y d y i i i i y t z b b b l ",
"l b b b z t u i i i i i i t h R S b b n b g w t u i u r e h b b b b F Y d y i i p i i u t z n b b l ",
"l b b b z t y i i i i i i i t g T S b c h x g w r y r e h x v b b G Y d y i i i i i i u t z b b b l ",
"l b b b z t y i i i i i i i i t g R D l d k b g w w w j l u j b G Y d y i i i i i i i y t z b b b l ",
"l b b b z t u i i i i i i i i i t h R D Z m b b g t h b b V b F Y d y i i i i i i i i u t z n b b l ",
"l b b b z t y i i i i i i i i i i t h R S b b b b v b b b n G Y d y i i i i i i i i i y t z b b b l ",
"l b b n z t y i i i i i i i i i i i t g R D b b b b b b b G Y d y i i i i i i i i i i y t z b b b l ",
"l b b b z t u i i i i i i i i i i i i t g L M b k a x b B K s y i i i i i i i i i i i y t z n b b l ",
"l b b b z t y i i i i i i i i i i i i y w u v b x x c b c y e u i i i i i i i i i i i y t z b b b l ",
"l b b n z t y i i i i i i i i i i i u r e h b b m V n b b g w r u i i i i i i i i i i y t z b b b l ",
"l b b b z t y i i i i i i i i i i u r e h b b b b b b b b v g w t u i i i i i i i i i y t z b b b l ",
"l b b b z t y i i i i i i i i i u r e h h h b b G / S b g a c g w r u i i i i i i i i y t z b b b l ",
"l b b n z t y i i i i i i i i u r e h v h h c G Y n T S c v v b g w t u i i i i i i i y t z b b b l ",
"l b b b z t u i i i i i i i u r e h b b B B F Y d e g T F N b b b g w t u i i i i i i u t z b b b l ",
"l b b b z t y i i i i i i u r e h b b b v F Y d y u t g T S b b b b g w r u i i i i i y t z b b b l ",
"l b b n z t u i i i i i u r e h c b b b G Y d y i i i t g R S b b z x g w t u i i i i y t z n b b l ",
"l b b b z t y i i i i u r e h k u k b F Y d y i i i i i t g R S x p f b g w r u i i i y t z b b b l ",
"l b b n z t y i i i u r e h b b N v F Y d y i i i i i i i t g R S V M b b g w r u i i y t z b b b l ",
"l b b b z t u i i u r e h b b n m G Y d y i i i i i i i i i t h R D b b b b g w t u i u t z b b b l ",
"l b b b z t y i u r e j n b b b F Y d y i i i i i i i i i i i t g R S b b b b g w r u y t z b b b l ",
"l b b n z t y u r e h j l b b F Y d y i i i i i i i i i i i i i t g R S b j a c g w r t t z b b b l ",
"k b v b l t t r w h c f g v G Y d y i i i i i i i i i i i i i i i y h R S z x c b f w w r l b v b k ",
"h z l l g q 0 0 s c v V N F Y d y i i i i i i i i i i i i i i i i i t g T F B v x z a 9 9 f l l z h ",
"r t t t r 0 9 q t a x v F Y d y i i i i i i i i i i i i i i i i i i i t h T A x a t t 0 9 e t t t r ",
"f l l l l l z l k f z F Y d y i i i i i i i i i i i i i i i i i i i i i t h Y V d k l l z l l l l f ",
"k b n n n b n n v g C I d y i i i i i i i i i i i i i i i i i i i i i i i t g J c v n n n b n n b k ",
"j b b b b b b b v v G a t u u u u u u u u u u u u u u u u u u u u u u u u u r p k v b b b b b b b j ",
"j b b b b b b b v h r q e r e e r e r r e e e e e e r e r r e r r e e e e r e 9 i v b b b b b b b j ",
"j b b b b b b b v p e u i i i i i i i i i i i i i i i i i i i i i i i i i i u r a v b b b b b b b j ",
"j b b b b b b b v g l v b b b b b b b b b b b b b b b b b b b b b b b b b b v l g v b b b b b b b j ",
"j b b b b b b b v g l v b b b b b b b b b b b b b b b b b b b b b b b b b b v l g v b b b b b b b j ",
"l N N N N N N N M h l v b v b b b b v v b b b b b b b b b b v b b b b b b b v l h M N N N N N N N l ",
"X.8.8.8.8.8.8.8.5.Q G L P P P P P P P P P P P P P P P P P P P P P P P P P P L G Q 5.8.8.8.8.8.8.8.X."
};
