/* XPM */
static char *b29b314d58f045f5eb1954d278275a5bgx7EEnWMaMSfJDRF[] = {
/* columns rows colors chars-per-pixel */
"50 50 111 2 ",
"   c gray17",
".  c #3A3A3A",
"X  c #313131",
"o  c gray11",
"O  c #343434",
"+  c #393A3A",
"@  c #373737",
"#  c gray20",
"$  c #303131",
"%  c #1D1D1D",
"&  c gray24",
"*  c #383939",
"=  c #373738",
"-  c gray13",
";  c #272727",
":  c gray23",
">  c gray21",
",  c gray19",
"<  c gray22",
"1  c #393939",
"2  c #282828",
"3  c #222222",
"4  c #262627",
"5  c #252525",
"6  c #3B3C3C",
"7  c #353535",
"8  c #3C3C3C",
"9  c gray14",
"0  c #202020",
"q  c #2F2F2F",
"w  c #3F3F3F",
"e  c #3E3E3E",
"r  c #434343",
"t  c #323232",
"y  c gray26",
"u  c gray18",
"i  c #2A2A2A",
"p  c gray25",
"a  c #434344",
"s  c gray15",
"d  c #3D3E3E",
"f  c #3F3F40",
"g  c #414141",
"h  c gray16",
"j  c #232424",
"k  c #2D2D2D",
"l  c #3F4040",
"z  c gray27",
"x  c #3C3C3D",
"c  c #2C2C2C",
"v  c #3B3B3C",
"b  c #292A2A",
"n  c #3D3D3E",
"m  c #3C3D3D",
"M  c gray12",
"N  c #282928",
"B  c #282929",
"V  c gray10",
"C  c #1B1B1B",
"Z  c #282829",
"A  c #252526",
"S  c #191919",
"D  c #383839",
"F  c #151515",
"G  c #3E3E3F",
"H  c #444444",
"J  c #444545",
"K  c #414242",
"L  c #414142",
"P  c gray28",
"I  c #3A3A3B",
"U  c #262726",
"Y  c #404141",
"T  c #333434",
"R  c #373838",
"E  c #232323",
"W  c #181819",
"Q  c #1E1E1E",
"!  c #181818",
"~  c #323233",
"^  c #2E2F2F",
"/  c #222223",
"(  c #2E2E2F",
")  c #2B2C2C",
"_  c #3E3F3F",
"`  c #323333",
"'  c #2A2B2B",
"]  c #424343",
"[  c #464646",
"{  c #404041",
"}  c #434444",
"|  c #3A3B3B",
" . c #2F3030",
".. c #353536",
"X. c gray8",
"o. c #424243",
"O. c #39393A",
"+. c #2C2D2D",
"@. c #2C2C2D",
"#. c #272627",
"$. c #343535",
"%. c #272828",
"&. c #313232",
"*. c #363637",
"=. c #242525",
"-. c #2F2F30",
";. c #29292A",
":. c #2D2E2E",
">. c #2E2F2E",
",. c #2B2B2C",
"<. c white",
/* pixels */
"  . X o O + @ # $ % X & * O = - ; : . > % , < 1 . 2 3 1 . : < 1 4 5 . 6 7 % 7 8 < 1 9   6 * < @ O 0 ",
"q w e 3 . e w e r ; t & e & y u i e p a s 7 8 d y < 2 & e f w g O h 8 p y j 1 w w r , k l & w w z q ",
"X 8 p 9 1 8 x 8 y   X : : 8 p , c 8 v p 2 7 8 . w 8 b 8 6 8 8 e 7 h : 8 g s < 8 8 p X k 8 : : : p t ",
"t : n ; . 8 8 : w c O 8 8 m y X u & 8 w h @ : . & . u & : : 8 w <   8 8 p h : x & e # X 8 : 8 v w # ",
"h X q M # t t t t 3 c # X X X 9 s # X , 0 u t t #   5 @ # O t #   ; t , u 0 t # t X s N t , , q , ; ",
"; i h 2 h B h % V i   o s k   i 0 o c u k c i 0 C i h i Z h i A S c > > O t k C u 7 # , 3 9 D < X F ",
". f p G w p H t 0 e J h # e e y 1 5 n p w w p < 9 d w & n K a H 9 > p f w g J 5 < w p a 7 i p L P V ",
"1 v I 8 & . e 7 - : g   t . : & . ; : v : . 8 = U : I 1 . 6 . p 2 > & & : v g B > 8 : d > c x & w C ",
": : x d & x w @ 3 : L q 7 . : x m i 8 8 8 : e < h 8 : : v d : y c < : x 8 8 Y   < : . & 1 u 8 6 w % ",
"> 7 O T # # t   0 > R ; t @ @ < # h & : . < @ X s 1 @ @ 7 7 # O 5 O @ > 7 O O E t O O O u ; t , , W ",
"C 3 - - 0 - Q C !   k k c u ; - k k , c 3 c # ~ q ^ E 3 u u c i / Q c ( c ) ; ! s k k 5 S 2   h ; V ",
"  e w g l g p e - : p H g r _ s & r p r u ` p r p g 7 h n p g y n 5 & g p w g 3 > p g G 3 x g p a   ",
"  8 : m 8 8 v e 9 . 8 & : 8 d 2 1 I 8 g t t v & 8 w @ i : : : 8 w ; . 8 8 : Y 5 O : 6 8 5 : v 8 w u ",
"k 8 8 8 : 8 8 l ; : & & . : n i . I 8 g O # 8 8 8 e > c . . : & g h 1 & & : w h @ : 8 w ; 8 d 8 y # ",
"k : 1 1 < @ > @ 5 e 8 . < < @ h . 1 < . q t < > @ < t c : . . 1 < 2 1 < 1 @ @ 9 O 1 > O E < @ @ < ' ",
"h $ 2 ; 7 t , u h 9 q 1 > t 2 M # X , q i i k   h h h 5 E X 7 7 2 - 7 t E   # u i M   k h c i i s V ",
"< w . u r ] w p [ , t w p g 8 s p l w l w w { r y g H y 9 < g P & 5 & [ i ` p g y E 8 a p p w w K 2 ",
"7 x 6 u x 8 6 : g t X : & & e ; 1 : 6 : 8 8 : I 8 e : } h @ | 8 8 s 1 w   X : 1 & ; 1 8 8 8 v . G k ",
"@ & e X : : 8 8 w < O v : & e i . . . 8 8 : m . I x 8 r   < 8 : 6 h . G  .O n : w i . 6 : 6 v : w X ",
"O < ..7 m . . 1 . t 7 . < < # 2 8 . < < 1 < 1 < @ @ @ : 2 < . . 7 2 < .   t 1 < 1 s @ > @ > 7 # # 2 ",
"3 5 E 3 9 9 E M - 5 E 0 s h 2 9 9 s c k c   i 9 s c i i 5 ; h s 3 h X q     h - c B h 2 M 3 k c ; X.",
": L y w 8 _ p k 9 G p s 7 } g ] 7 i & g p p g O ' e p K g w y e 5 1 g o.y w Y 5 . g f r t k } } r ! ",
". : : : : : p 7 5 . p   7 8 x e O.k 8 . 8 & & 1 +.| : 8 8 : 8 w i < : : m & p h < : . w > @.8 & w S ",
"8 : : : | : w @ ; . l k > : & w : q 8 : : 6 e . u : 1 . : : . g k 1 8 8 8 e p   + 6 : w < k : 8 p C ",
"& . : . 1 1 1 , 2 . v   @ . : & < $ w x 8 . & @ X w 8 8 : . 1 :   8 : : : : . i 1 . 1 . , k < @ R V ",
"s   5 0 i h ; E - 5 k i q , u 2   u 7 , c t 7 ,     k ` t X u   - c X u i 9 i ; i i - s 2 9 s 9 0 F ",
"t y : 0 v w y w y 5 O p g p r i q p y r 2 1 g p g # q e a g g y , q p y p 9 . y Y o.i q w y o.l g ; ",
"t e & E 1 : & : y c 7 e 8 . g X q 8 & r c 1 6 6 p : X m e 8 & p O u 8 x w 2 . m & g , q : 8 8 I p u ",
"# & g ; . 8 : 8 g k 7 v . : K 7 X : : y u 1 : : w | t 8 & 8 : e < q 8 8 e   : I : p X , v : 8 : l q ",
"O . 1 5 8 8 . . 8   < v . . & # # : . & c : 8 x & > 7 w 8 : . : .., . 1 . i & : . : q # . 1 1 1 : k ",
"E   ; E   i 9 h   5 s h u c   - h X k h h q  .  k k   X u u   2 ;   c   h E     h s - E 9 9 c c h o ",
", _ p r & g 2 , & p @ 2 e w K ; q p 8 ; e e y q u _ & Y p p e O +._ p p w p w & x m _ p 1 #.8 g g h ",
"t 8 : : v p c q : & 8 i : : Y   , 8 x h : I w 7 , : : & & : 8 n c | : : 8 d & 8 8 : & e w   : & g u ",
"O : & : 8 p q q 8 8 6 k 8 . p q X 8 G i : 8 w @ t 8 8 8 : | 8 w u : : : 6 & x : 8 : . 8 y c 8 : w t ",
"@ 8 : : . e , t v . 1 q 8 : 8 u X . < h . O.& 7 t : . . 1 < < : , 8 . 1 1 < < < < 1 < : w   . 1 x , ",
"u $.# q c   E - k 1 > # < 7 i %.7 R X %.  @ : @ O O %.&.> # X k E u 1 * @ # h s 7 < > s i ~ < 7 q C ",
"8 w } z g _ p   h _ p _ p r , k w w w g ; 1 d e Y H ; # p p y H t   p Y L r < E 8 Y H k c w w w p S ",
"1 8 8 8 x : w ,   v : . . w # u v : 8 p i 1 8 : : g h # : 8 8 & ` k 8 : : & 1 9 : : w $ k 8 8 & g C ",
"& : 8 8 8 8 g @ +.8 : 8 : g 7  .: . 8 w   < : 8 n g c O : : 8 e 7 q : | : & 8 s v 8 p X u 8 8 e w % ",
"& 1 1 < 1 1 . t k & : . < : $ u . | 1 < i > @ *.> 1 h > : 1 1 . X u 1 < < < O =.@ > 1 k c 1 < < > C ",
", 1 . ` s @ | > k ; > . @ c 2 7 t 5 t t u q c c h 0 ) m & : D > E , m | , 3 O > 1 O E 2 # 1 1 < t C ",
"O w p g i 8 p w y c < & { @   w w E 8 g w Y w { z h # f e w e a   O w y & j : l g ]   , 8 e w w p ; ",
"7 : : l k : 8 : g  .< & w < c 8 w ; < : e e 8 : g c t x 8 : : r , # : & m 5 O.I 8 g +.X 8 8 8 v g   ",
"< : 8 y # : | 8 g # < : e D c & Y h . . x d G 6 g u # . v : : p , 7 : & p ; . I . Y  .# 8 & : : g , ",
"7 < < O., 1 > 7 @ k 7 # 7 , i @ @ 5 1 @ 7 # O 7 1 2 O . > 7 7 <   X > @ > 9 > 7 < < h # < O > > = 2 ",
"# & x w 8 & 6 : D @ . @ ; h 1 m : < + @ O # E u _ & 8 w . 3 , w & q 5 8 w 1 I 3 $._ 8 < . ` 5 . e 3 ",
"7 8 & e e e G w e w w r $ u e p K w p G e y -.q e e 8 e ] i # w y 1 ; 8 & 8 r ; > l p e e w ;.6 H   ",
"7 : : 8 : : : 6 8 & . _ t u : v : . | 6 . g > , v v : . p   X & w . h 8 v 8 p %.7 & 8 : . _ q 1 p :.",
". 8 : 8 : . : v 8 m 8 & 7 ` 6 : : : : 8 . e 7 7 : : 8 : e c t 8 G : ) & 8 8 p h @ 8 : . : g X < Y q ",
"k X , , , u >.q c i i ,.5 b 7 # O # t t , , 2 q > 7 7 O O E c O t   9 @ 7 O # 3 , O t , q , ; t # 5 "
};
